<?xml version="1.0" encoding="UTF-8" standalone="no"?>
<svg
   width="655"
   height="681"
   viewBox="0 0 655 681"
   fill="none"
   version="1.1"
   id="svg1"
   sodipodi:docname="autumn-study-male-with-blob..svg"
   xml:space="preserve"
   inkscape:version="1.3.2 (091e20e, 2023-11-25)"
   xmlns:inkscape="http://www.inkscape.org/namespaces/inkscape"
   xmlns:sodipodi="http://sodipodi.sourceforge.net/DTD/sodipodi-0.dtd"
   xmlns="http://www.w3.org/2000/svg"
   xmlns:svg="http://www.w3.org/2000/svg"><defs
     id="defs1"><clipPath
       id="clip0_4_1464"><rect
         width="606"
         height="617"
         fill="white"
         id="rect77" /></clipPath></defs><sodipodi:namedview
     id="namedview1"
     pagecolor="#ffffff"
     bordercolor="#000000"
     borderopacity="0.25"
     inkscape:showpageshadow="2"
     inkscape:pageopacity="0.0"
     inkscape:pagecheckerboard="0"
     inkscape:deskcolor="#d1d1d1"
     inkscape:zoom="0.90074495"
     inkscape:cx="388.01217"
     inkscape:cy="336.38823"
     inkscape:window-width="1440"
     inkscape:window-height="847"
     inkscape:window-x="0"
     inkscape:window-y="25"
     inkscape:window-maximized="0"
     inkscape:current-layer="svg1" /><path
     d="M0 681H655V327.5C655 146.627 508.373 0 327.5 0C146.627 0 0 146.627 0 327.5V681Z"
     fill="#95E6FF"
     id="path1" /><g
     style="fill:none"
     id="g1"
     transform="translate(36.723863,114.13019)"><g
       clip-path="url(#clip0_4_1464)"
       id="g77"><path
         d="m 147.019,70.5274 v -1.1607 c -12.057,0 -124.3632,0.1777 -137.64274,0.1641 0,5.8101 -0.38939,133.5902 -0.4968,172.6842 26.87734,0 111.61254,-0.021 138.11154,-0.023 -0.012,-0.944 0.024,-156.6443 0.028,-171.6646 z"
         fill="#ffffff"
         id="path1-9" /><path
         d="m 153.135,246.629 c -0.009,2.574 -0.021,8.45 -0.03,11.003 -0.004,1.17 -0.463,2.291 -1.277,3.117 -0.814,0.826 -1.917,1.29 -3.066,1.289 L 7.11643,262.009 c -0.5745,0 -1.14328,-0.116 -1.67335,-0.342 -0.53006,-0.225 -1.01084,-0.556 -1.41444,-0.972 -0.4036,-0.416 -0.72198,-0.91 -0.93665,-1.452 -0.21468,-0.543 -0.32138,-1.124 -0.31391,-1.708 0.02954,-2.556 0.06579,-8.415 0.09399,-10.954 0.01062,-1.164 0.47279,-2.278 1.28586,-3.097 0.81307,-0.819 1.91118,-1.279 3.05518,-1.277 25.41779,0 116.85889,-0.018 141.58289,-0.019 0.572,-10e-4 1.138,0.115 1.666,0.338 0.528,0.224 1.007,0.551 1.41,0.964 0.404,0.413 0.723,0.902 0.94,1.441 0.216,0.539 0.326,1.116 0.323,1.698 z"
         fill="#ffffff"
         id="path2" /><path
         d="m 24.6713,205.276 c -0.043,11.651 -0.0699,19.669 -0.0699,21.009 6.8574,0 103.3186,0.25 106.6306,0.25 0,-0.481 0,-6.03 0,-14.718 l -8.863,-5.01 c -13.667,-9.626 -55.9913,-34.658 -67.1359,-34.658 -4.4471,-0.065 -8.8576,0.826 -12.9433,2.616 -4.0857,1.789 -7.7545,4.436 -10.7666,7.767 -1.6408,1.819 -4.9211,5.16 -4.9211,5.16 0,0 -0.7197,0.731 -1.8798,1.914 -0.0161,5.682 -0.0349,10.971 -0.051,15.67 z"
         fill="#fcc56b"
         id="path3" /><path
         d="m 131.241,199.307 c 0,4.819 0,9.192 0,12.955 -4.5,-2.773 -8.862,-5.455 -8.862,-5.455 -12.035,-8.117 -24.4715,-15.6 -37.2594,-22.421 l 0.6431,-0.493 c 4.5223,-3.873 16.9563,-11.29 22.9483,-11.29 6.789,0 11.413,3.619 15.857,6.737 1.275,0.894 4.957,3.786 4.957,3.786 l 1.72,1.311 c -0.001,5.269 -0.003,10.274 -0.004,14.87 z"
         fill="#ef8561"
         id="path4" /><path
         d="m 82.175,134.099 c 3.9475,1.294 7.6049,3.37 10.7619,6.108 1.8584,1.464 7.4201,6.003 8.4071,6.726 0.429,0.41 0.915,0.755 1.442,1.022 0.462,0.125 0.711,-0.158 1.054,-0.472 1.419,-1.413 2.585,-3.067 3.444,-4.889 1.252,-2.259 2.149,-4.704 2.659,-7.245 0.585,-4.005 -0.046,-8.096 -1.808,-11.725 -0.309,-0.616 -0.636,-0.683 -1.24,-0.713 -1.211,-0.016 -2.421,0.034 -3.626,0.147 l -2.084,0.117 c -0.696,0.091 -1.3981,0.126 -2.0997,0.105 0.2054,-0.227 0.3357,-0.503 0.5183,-0.748 l 0.6094,-0.82 1.261,-1.687 1.219,-1.633 c 0.203,-0.273 0.403,-0.546 0.61,-0.82 0.212,-0.235 0.38,-0.507 0.498,-0.802 0.154,-0.637 -0.612,-1.666 -0.927,-2.208 -0.941,-1.543 -2.159,-2.892 -3.5913,-3.976 -2.1261,-1.682 -4.5485,-2.935 -7.1366,-3.691 -2.064,-0.613 -4.2067,-0.908 -6.3565,-0.874 -1.0628,0.016 -2.1203,0.156 -3.1514,0.419 -1.0231,0.273 -1.8623,0.353 -1.6717,1.651 1.1454,7.808 2.3337,16.513 0.4028,24.257 0,0 -0.3276,1.158 -0.4283,1.397 0.2538,0.061 1.234,0.354 1.234,0.354 z"
         fill="#fcc56b"
         id="path5" /><path
         d="m 11.5649,242.209 c 0.0286,-10.488 0.0586,-20.976 0.09,-31.464 l 0.1248,-42.333 0.1343,-43.808 c 0.0349,-11.961 0.0694,-23.922 0.1034,-35.8833 0.0174,-6.1588 0.3384,-12.4078 0.0483,-18.5612 -0.0094,-0.2091 0,-0.4197 0,-0.6288 l -2.68542,2.7342 c 16.32672,0.0164 32.65382,0 48.98142,-0.0492 22.7941,-0.0301 45.5913,-0.0611 68.3923,-0.093 6.756,-0.0091 13.515,-0.0164 20.275,-0.0219 l -2.686,-2.7342 v 17.1517 l -0.023,41.3607 -0.012,49.881 -0.01,43.245 c 0,6.948 -0.261,13.953 0,20.898 0,0.096 0,0.191 0,0.287 0,3.519 5.371,3.524 5.371,0 v -17.152 l 0.009,-41.365 0.012,-49.882 0.009,-43.2452 c 0,-6.9477 0.262,-13.9527 0,-20.8976 0,-0.0957 0,-0.1913 0,-0.287 -0.01,-0.7219 -0.296,-1.4112 -0.798,-1.9217 -0.501,-0.5105 -1.178,-0.802 -1.887,-0.8125 -16.033,0.0036 -32.068,0.025 -48.1033,0.0642 -22.8837,0.0319 -45.7629,0.062 -68.6376,0.0902 -6.9661,0.0082 -13.9317,0.0133 -20.89685,0.0151 -0.7091,0.0102 -1.38632,0.3016 -1.88778,0.8121 -0.50145,0.5106 -0.78761,1.2001 -0.79768,1.9221 0,5.2578 -0.02551,10.5171 -0.04028,15.775 C 6.62007,96.7246 6.5874,108.143 6.55249,119.561 6.50952,134.008 6.467,148.453 6.42493,162.898 6.38196,177.239 6.33944,191.58 6.29737,205.921 c -0.03222,11.103 -0.064,22.208 -0.09533,33.312 l -0.00806,2.973 c -0.0094,3.519 5.36152,3.525 5.37092,0 z"
         fill="#211715"
         id="path6" /><path
         d="m 128.589,85.4055 c 0,6.1656 0,12.3317 0,18.4985 0,11.276 -0.003,22.553 -0.009,33.83 0,12.942 -0.005,25.888 -0.014,38.838 0,10.971 -0.003,21.941 -0.011,32.913 0,3.697 0,7.393 0,11.088 0,1.832 -0.153,3.741 0,5.569 0.011,0.128 0,0.264 0,0.393 l 2.686,-2.734 c -11.903,0 -23.808,-0.056 -35.7166,-0.085 -18.4464,-0.045 -36.8928,-0.091 -55.3392,-0.136 -5.1937,-0.011 -10.386,-0.03 -15.5757,-0.03 l 2.6855,2.734 c 0,-5.206 0.0322,-10.412 0.0523,-15.618 0.0403,-10.906 0.0819,-21.812 0.1249,-32.717 0.0492,-12.914 0.0994,-25.828 0.1504,-38.741 0.0448,-11.418 0.0895,-22.836 0.1343,-34.254 0.0241,-6.2316 0.0456,-12.4624 0.0644,-18.6927 v -0.6918 l -2.6854,2.7342 c 12.7344,0.0123 25.4675,-0.0273 38.2019,-0.0492 17.1655,-0.031 34.3318,-0.0624 51.4992,-0.0943 5.484,-0.0091 10.967,-0.0164 16.45,-0.0219 3.456,0 3.461,-5.4684 0,-5.4684 -12.443,0 -24.886,0.0196 -37.3283,0.0588 -17.2469,0.0328 -34.4946,0.0633 -51.7433,0.0916 -5.6914,0.0082 -11.3841,0.0132 -17.0782,0.015 -0.7091,0.0103 -1.3863,0.3016 -1.8878,0.8122 -0.5014,0.5106 -0.7876,1.2001 -0.7976,1.922 0,5.344 -0.0323,10.6894 -0.0511,16.0335 -0.0403,10.976 -0.0823,21.953 -0.1262,32.931 -0.0492,12.918 -0.0994,25.836 -0.1504,38.753 -0.0438,11.355 -0.0886,22.71 -0.1342,34.065 -0.0229,6.096 -0.1571,12.206 -0.0632,18.303 0,0.209 0,0.418 0,0.629 0.0101,0.722 0.2963,1.411 0.7977,1.922 0.5015,0.51 1.1787,0.802 1.8878,0.812 12.7479,0 25.4971,0.053 38.2449,0.085 l 54.6299,0.137 c 4.586,0.012 9.171,0.031 13.755,0.031 0.709,-0.01 1.387,-0.301 1.888,-0.812 0.502,-0.51 0.788,-1.2 0.798,-1.922 0,-4.622 0,-9.244 0,-13.865 0,-10.481 0.003,-20.966 0.009,-31.455 l 0.012,-38.697 c 0,-11.666 0.004,-23.336 0.011,-35.01 0,-7.003 0,-14.0063 0,-21.0095 v -1.0936 c 0,-3.5203 -5.371,-3.5258 -5.371,-0.0014 z"
         fill="#211715"
         id="path7" /><path
         d="m 81.466,136.735 c 3.9959,1.115 7.5045,3.729 10.7311,6.288 1.6717,1.326 3.3004,2.709 4.96,4.051 1.3844,1.121 3.1289,2.993 4.8659,3.478 2.613,0.731 4.355,-1.701 5.727,-3.554 1.427,-1.984 2.585,-4.154 3.443,-6.452 1.786,-4.44 2.095,-9.353 0.882,-13.989 -0.578,-2.214 -1.453,-5.504 -3.894,-6.2 -2.794,-0.796 -6.224,0.148 -9.0863,0.186 l 2.3193,4.115 c 0.939,-1.367 1.963,-2.654 2.954,-3.974 0.939,-1.243 2.198,-2.598 2.133,-4.256 -0.099,-2.569 -2.61,-5.358 -4.365,-6.981 -4.5368,-4.114 -10.4424,-6.313 -16.5156,-6.152 -2.468,0.102 -6.3296,0.411 -7.1944,3.309 -0.2141,1.534 -0.1102,3.097 0.3048,4.588 0.2216,1.576 0.423,3.155 0.5841,4.74 0.568,5.557 0.9655,11.74 -0.9399,17.088 -0.182,0.7 -0.087,1.445 0.2646,2.074 0.3515,0.629 0.9315,1.092 1.6152,1.291 0.4029,0.112 0.8191,0.234 1.2273,0.354 3.3246,0.986 4.7452,-4.29 1.4273,-5.273 -0.4028,-0.122 -0.8164,-0.242 -1.2272,-0.354 l 1.8798,3.363 c 2.8613,-8.018 1.4112,-17.436 0.2336,-25.635 -0.3142,-2.187 -0.8795,0.755 -1.14,0.43 0.0108,0.012 1.3763,-0.338 1.3079,-0.324 1.047,-0.186 2.1121,-0.245 3.1728,-0.175 2.15,0.119 4.2646,0.608 6.2544,1.446 1.6561,0.672 3.2001,1.601 4.5774,2.753 0.7486,0.629 1.4295,1.337 2.0316,2.113 0.2753,0.378 0.5323,0.77 0.7683,1.175 0.151,0.248 0.361,1.094 0.372,0.52 l 0.366,-1.381 c -1.441,2.265 -3.1995,4.291 -4.7155,6.503 -0.2308,0.415 -0.3518,0.884 -0.351,1.361 7e-4,0.477 0.1232,0.946 0.3554,1.36 0.2321,0.415 0.566,0.761 0.969,1.004 0.4029,0.243 0.861,0.376 1.3294,0.385 1.4137,-0.019 2.8197,-0.137 4.2247,-0.235 0.648,-0.048 1.298,-0.095 1.948,-0.118 0.326,-0.014 0.652,-0.022 0.977,-0.023 0.771,0.022 0.871,0.015 0.301,-0.021 l -0.964,-0.981 c 1.896,3.341 2.443,7.301 1.528,11.046 -0.851,3.873 -2.77,7.419 -5.531,10.22 l 1.185,-0.702 -0.02,-0.011 1.354,0.373 c -1.611,-0.967 -3.11,-2.117 -4.4656,-3.429 -1.7335,-1.427 -3.4656,-2.854 -5.2366,-4.231 -3.3938,-2.874 -7.2973,-5.059 -11.4992,-6.436 -3.3393,-0.933 -4.764,4.346 -1.4286,5.273 z"
         fill="#211715"
         id="path8" /><path
         d="m 123.735,204.446 c -11.871,-8.158 -24.2081,-15.589 -36.9465,-22.254 -6.6159,-3.639 -13.4205,-6.91 -20.3839,-9.799 -2.4079,-1.019 -4.8901,-1.845 -7.424,-2.471 -3.4014,-0.657 -6.8966,-0.627 -10.2866,0.089 -5.4704,0.978 -10.6197,3.314 -14.9916,6.802 -3.1771,2.789 -6.1816,5.777 -8.9962,8.944 -2.4465,2.494 1.3507,6.362 3.7985,3.868 2.4089,-2.461 4.6526,-5.133 7.1971,-7.44 3.3239,-2.982 7.2872,-5.13 11.5729,-6.273 2.4116,-0.646 4.8916,-0.99 7.385,-1.023 0.5291,-0.008 1.038,0.014 1.563,0.051 0.4713,0.032 -0.5801,-0.114 0.1141,0.015 0.231,0.043 0.4619,0.082 0.6915,0.128 2.4152,0.541 4.781,1.289 7.0722,2.237 13.6193,5.311 26.6733,13.017 39.2625,20.575 5.981,3.59 11.942,7.256 17.658,11.273 2.852,2.004 5.54,-2.734 2.711,-4.722 z"
         fill="#211715"
         id="path9" /><path
         d="m 87.6627,185.825 c 2.9226,-2.339 6.0578,-4.389 9.3628,-6.121 3.3235,-1.822 7.0995,-3.877 10.9095,-4.336 7.302,-0.881 14.628,5.72 20.235,10.116 0.616,0.362 1.347,0.463 2.035,0.279 0.688,-0.184 1.277,-0.637 1.639,-1.26 0.342,-0.631 0.432,-1.371 0.253,-2.067 -0.18,-0.696 -0.615,-1.296 -1.217,-1.674 -6.823,-5.355 -14.835,-12.09 -24.058,-10.715 -4.266,0.867 -8.357,2.46 -12.1019,4.712 -3.8502,2.016 -7.4878,4.427 -10.856,7.197 -2.6613,2.25 1.1561,6.1 3.7986,3.866 z"
         fill="#211715"
         id="path10" /><path
         d="m 36.5571,130.669 c 3.5717,5.781 10.2947,10.371 17.2044,9.092 4.6069,-0.851 8.4189,-4.608 7.4991,-9.629 -0.1984,-1.034 -0.5957,-2.017 -1.1689,-2.893 -0.5732,-0.876 -1.3111,-1.628 -2.171,-2.212 -0.86,-0.585 -1.825,-0.991 -2.8396,-1.194 -1.0145,-0.203 -2.0586,-0.2 -3.0719,0.01 -6.6263,1.378 -6.5928,9.259 -2.5834,13.456 2.5002,2.618 6.472,3.326 9.8932,3.767 4.0116,0.628 8.1157,-0.03 11.7435,-1.883 3.0507,-1.657 0.3411,-6.38 -2.7109,-4.722 -3.9678,2.157 -8.807,1.418 -12.9506,0.218 -0.7861,-0.203 -1.5078,-0.607 -2.0957,-1.176 -0.5879,-0.568 -1.0222,-1.281 -1.2612,-2.07 -0.3262,-1.074 -0.3074,-1.743 0.7265,-2.15 0.4459,-0.233 0.9629,-0.282 1.4434,-0.137 -0.5223,-0.068 0.1343,0.063 0.3088,0.137 0.2901,0.113 -0.0846,-0.047 -0.1168,-0.062 0.1689,0.082 0.3329,0.173 0.4914,0.274 0.5371,0.333 -0.0631,-0.13 0.2471,0.188 0.1034,0.107 0.5371,0.609 0.3773,0.394 0.2242,0.276 0.3754,0.605 0.4391,0.957 0.0617,0.232 0.0953,0.813 0.0698,0.262 0.0161,0.261 0.0161,0.522 0,0.782 -0.0309,0.41 0.0833,-0.463 -0.0067,-0.058 -0.0179,0.112 -0.0462,0.223 -0.0846,0.33 -0.2108,0.471 -0.0201,0.085 0.0228,0 -0.0631,0.143 -0.1377,0.28 -0.2229,0.411 -0.286,0.423 -0.0684,0.136 0,0.046 -0.1052,0.134 -0.2197,0.261 -0.3424,0.379 -0.123,0.13 -0.2609,0.246 -0.4108,0.343 -0.5792,0.385 -1.2255,0.655 -1.904,0.793 -4.6808,1.169 -9.5186,-2.588 -11.8872,-6.426 -1.8355,-2.972 -6.484,-0.231 -4.6378,2.761 z"
         fill="#211715"
         id="path11" /><path
         d="m 150.45,246.629 c -0.011,3.331 -0.02,6.663 -0.027,9.996 0,1.031 0.034,2.153 -1.085,2.579 -0.72,0.154 -1.459,0.187 -2.19,0.099 H 136.943 106.674 L 34.4745,259.288 H 9.52934 c -1.477,0 -3.77709,0.462 -4.08861,-1.568 -0.08854,-1.403 -0.07103,-2.81 0.05237,-4.21 0.01522,-1.845 0.02999,-3.689 0.04431,-5.533 0.0094,-1.047 -0.16247,-2.35 0.96811,-2.871 0.77275,-0.207 1.57777,-0.259 2.36991,-0.152 h 5.19097 c 22.7494,0 45.4988,-0.002 68.2482,-0.008 l 64.1284,-0.009 c 1.469,0 3.905,-0.435 4.004,1.703 0.161,3.504 5.534,3.524 5.371,0 -0.021,-0.966 -0.229,-1.919 -0.612,-2.803 -0.384,-0.884 -0.935,-1.682 -1.622,-2.348 -0.688,-0.667 -1.498,-1.188 -2.384,-1.535 -0.886,-0.347 -1.83,-0.512 -2.779,-0.486 -1.706,-0.023 -3.414,0 -5.122,0 H 129.603 92.9127 l -74.5294,0.011 c -3.8295,0 -7.7999,-0.301 -11.61729,0.023 -4.34373,0.369 -6.557886,3.953 -6.596826,8.084 -0.032225,3.433 -0.32494,6.987 -0.06445,10.409 0.144806,1.894 1.006296,3.657 2.402816,4.916 1.39651,1.26 3.21891,1.918 5.08289,1.836 1.524,0.015 3.04936,0 4.57466,0 h 12.5706 l 73.7265,0.014 33.9948,0.008 h 12.046 c 1.415,0 2.844,0.062 4.256,0 0.968,-0.028 1.921,-0.254 2.801,-0.663 0.881,-0.409 1.673,-0.994 2.328,-1.72 0.655,-0.725 1.161,-1.577 1.488,-2.505 0.326,-0.928 0.467,-1.913 0.414,-2.898 0.035,-3.451 0.016,-6.905 0.028,-10.357 0.014,-3.516 -5.356,-3.521 -5.368,0.003 z"
         fill="#211715"
         id="path12" /><path
         d="m 48.0092,206.507 c 0.8406,-0.929 1.8122,-1.725 2.8829,-2.363 0.4667,-0.293 0.9616,-0.537 1.477,-0.728 -0.0135,0 0.7277,-0.233 0.7277,-0.157 -0.1105,-0.064 -0.2177,-0.134 -0.3209,-0.209 -0.0248,-0.033 -0.0363,-0.074 -0.0322,-0.115 -0.0081,-0.15 0.0228,-0.062 0.0926,0.265 0,0 0.0725,0.491 0.047,0.251 0.0214,0.665 -0.0163,1.33 -0.1128,1.989 -0.1342,1.722 -0.0134,3.791 1.5119,4.868 1.6637,1.174 3.3018,0.273 4.8513,-0.617 1.2837,-0.735 2.5324,-1.531 3.8187,-2.264 2.6811,-1.531 5.457,-2.883 8.3102,-4.048 0.6759,-0.21 1.2472,-0.676 1.5967,-1.301 0.3495,-0.626 0.4508,-1.364 0.2831,-2.063 -0.1923,-0.697 -0.647,-1.29 -1.2654,-1.648 -0.6184,-0.358 -1.3505,-0.454 -2.0377,-0.266 -2.6495,1.065 -5.2439,2.267 -7.7731,3.601 -1.1529,0.615 -2.2902,1.26 -3.4118,1.934 -0.5573,0.335 -1.1105,0.684 -1.6704,1.008 -0.3102,0.183 -0.623,0.365 -0.9399,0.547 -0.3639,0.202 -0.9184,0.243 -0.1343,0.243 l 1.8986,0.801 -0.2416,-0.207 0.6915,1.205 c -0.2105,-0.878 -0.2224,-1.793 -0.035,-2.676 0.0709,-0.83 0.0257,-1.665 -0.1342,-2.482 -0.1773,-0.978 -0.624,-1.884 -1.288,-2.613 -0.664,-0.729 -1.518,-1.251 -2.4623,-1.504 -3.6643,-0.93 -7.7676,2.153 -10.1228,4.691 -2.3551,2.539 1.4179,6.426 3.7972,3.867 z"
         fill="#211715"
         id="path13" /><path
         d="m 109.737,197.15 c 0.315,-0.274 0.637,-0.538 0.964,-0.795 l -0.537,0.428 c 1.673,-1.282 3.489,-2.357 5.41,-3.204 0.606,-0.362 1.049,-0.951 1.234,-1.641 0.187,-0.711 0.09,-1.468 -0.269,-2.108 -0.357,-0.615 -0.934,-1.065 -1.611,-1.256 l -0.713,-0.097 c -0.477,-0.001 -0.945,0.128 -1.356,0.373 -2.502,1.134 -4.831,2.627 -6.918,4.432 -0.501,0.514 -0.784,1.209 -0.785,1.933 0.005,0.724 0.287,1.418 0.785,1.935 0.505,0.511 1.188,0.798 1.9,0.799 0.706,-0.032 1.377,-0.315 1.899,-0.799 z"
         fill="#211715"
         id="path14" /><path
         d="m 541.42,289.221 c 9.362,2.078 19.423,4.492 28.639,6.875 5.399,-5.323 10.111,-9.96 10.111,-9.96 8.419,-2.095 14.591,-3.683 23.197,-5.778 l -0.888,-13.349 c -11.51,1.964 -29.423,5.082 -42.473,7.374 -8.489,-4.424 -22.053,1.784 -18.63,14.823 0.012,0.003 0.031,0.012 0.044,0.015 z"
         fill="#ffffff"
         id="path15" /><path
         d="m 579.026,326.108 -0.098,0.039 c -1.636,0.63 -3.419,0.747 -5.121,0.337 -20.759,-4.921 -70.736,-17.542 -75.679,-19.162 -3.271,-1.072 -5.049,-3.585 -4.215,-6.035 2.275,-4.168 5.254,-7.895 8.8,-11.01 2.381,-2.206 5.224,-3.831 8.314,-4.751 3.09,-0.919 6.345,-1.11 9.518,-0.557 17.232,3.048 46.355,9.95 64.837,15.289 1.114,0.312 2.155,0.844 3.066,1.567 0.911,0.722 1.673,1.621 2.242,2.643 1.218,2.362 1.998,4.931 2.302,7.58 0.195,1.666 -0.071,3.355 -0.767,4.877 -0.696,1.521 -1.796,2.815 -3.174,3.735 -3.16,2.145 -6.517,3.969 -10.025,5.448 z"
         fill="#ffffff"
         id="path16" /><path
         d="m 578.313,323.475 c -2.865,1.121 -5.968,-0.136 -8.82,-0.82 -2.792,-0.674 -5.583,-1.353 -8.371,-2.04 -6.597,-1.618 -13.19,-3.254 -19.778,-4.908 -11.776,-2.951 -23.551,-5.912 -35.289,-9.022 -1.655,-0.438 -3.312,-0.88 -4.968,-1.339 -1.445,-0.228 -2.819,-0.792 -4.014,-1.649 -1.167,-1.093 -0.474,-1.804 0.268,-3.007 1.357,-2.154 2.936,-4.153 4.712,-5.964 2.842,-3.292 6.567,-5.668 10.717,-6.835 3.908,-0.957 7.67,-0.193 11.533,0.547 3.697,0.708 7.385,1.46 11.063,2.256 8.477,1.813 16.924,3.766 25.34,5.859 4.549,1.124 9.089,2.287 13.619,3.489 2.015,0.536 4.029,1.083 6.042,1.64 2.055,0.366 4.05,1.021 5.927,1.947 1.819,1.403 3.049,3.454 3.444,5.742 0.742,1.974 0.804,4.145 0.177,6.16 -0.939,2.268 -3.131,3.427 -5.109,4.604 -2.078,1.276 -4.247,2.391 -6.489,3.338 -0.676,0.21 -1.247,0.675 -1.597,1.301 -0.349,0.625 -0.45,1.363 -0.283,2.062 0.193,0.697 0.648,1.289 1.266,1.647 0.618,0.358 1.35,0.454 2.037,0.267 2.235,-0.91 4.41,-1.965 6.512,-3.158 2.186,-1.093 4.218,-2.478 6.043,-4.12 3.759,-3.781 3.927,-8.929 2.535,-13.829 -1.399,-4.922 -4.187,-8.678 -9.152,-10.137 -4.098,-1.205 -8.228,-2.3 -12.353,-3.382 -9.105,-2.388 -18.248,-4.621 -27.43,-6.699 -8.251,-1.874 -16.546,-3.799 -24.9,-5.135 -4.854,-0.804 -9.834,-0.101 -14.29,2.016 -4.578,2.439 -8.541,5.921 -11.579,10.176 -1.445,1.871 -3.326,4.101 -3.909,6.468 -0.24,1.08 -0.218,2.203 0.066,3.273 0.283,1.069 0.819,2.052 1.56,2.862 1.706,1.717 3.87,2.887 6.223,3.363 11.046,3.124 22.216,5.829 33.34,8.635 13.408,3.382 26.808,6.835 40.282,9.943 2.326,0.628 4.783,0.533 7.055,-0.274 0.676,-0.209 1.248,-0.675 1.598,-1.301 0.35,-0.626 0.45,-1.364 0.282,-2.063 -0.193,-0.698 -0.649,-1.291 -1.269,-1.649 -0.62,-0.358 -1.353,-0.453 -2.041,-0.264 z"
         fill="#211715"
         id="path17" /><path
         d="m 507.969,324.974 c -0.112,0.153 -0.225,0.303 -0.339,0.453 l 0.421,-0.553 c -1.532,2.015 -3.16,3.952 -4.709,5.952 -0.483,0.527 -0.762,1.214 -0.786,1.935 0.006,0.723 0.287,1.417 0.786,1.933 0.505,0.51 1.188,0.798 1.9,0.801 0.353,0.005 0.704,-0.064 1.03,-0.201 0.327,-0.138 0.622,-0.342 0.868,-0.6 1.805,-2.334 3.722,-4.577 5.466,-6.96 0.18,-0.316 0.297,-0.664 0.343,-1.026 0.046,-0.362 0.021,-0.729 -0.074,-1.081 -0.093,-0.347 -0.253,-0.671 -0.469,-0.955 -0.217,-0.284 -0.486,-0.521 -0.793,-0.699 -0.307,-0.178 -0.645,-0.292 -0.995,-0.337 -0.35,-0.044 -0.706,-0.018 -1.046,0.077 l -0.642,0.274 c -0.397,0.238 -0.729,0.575 -0.963,0.98 z"
         fill="#211715"
         id="path18" /><path
         d="m 527.951,332.159 c -0.078,0.234 -0.166,0.462 -0.26,0.684 l 0.268,-0.654 c -0.914,2.188 -2.102,4.257 -3.088,6.416 -0.343,0.644 -0.439,1.396 -0.268,2.108 0.191,0.685 0.632,1.27 1.234,1.634 0.31,0.182 0.652,0.3 1.007,0.347 0.355,0.047 0.716,0.022 1.062,-0.074 0.335,-0.091 0.65,-0.249 0.926,-0.464 0.275,-0.216 0.506,-0.485 0.678,-0.792 0.607,-1.328 1.276,-2.626 1.924,-3.933 0.653,-1.234 1.22,-2.513 1.696,-3.828 0.189,-0.7 0.098,-1.447 -0.254,-2.077 -0.351,-0.631 -0.935,-1.094 -1.622,-1.286 -0.686,-0.193 -1.42,-0.1 -2.04,0.258 -0.619,0.358 -1.073,0.952 -1.263,1.651 z"
         fill="#211715"
         id="path19" /><path
         d="m 546.473,338.43 c -0.251,2.734 -0.482,5.468 -0.79,8.202 10e-4,0.726 0.284,1.421 0.787,1.934 0.504,0.512 1.187,0.8 1.899,0.8 0.712,0 1.395,-0.288 1.898,-0.8 0.471,-0.535 0.749,-1.217 0.787,-1.934 0.308,-2.734 0.537,-5.468 0.79,-8.202 0,-0.725 -0.283,-1.42 -0.786,-1.933 -0.249,-0.254 -0.545,-0.456 -0.871,-0.593 -0.326,-0.138 -0.675,-0.208 -1.028,-0.208 -0.353,0 -0.702,0.07 -1.028,0.208 -0.326,0.137 -0.622,0.339 -0.871,0.593 -0.474,0.532 -0.753,1.215 -0.787,1.933 z"
         fill="#211715"
         id="path20" /><path
         d="m 543.52,285.417 c 0,-0.33 0,-0.659 0.022,-0.99 0.009,-0.164 0.134,-1.062 0.031,-0.458 0.099,-0.638 0.25,-1.266 0.451,-1.879 0.045,-0.136 0.098,-0.273 0.146,-0.417 0.134,-0.38 -0.188,0.411 -0.023,0.047 0.118,-0.263 0.242,-0.522 0.379,-0.775 0.137,-0.253 0.278,-0.496 0.431,-0.736 0.098,-0.154 0.642,-0.871 0.252,-0.391 0.35,-0.435 0.728,-0.846 1.131,-1.23 0.201,-0.192 0.412,-0.372 0.624,-0.547 -0.47,0.399 0.221,-0.159 0.372,-0.262 0.461,-0.316 0.94,-0.602 1.436,-0.858 0.217,-0.112 0.437,-0.217 0.66,-0.318 -0.607,0.273 0.348,-0.127 0.529,-0.189 0.528,-0.184 1.066,-0.337 1.612,-0.458 0.275,-0.061 0.55,-0.108 0.827,-0.158 0.134,-0.025 0.522,-0.055 -0.09,0.011 0.174,-0.02 0.349,-0.039 0.523,-0.052 0.523,-0.043 1.048,-0.057 1.573,-0.043 0.279,0.008 0.556,0.03 0.835,0.049 0.792,0.054 -0.251,-0.088 0.526,0.07 0.544,0.105 1.082,0.239 1.611,0.402 0.231,0.074 0.458,0.16 0.687,0.242 0.084,0.03 0.494,0.209 0.158,0.06 -0.361,-0.16 0.175,0.089 0.244,0.125 0.492,0.258 0.97,0.542 1.433,0.85 0.602,0.398 -0.028,-0.071 0.292,0.215 0.268,0.237 0.53,0.473 0.778,0.728 0.202,0.208 0.391,0.427 0.579,0.646 0.325,0.377 0.047,0.049 -0.012,-0.032 0.134,0.179 0.259,0.365 0.381,0.547 0.187,0.288 0.36,0.586 0.521,0.891 0.065,0.119 0.493,1.043 0.281,0.533 0.602,1.436 0.928,2.976 0.96,4.536 0.162,3.504 5.533,3.525 5.371,0 -0.316,-6.862 -4.074,-12.987 -10.843,-14.794 -2.879,-0.765 -5.906,-0.742 -8.774,0.068 -2.868,0.81 -5.474,2.378 -7.555,4.544 -2.452,2.737 -3.788,6.321 -3.736,10.025 0.02,3.518 5.391,3.526 5.37,0 z"
         fill="#211715"
         id="path21" /><path
         d="m 561.466,276.893 c 13.905,-2.44 27.814,-4.855 41.728,-7.246 0.684,-0.197 1.265,-0.66 1.617,-1.29 0.352,-0.629 0.446,-1.375 0.262,-2.074 -0.202,-0.691 -0.659,-1.276 -1.275,-1.632 -0.615,-0.357 -1.342,-0.458 -2.029,-0.282 -13.915,2.376 -27.824,4.791 -41.727,7.245 -0.684,0.197 -1.265,0.66 -1.617,1.29 -0.351,0.629 -0.446,1.374 -0.262,2.073 0.201,0.692 0.658,1.277 1.273,1.633 0.616,0.357 1.343,0.458 2.03,0.281 z"
         fill="#211715"
         id="path22" /><path
         d="m 580.884,288.773 c 7.733,-1.926 15.455,-3.892 23.197,-5.779 3.357,-0.82 1.938,-6.092 -1.427,-5.273 -7.742,1.887 -15.466,3.853 -23.198,5.779 -3.357,0.835 -1.935,6.109 1.428,5.273 z"
         fill="#211715"
         id="path23" /><path
         d="m 578.733,307.22 c -2.807,1.861 -3.887,5.214 -4.815,8.318 -0.182,0.699 -0.087,1.444 0.264,2.073 0.352,0.629 0.932,1.092 1.616,1.29 0.687,0.177 1.414,0.077 2.03,-0.28 0.616,-0.356 1.072,-0.942 1.273,-1.634 0.32,-1.071 0.645,-2.14 1.066,-3.173 l -0.268,0.653 c 0.325,-0.822 0.75,-1.599 1.265,-2.314 l -0.421,0.553 c 0.282,-0.373 0.609,-0.709 0.972,-1 l -0.543,0.426 c 0.091,-0.068 0.182,-0.136 0.278,-0.195 0.594,-0.372 1.033,-0.954 1.233,-1.634 0.187,-0.711 0.091,-1.468 -0.268,-2.107 -0.178,-0.31 -0.414,-0.581 -0.695,-0.798 -0.281,-0.217 -0.601,-0.376 -0.942,-0.467 -0.341,-0.091 -0.697,-0.113 -1.046,-0.064 -0.35,0.048 -0.686,0.167 -0.991,0.348 z"
         fill="#211715"
         id="path24" /><path
         d="m 320.348,274.99 c 0.592,-0.52 1.279,-0.916 2.022,-1.165 10.402,-4.26 19.08,-10.756 22.882,-15.958 3.479,3.256 4.754,5.828 6.868,9.98 -5.028,20.133 -13.025,41.505 -19.458,60.897 l -14.367,43.33 -14.367,-43.33 c -6.495,-19.584 -14.586,-41.185 -19.604,-61.492 1.548,-3.546 3.782,-6.738 6.569,-9.385 3.8,5.195 12.478,11.698 22.88,15.958 0.742,0.249 1.43,0.645 2.022,1.165 z"
         fill="#ffffff"
         id="path25" /><path
         d="m 311.657,352.068 c -2.123,-6.401 -4.246,-12.803 -6.37,-19.205 2.026,-16.896 4.805,-37.558 4.805,-38.142 0,-1.048 -1.647,-8.006 -2.097,-10.323 l -0.067,-0.242 c 0.779,-0.82 1.547,-1.654 2.282,-2.481 2.991,-3.341 4.747,-4.837 5.103,-5.421 0.227,-0.37 0.711,-0.786 0.463,-1.257 h 4.565 c -0.248,0.471 0.237,0.887 0.464,1.257 0.358,0.584 2.116,2.08 5.102,5.421 0.753,0.842 1.536,1.686 2.327,2.525 -0.199,0.82 -0.31,1.269 -0.31,1.269 -0.316,1.286 -2.292,7.713 -2.326,9.59 -0.017,0.996 2.879,20.419 5.505,38.354 -4.275,12.889 -8.55,25.778 -12.824,38.668 -2.203,-6.673 -4.411,-13.344 -6.622,-20.013 z"
         fill="#ffffff"
         id="path26" /><path
         d="m 319.781,449.268 c -12.978,-8.457 -28.381,-10.995 -43.861,-9.824 -15.307,1.156 -34.825,2.948 -47.067,9.27 -4.613,21.857 -13.736,75.088 -17.684,96.341 35.956,-9.231 79.148,-9.231 108.62,2.597 29.831,-11.604 70.561,-11.604 108.604,-2.597 -3.946,-21.253 -13.07,-74.484 -17.682,-96.341 -12.242,-6.322 -31.162,-9.023 -46.47,-10.182 -15.481,-1.17 -29.912,2.431 -44.46,10.736 z"
         fill="#ffffff"
         id="path27" /><path
         d="m 372.258,183.082 c 0.849,-0.799 1.845,-1.418 2.931,-1.823 1.086,-0.404 2.239,-0.586 3.394,-0.534 1.469,-0.049 2.923,0.309 4.208,1.036 1.284,0.727 2.351,1.795 3.086,3.09 2.479,4.375 2.374,12.441 0.71,17.429 -1.177,3.533 -3.108,8.939 -7.761,12.814 -1.023,0.868 -2.213,1.511 -3.492,1.887 -1.28,0.377 -2.623,0.479 -3.944,0.301 l -0.833,-0.137 c -0.724,2.588 -1.782,5.293 -2.18,6.521 -1.757,4.86 -11.089,21.31 -23.125,28.903 v 5.306 c -3.802,5.195 -12.48,11.698 -22.882,15.958 -0.743,0.249 -1.43,0.645 -2.022,1.165 h -4.565 c -0.592,-0.52 -1.28,-0.916 -2.022,-1.165 -10.403,-4.26 -19.081,-10.756 -22.88,-15.958 v -4.961 c -5.398,-3.251 -10.169,-7.474 -14.08,-12.464 -5.764,-6.721 -9.995,-14.658 -12.388,-23.241 -1.373,0.25 -2.783,0.191 -4.13,-0.174 -1.347,-0.365 -2.6,-1.027 -3.669,-1.938 -4.652,-3.876 -6.579,-9.281 -7.761,-12.814 -1.662,-4.99 -1.768,-13.053 0.71,-17.429 0.736,-1.295 1.802,-2.363 3.087,-3.09 1.284,-0.726 2.738,-1.085 4.207,-1.036 1.155,-0.052 2.309,0.129 3.395,0.534 1.085,0.405 2.082,1.024 2.931,1.823 0,0 -9.794,-57.76 54.657,-57.76 64.451,0 54.418,57.757 54.418,57.757 z"
         fill="#ffffff"
         id="path28" /><path
         d="m 317.522,369.75 -12.234,-36.888 c 2.025,-16.895 4.804,-37.557 4.804,-38.142 0,-1.049 -1.647,-8.006 -2.097,-10.323 l -0.07,-0.237 c 0.779,-0.82 1.548,-1.658 2.291,-2.487 2.99,-3.341 4.746,-4.836 5.102,-5.42 0.227,-0.371 0.712,-0.786 0.463,-1.258 l 4.547,0.053 c -0.196,0.449 0.262,0.848 0.481,1.205 0.358,0.584 2.116,2.079 5.102,5.42 0.787,0.879 1.605,1.76 2.433,2.636 l -0.416,1.158 c -0.316,1.287 -2.292,7.713 -2.326,9.59 -0.017,0.997 2.879,20.419 5.505,38.354 l -12.824,38.669 z"
         fill="#ffda71"
         id="path29" /><path
         d="m 337.989,294.628 c 4.955,-5.922 9.283,-12.359 12.913,-19.205 0.878,-1.686 1.717,-3.393 2.516,-5.12 0.571,-0.913 0.949,-1.937 1.109,-3.007 -0.145,-1.015 -0.523,-1.98 -1.104,-2.818 -1.607,-3.187 -3.728,-6.076 -6.273,-8.55 -0.294,-0.287 -0.648,-0.503 -1.035,-0.632 -0.387,-0.13 -0.797,-0.17 -1.202,-0.118 -0.404,0.052 -0.791,0.196 -1.134,0.42 -0.343,0.225 -0.632,0.524 -0.846,0.877 -2.577,3.193 -5.65,5.935 -9.099,8.115 -2.192,1.486 -4.466,2.844 -6.81,4.067 -2.461,1.288 -5.371,2.115 -7.678,3.649 -4.551,3.029 1.033,7.366 3.223,9.698 3.894,4.158 7.978,8.225 11.627,12.613 2.235,2.689 6.019,-1.195 3.797,-3.867 -2.941,-3.536 -6.248,-6.729 -9.348,-10.117 -1.354,-1.478 -2.686,-2.961 -4.098,-4.386 -0.434,-0.44 -0.87,-0.88 -1.304,-1.322 -0.134,-0.136 -0.254,-0.273 -0.379,-0.419 0.609,0.683 -0.057,-0.137 -0.233,-0.456 l 0.366,1.381 0.041,-0.454 -0.783,1.946 c 0.756,-0.806 2.685,-1.231 3.719,-1.701 1.273,-0.573 2.529,-1.184 3.768,-1.832 2.582,-1.346 5.078,-2.857 7.472,-4.525 3.939,-2.619 7.438,-5.867 10.362,-9.619 l -4.218,0.554 c 2.555,2.57 4.646,5.578 6.177,8.886 v -2.76 c -4.001,8.938 -9.157,17.292 -15.331,24.84 -2.22,2.668 1.561,6.562 3.785,3.862 z"
         fill="#211715"
         id="path30" /><path
         d="m 301.941,290.76 c -6.175,-7.547 -11.331,-15.901 -15.332,-24.84 v 2.76 c 1.532,-3.307 3.622,-6.315 6.177,-8.886 l -4.218,-0.553 c 2.924,3.752 6.423,7 10.362,9.618 2.314,1.614 4.722,3.08 7.212,4.393 1.322,0.699 2.665,1.356 4.028,1.97 1.041,0.469 2.964,0.895 3.72,1.701 l -0.786,-1.933 0.04,0.453 0.367,-1.38 c -0.124,0.229 -0.94,1.2 -0.234,0.455 -0.134,0.137 -0.244,0.286 -0.378,0.42 -0.395,0.389 -0.781,0.792 -1.171,1.188 -1.452,1.468 -2.836,2.995 -4.23,4.519 -3.1,3.388 -6.409,6.58 -9.349,10.117 -2.221,2.671 1.56,6.562 3.797,3.867 3.592,-4.318 7.612,-8.305 11.436,-12.409 2.187,-2.349 8.035,-6.823 3.409,-9.902 -2.223,-1.48 -5.038,-2.282 -7.414,-3.512 -2.357,-1.217 -4.643,-2.571 -6.848,-4.053 -3.536,-2.21 -6.686,-5.004 -9.321,-8.266 -0.215,-0.353 -0.504,-0.652 -0.847,-0.876 -0.343,-0.225 -0.731,-0.368 -1.135,-0.421 -0.404,-0.052 -0.815,-0.012 -1.202,0.118 -0.387,0.13 -0.741,0.346 -1.035,0.632 -2.49,2.409 -4.57,5.222 -6.154,8.325 -0.538,0.819 -0.935,1.725 -1.175,2.679 0.012,1.104 0.339,2.18 0.94,3.098 0.84,1.815 1.716,3.615 2.64,5.388 3.628,6.846 7.956,13.284 12.913,19.205 2.215,2.693 5.996,-1.194 3.788,-3.875 z"
         fill="#211715"
         id="path31" /><path
         d="m 310.797,297.305 c 4.786,0 9.57,-0.108 14.354,-0.11 0.712,0 1.395,-0.288 1.899,-0.8 0.504,-0.513 0.786,-1.209 0.786,-1.934 0,-0.725 -0.282,-1.42 -0.786,-1.933 -0.504,-0.513 -1.187,-0.801 -1.899,-0.801 -4.784,0 -9.568,0.107 -14.354,0.109 -0.712,0 -1.395,0.288 -1.899,0.801 -0.503,0.513 -0.786,1.208 -0.786,1.934 0,0.725 0.283,1.42 0.786,1.933 0.504,0.513 1.187,0.801 1.899,0.801 z"
         fill="#211715"
         id="path32" /><path
         d="m 305.406,285.118 c 0.372,1.886 0.806,3.759 1.217,5.637 0.189,0.876 0.378,1.754 0.552,2.633 0.076,0.39 0.146,0.779 0.217,1.169 0.121,0.651 0.066,-0.506 0.015,0.157 -0.165,2.125 -0.518,4.248 -0.791,6.36 -1.37,10.625 -2.75,21.25 -4.028,31.887 0.003,0.724 0.287,1.418 0.79,1.93 0.503,0.512 1.184,0.801 1.895,0.805 0.707,-0.017 1.381,-0.311 1.881,-0.82 0.5,-0.509 0.788,-1.195 0.805,-1.915 1.29,-10.759 2.685,-21.504 4.072,-32.252 0.393,-2.041 0.638,-4.108 0.732,-6.185 -0.158,-1.768 -0.481,-3.516 -0.964,-5.222 -0.403,-1.879 -0.845,-3.752 -1.217,-5.637 -0.68,-3.448 -5.858,-1.989 -5.179,1.453 z"
         fill="#211715"
         id="path33" /><path
         d="m 333.446,330.909 c -1.503,-10.243 -3.042,-20.481 -4.491,-30.733 -0.107,-0.752 -0.212,-1.504 -0.316,-2.256 l -0.134,-1.01 c -0.097,-0.711 0.011,0.105 -0.047,-0.353 -0.1,-0.602 -0.148,-1.212 -0.142,-1.822 0.017,-0.183 0.014,-0.158 -0.008,0.073 0.036,-0.209 0.074,-0.417 0.117,-0.624 0.076,-0.354 0.15,-0.709 0.232,-1.061 0.216,-0.926 0.459,-1.844 0.707,-2.76 0.379,-1.393 0.806,-2.774 1.162,-4.174 0.867,-3.41 -4.313,-4.863 -5.179,-1.453 -1.005,3.148 -1.793,6.365 -2.358,9.625 -0.037,2.196 0.193,4.388 0.685,6.526 1.477,10.5 3.056,20.986 4.596,31.476 0.193,0.697 0.648,1.289 1.266,1.647 0.618,0.358 1.35,0.454 2.037,0.267 0.678,-0.208 1.251,-0.673 1.601,-1.299 0.35,-0.626 0.45,-1.365 0.279,-2.064 z"
         fill="#211715"
         id="path34" /><path
         d="m 229.859,415.567 -31.135,16.539 c -12.004,-4.251 -26.899,-25.473 -24.549,-38.574 1.38,-7.699 4.227,-14.7 6.932,-21.537 4.779,-12.072 15.258,-35.919 19.958,-45.005 2.626,-5.073 5.287,-10.54 8.127,-15.599 5.113,-9.069 12.734,-16.407 21.913,-21.101 13.135,-6.753 29.472,-12.94 42.334,-18.765 3.014,-3.077 6.352,-5.805 9.954,-8.135 4.905,21.41 13.62,44.522 20.528,65.347 l 14.367,43.33 14.368,-43.33 c 6.909,-20.829 15.623,-43.941 20.528,-65.347 3.664,2.372 7.056,5.152 10.114,8.288 10.986,5.862 24.946,10.779 37.116,16.444 10.917,5.06 19.92,13.602 25.646,24.334 2.991,5.62 5.783,11.651 7.922,16.709 4.251,10.026 18.872,46.481 22.938,60.723 1.563,5.468 2.319,12.869 0.111,18.911 -3.189,8.579 -7.398,16.728 -12.532,24.266 L 398.4,417.001 c 1.154,-0.86 5.404,-4.167 5.404,-4.167 2.698,-3.672 7.263,-15.013 6.399,-19.637 -3.108,-5.94 -7.997,-14.853 -13.06,-21.075 -1.031,15.518 -2.09,31.629 -2.872,46.883 -30.933,0.029 -99.201,0.059 -131.443,0.088 0,0 -14.568,0 -19.981,0 -1.113,-16.796 -2.577,-34.636 -3.958,-51.577 l -0.872,0.989 c -3.822,5.229 -7.293,10.715 -10.388,16.421 -3.411,7.137 -1.357,7.945 3.195,13.781 2.271,2.912 5.03,6.938 8.298,11.934 z"
         fill="#5394cf"
         id="path35" /><path
         d="m 321.138,446.907 c -13.444,-8.661 -29.54,-11.347 -45.218,-10.198 -14.291,1.045 -29.331,2.08 -42.871,7.202 -1.466,0.555 -2.915,1.165 -4.331,1.838 -0.873,0.284 -1.636,0.838 -2.184,1.586 -0.294,0.656 -0.485,1.354 -0.568,2.071 -0.447,2.142 -0.879,4.287 -1.294,6.435 -1.047,5.326 -2.061,10.658 -3.04,15.995 -2.323,12.531 -4.565,25.078 -6.796,37.625 -2.069,11.62 -4.102,23.255 -6.255,34.861 -0.116,0.465 -0.111,0.952 0.014,1.415 0.125,0.462 0.366,0.883 0.699,1.222 0.333,0.339 0.747,0.585 1.201,0.712 0.454,0.128 0.932,0.133 1.389,0.016 14.033,-3.562 28.383,-5.676 42.833,-6.312 13.907,-0.746 27.852,0.092 41.576,2.497 6.354,1.142 12.612,2.777 18.72,4.891 1.343,0.47 2.686,1.164 4.059,1.525 1.62,0.425 3.751,-0.884 5.275,-1.412 3.063,-1.059 6.165,-1.99 9.307,-2.792 13.883,-3.412 28.137,-5.009 42.416,-4.753 17.379,0.184 34.685,2.315 51.606,6.356 0.457,0.116 0.935,0.111 1.389,-0.017 0.454,-0.128 0.867,-0.373 1.2,-0.712 0.333,-0.339 0.574,-0.76 0.699,-1.222 0.126,-0.462 0.131,-0.949 0.017,-1.414 -4.163,-22.449 -7.998,-44.961 -12.118,-67.42 -1.033,-5.63 -2.087,-11.256 -3.16,-16.878 -0.463,-2.412 -0.936,-4.821 -1.416,-7.228 -0.448,-2.226 -0.499,-5.49 -2.639,-6.66 -6.077,-3.322 -13.145,-5.137 -19.844,-6.583 -7.361,-1.538 -14.803,-2.642 -22.289,-3.308 -8.588,-1.005 -17.273,-0.723 -25.781,0.836 -8.891,1.911 -17.434,5.224 -25.321,9.82 -3.02,1.712 -0.315,6.438 2.711,4.722 10.833,-6.396 23.029,-10.017 35.541,-10.552 5.939,-0.035 11.874,0.354 17.76,1.163 5.903,0.663 11.768,1.65 17.567,2.954 5.995,1.238 11.821,3.212 17.349,5.879 l -1.234,-1.634 c 5.481,26.02 9.785,52.312 14.456,78.491 1.062,5.952 2.124,11.905 3.223,17.85 l 3.303,-3.364 c -28.839,-6.785 -59.456,-9.09 -88.679,-3.444 -7.276,1.377 -14.42,3.401 -21.35,6.047 h 1.449 c -12.809,-5.107 -26.544,-7.592 -40.215,-8.698 -14.953,-1.159 -29.984,-0.72 -44.847,1.311 -8.411,1.106 -16.754,2.703 -24.985,4.785 l 3.303,3.364 c 4.834,-26.037 9.219,-52.157 14.115,-78.181 1.14,-6.063 2.296,-12.124 3.567,-18.16 l -1.234,1.634 c 9.93,-5.058 21.618,-6.57 32.531,-7.735 12.029,-1.285 24.244,-2.427 36.178,0.223 6.918,1.502 13.522,4.233 19.51,8.066 2.924,1.9 5.622,-2.837 2.706,-4.715 z"
         fill="#211715"
         id="path36" /><path
         d="m 317.174,461.588 c 0,22.239 -0.226,44.477 -0.227,66.715 0,3.517 5.371,3.524 5.371,0 0,-22.239 0.224,-44.478 0.227,-66.715 0,-3.519 -5.371,-3.524 -5.371,0 z"
         fill="#211715"
         id="path37" /><path
         d="m 294.26,99.6918 c -5.612,2.0572 -10.903,4.9282 -15.71,8.5252 -8.114,5.89 -14.779,13.613 -19.473,22.563 -4.694,8.95 -7.29,18.884 -7.584,29.026 -0.205,7.219 0.664,14.427 2.578,21.381 0.905,-0.281 1.844,-0.436 2.79,-0.462 1.155,-0.052 2.309,0.13 3.395,0.534 1.085,0.405 2.082,1.024 2.931,1.823 l 8.138,-6.425 c 6.597,-7.484 18.241,-18.765 26.412,-23.129 0.957,-0.511 2.188,0.181 2.576,1.81 0.319,1.275 0.404,2.598 0.251,3.903 -0.066,0.371 -0.029,0.752 0.105,1.103 0.134,0.35 0.362,0.656 0.657,0.883 0.295,0.226 0.646,0.365 1.014,0.401 0.367,0.036 0.738,-0.033 1.07,-0.199 5.832,-3.299 16.226,-9.939 23.597,-13.101 4.022,-0.524 8.108,0.12 11.786,1.859 3.373,1.512 6.49,3.559 9.233,6.064 6.597,5.781 12.922,13.71 15.724,20.887 l 8.511,5.954 c 0.849,-0.799 1.845,-1.419 2.931,-1.823 1.085,-0.405 2.239,-0.586 3.394,-0.534 0.863,0.024 1.719,0.153 2.551,0.385 1.927,-6.924 2.775,-14.113 2.513,-21.304 -1.093,-26.029 -14.13,-42.197 -26.721,-51.349 -11.416,-8.4757 -25.223,-12.9545 -39.351,-12.7644 -7.941,-0.0597 -15.832,1.2902 -23.318,3.9892 z"
         fill="#7a7473"
         id="path38" /><path
         d="m 241.448,409.264 c -2.629,-4.016 -5.294,-8.013 -8.205,-11.823 -1.161,-1.518 -2.46,-2.937 -3.565,-4.495 -0.366,-0.391 -0.646,-0.855 -0.824,-1.364 -0.177,-0.508 -0.248,-1.049 -0.206,-1.586 0.435,-3.456 3.037,-6.973 4.82,-9.843 2.174,-3.499 4.454,-6.938 6.875,-10.266 0.355,-0.627 0.453,-1.371 0.273,-2.071 -0.181,-0.7 -0.624,-1.3 -1.236,-1.669 -0.619,-0.35 -1.346,-0.443 -2.031,-0.26 -0.684,0.183 -1.273,0.628 -1.644,1.241 -2.562,3.519 -4.968,7.164 -7.251,10.877 -2.129,3.464 -4.61,7.31 -5.114,11.442 -0.51,4.187 2.319,7.109 4.73,10.109 3.179,3.948 5.963,8.226 8.743,12.469 1.908,2.913 6.562,0.179 4.638,-2.76 z"
         fill="#211715"
         id="path39" /><path
         d="m 193.533,393.506 c 7.452,-1.832 15.156,-2.357 22.782,-1.553 0.711,-0.004 1.391,-0.293 1.894,-0.805 0.503,-0.512 0.787,-1.205 0.791,-1.929 -0.015,-0.72 -0.303,-1.406 -0.804,-1.916 -0.5,-0.509 -1.174,-0.802 -1.881,-0.818 -8.109,-0.818 -16.295,-0.227 -24.21,1.748 -3.356,0.821 -1.936,6.099 1.428,5.273 z"
         fill="#211715"
         id="path40" /><path
         d="m 395.76,374.694 c 2.619,3.436 5.005,7.049 7.143,10.815 1.098,1.878 2.164,3.776 3.196,5.694 0.426,0.787 0.848,1.577 1.266,2.37 l 0.322,0.61 c -0.078,-0.493 -0.102,-0.593 -0.075,-0.299 0.025,0.307 0.03,0.615 0.016,0.923 -0.264,3.077 -1.03,6.089 -2.265,8.91 -0.953,2.74 -2.255,5.34 -3.874,7.734 l 0.964,-0.982 c -1.126,0.884 -2.258,1.758 -3.397,2.625 -0.599,0.381 -1.032,0.981 -1.211,1.676 -0.18,0.696 -0.091,1.435 0.247,2.066 0.363,0.622 0.952,1.074 1.64,1.257 0.688,0.184 1.419,0.084 2.035,-0.277 1.755,-1.089 3.33,-2.454 4.667,-4.044 0.918,-1.419 1.719,-2.913 2.394,-4.467 1.881,-3.858 3.208,-7.97 3.94,-12.211 0.444,-1.891 0.289,-3.876 -0.444,-5.671 -1.136,-2.28 -2.404,-4.511 -3.661,-6.722 -2.691,-4.849 -5.735,-9.487 -9.106,-13.873 -0.506,-0.509 -1.188,-0.795 -1.899,-0.795 -0.711,0 -1.393,0.286 -1.898,0.795 -0.489,0.52 -0.761,1.213 -0.761,1.933 0,0.72 0.272,1.412 0.761,1.933 z"
         fill="#211715"
         id="path41" /><path
         d="m 421.779,393.973 c -0.781,0.348 -0.054,0.031 0.12,-0.03 0.217,-0.078 0.437,-0.148 0.659,-0.212 0.474,-0.137 0.956,-0.249 1.439,-0.343 0.257,-0.05 0.514,-0.089 0.771,-0.137 0.302,-0.045 0.262,-0.041 -0.118,0.012 0.134,-0.018 0.268,-0.035 0.403,-0.05 0.555,-0.065 1.111,-0.115 1.669,-0.151 2.267,-0.13 4.54,-0.14 6.809,-0.029 0.71,-0.005 1.39,-0.295 1.892,-0.807 0.503,-0.511 0.787,-1.203 0.793,-1.927 -0.015,-0.72 -0.302,-1.407 -0.803,-1.917 -0.5,-0.509 -1.175,-0.802 -1.882,-0.817 -4.795,-0.19 -9.988,-0.312 -14.464,1.682 -0.614,0.367 -1.06,0.967 -1.24,1.668 -0.18,0.701 -0.081,1.447 0.277,2.073 0.374,0.61 0.963,1.051 1.646,1.233 0.683,0.183 1.408,0.092 2.028,-0.252 z"
         fill="#211715"
         id="path42" /><path
         d="m 92.0158,421.965 c 18.2902,0 36.5792,-0.021 54.8692,-0.063 4.171,0 8.343,-0.003 12.516,-0.009 3.456,0 3.461,-5.469 0,-5.469 -18.627,0 -37.253,0.021 -55.879,0.063 -3.8361,0 -7.6714,0.003 -11.5062,0.01 -3.4562,0 -3.4616,5.468 0,5.468 z"
         fill="#211715"
         id="path43" /><path
         d="m 476.036,421.965 c 18.289,0 36.579,-0.021 54.869,-0.063 4.173,0 8.344,-0.003 12.516,-0.009 3.456,0 3.461,-5.469 0,-5.469 -18.626,0 -37.253,0.021 -55.879,0.063 -3.837,0 -7.672,0.003 -11.506,0.01 -3.456,0 -3.462,5.468 0,5.468 z"
         fill="#211715"
         id="path44" /><path
         d="m 262.835,421.826 c 15.656,-0.014 31.312,-0.025 46.969,-0.033 l 53.205,-0.034 24.873,-0.018 c 3.456,0 3.461,-5.468 0,-5.468 -15.764,0.013 -31.527,0.024 -47.29,0.032 l -53.114,0.032 -24.64,0.019 c -3.455,0 -3.462,5.468 0,5.468 z"
         fill="#211715"
         id="path45" /><path
         d="m 269.044,270.525 c -7.854,3.45 -15.801,6.674 -23.664,10.101 -7.309,3.186 -14.954,6.289 -21.558,10.858 -6.212,4.283 -11.51,9.799 -15.576,16.219 -3.945,6.616 -7.543,13.441 -10.778,20.446 -5.606,11.399 -10.658,23.111 -15.563,34.837 -2.739,6.551 -5.516,13.135 -7.742,19.888 -1.411,3.891 -2.37,7.936 -2.859,12.053 -0.177,2.82 0.12,5.65 0.878,8.368 2.008,7.029 5.464,13.541 10.138,19.104 4.162,5.195 9.399,10.045 15.688,12.345 3.259,1.19 4.663,-4.091 1.429,-5.273 -4.913,-1.797 -9.082,-5.895 -12.441,-9.874 -3.886,-4.495 -6.908,-9.694 -8.909,-15.326 -0.923,-2.529 -1.422,-5.198 -1.477,-7.895 0.216,-3.417 0.917,-6.785 2.08,-9.998 1.996,-6.562 4.651,-12.919 7.271,-19.239 4.749,-11.456 9.717,-22.848 15.075,-34.024 2.934,-6.122 6.042,-12.188 9.265,-18.153 3.404,-6.562 8.102,-12.339 13.8,-16.968 6.629,-5.239 14.666,-8.542 22.311,-11.91 8.41,-3.705 16.931,-7.141 25.344,-10.837 0.612,-0.37 1.056,-0.97 1.236,-1.67 0.18,-0.7 0.082,-1.445 -0.273,-2.072 -0.372,-0.612 -0.961,-1.056 -1.645,-1.238 -0.683,-0.183 -1.411,-0.09 -2.03,0.258 z"
         fill="#211715"
         id="path46" /><path
         d="m 233.193,328.296 c 1.506,22.483 3.539,44.928 5.278,67.398 0.517,6.687 1.009,13.376 1.477,20.069 0.239,3.49 5.611,3.517 5.371,0 -1.6,-23.335 -3.666,-46.632 -5.474,-69.951 -0.453,-5.833 -0.879,-11.67 -1.277,-17.512 -0.235,-3.492 -5.607,-3.518 -5.371,0 z"
         fill="#211715"
         id="path47" /><path
         d="m 364.489,275.36 c 7.444,3.715 15.173,6.808 22.826,10.009 7.003,2.923 14.167,5.729 20.41,10.152 5.796,4.121 10.706,9.403 14.429,15.523 3.764,6.487 7.05,13.25 9.83,20.233 0.145,0.345 0.288,0.684 0.433,1.035 l 0.311,0.747 c 0.368,0.894 0.736,1.788 1.103,2.683 0.906,2.215 1.805,4.433 2.697,6.655 2.148,5.338 4.258,10.692 6.331,16.06 3.903,10.09 7.875,20.223 11.021,30.593 1.08,3.352 1.699,6.84 1.84,10.365 0.02,4.161 -0.866,8.275 -2.594,12.046 -2.828,7.165 -6.5,13.955 -10.936,20.219 -0.356,0.627 -0.454,1.372 -0.273,2.072 0.18,0.7 0.625,1.3 1.237,1.668 0.619,0.349 1.345,0.442 2.03,0.259 0.684,-0.182 1.272,-0.626 1.644,-1.239 3.992,-5.657 7.359,-11.744 10.042,-18.152 1.783,-3.54 3.079,-7.312 3.854,-11.21 0.55,-4.007 0.445,-8.08 -0.313,-12.051 -1.065,-4.935 -2.521,-9.773 -4.353,-14.468 -1.99,-5.668 -4.093,-11.295 -6.235,-16.906 -3.873,-10.148 -7.879,-20.245 -12.017,-30.288 -5.423,-13.098 -11.182,-26.627 -21.877,-36.201 -6.7,-5.999 -14.449,-9.66 -22.604,-13.141 -8.727,-3.729 -17.611,-7.139 -26.122,-11.385 -3.089,-1.543 -5.817,3.172 -2.711,4.722 z"
         fill="#211715"
         id="path48" /><path
         d="m 397.199,328.253 c -1.171,22.5 -2.865,44.97 -4.267,67.456 -0.417,6.694 -0.808,13.39 -1.172,20.087 -0.188,3.516 5.183,3.506 5.371,0 1.25,-23.353 2.966,-46.676 4.431,-70.015 0.365,-5.841 0.703,-11.684 1.015,-17.528 0.184,-3.517 -5.189,-3.506 -5.371,0 z"
         fill="#211715"
         id="path49" /><path
         d="m 320.882,372.8 c 4.918,-14.826 9.835,-29.651 14.753,-44.477 4.532,-13.593 9.399,-27.069 13.674,-40.751 2.417,-7.74 4.649,-15.544 6.472,-23.454 l -3.945,1.641 c 3.539,2.281 6.804,4.975 9.731,8.025 1.568,1.572 3.044,3.236 4.422,4.983 0.581,0.744 1.13,1.515 1.647,2.312 0.238,0.364 0.468,0.735 0.69,1.112 0.097,0.167 0.627,1.173 0.618,0.968 l 0.367,-1.379 c 0.385,-0.374 0.269,-0.348 -0.347,0.078 l -1.13,0.634 -2.26,1.27 -4.521,2.539 c -0.351,0.214 -0.65,0.507 -0.874,0.856 -0.223,0.349 -0.367,0.745 -0.418,1.158 -0.052,0.414 -0.011,0.834 0.12,1.229 0.131,0.394 0.348,0.754 0.635,1.051 2.148,1.98 4.284,3.971 6.359,6.029 1.07,0.836 2.026,1.815 2.84,2.91 0.356,0.7 0.178,-0.329 0,0.411 -0.272,0.799 -0.614,1.573 -1.021,2.311 -2.291,5.152 -4.684,10.255 -7.179,15.312 -4.89,9.898 -10.19,19.58 -15.784,29.082 -3.308,5.616 -6.7,11.179 -10.177,16.687 -1.867,2.974 2.779,5.719 4.637,2.76 12.939,-20.226 24.358,-41.419 34.162,-63.396 0.417,-0.72 0.685,-1.519 0.788,-2.348 0.102,-0.829 0.037,-1.67 -0.192,-2.473 -0.703,-1.467 -1.711,-2.762 -2.954,-3.793 -2.484,-2.538 -5.078,-4.96 -7.686,-7.364 l -0.537,4.294 5.935,-3.333 c 1.645,-0.924 3.969,-1.754 4.522,-3.803 0.799,-2.964 -2.774,-6.878 -4.431,-8.986 -4.272,-5.469 -9.43,-10.157 -15.251,-13.861 -0.356,-0.207 -0.754,-0.329 -1.163,-0.356 -0.409,-0.028 -0.819,0.04 -1.199,0.197 -0.38,0.157 -0.72,0.401 -0.994,0.711 -0.274,0.311 -0.475,0.681 -0.589,1.082 -3.451,14.108 -7.613,28.025 -12.471,41.696 -4.733,13.908 -9.421,27.83 -14.064,41.765 l -8.365,25.222 c -1.108,3.341 4.078,4.775 5.18,1.453 z"
         fill="#211715"
         id="path50" /><path
         d="m 301.214,363.177 c -12.172,-18.795 -22.981,-38.469 -32.339,-58.866 -0.812,-1.382 -1.482,-2.846 -1.998,-4.368 -0.035,-0.169 -0.194,-0.43 -0.225,-0.161 0.014,-0.119 0.507,-0.547 0.653,-0.706 0.504,-0.527 1.012,-1.05 1.524,-1.569 2.35,-2.376 4.793,-4.655 7.251,-6.917 0.286,-0.298 0.503,-0.658 0.633,-1.053 0.131,-0.395 0.171,-0.815 0.119,-1.229 -0.053,-0.413 -0.196,-0.809 -0.421,-1.158 -0.224,-0.349 -0.524,-0.641 -0.875,-0.855 l -4.521,-2.538 -2.26,-1.27 -1.131,-0.635 c -0.616,-0.424 -0.732,-0.45 -0.346,-0.078 l 0.367,1.38 c -0.011,0.247 0.425,-0.634 0.513,-0.785 0.252,-0.44 0.517,-0.872 0.794,-1.296 0.473,-0.724 0.97,-1.433 1.495,-2.117 1.419,-1.82 2.947,-3.549 4.575,-5.178 2.926,-3.05 6.192,-5.743 9.73,-8.025 l -3.945,-1.64 c 3.451,14.108 7.614,28.025 12.472,41.696 4.732,13.908 9.42,27.829 14.063,41.765 l 8.364,25.222 c 1.101,3.317 6.29,1.894 5.18,-1.453 -4.918,-14.827 -9.836,-29.653 -14.753,-44.479 -4.532,-13.593 -9.399,-27.068 -13.675,-40.75 -2.417,-7.74 -4.648,-15.544 -6.472,-23.453 -0.113,-0.401 -0.314,-0.771 -0.588,-1.082 -0.275,-0.31 -0.614,-0.553 -0.994,-0.711 -0.38,-0.157 -0.79,-0.225 -1.199,-0.197 -0.41,0.028 -0.807,0.149 -1.164,0.356 -5.817,3.706 -10.971,8.394 -15.24,13.864 -1.659,2.112 -5.236,6.015 -4.431,8.986 0.529,1.958 2.666,2.76 4.241,3.645 l 6.217,3.491 -0.544,-4.294 c -2.302,2.122 -4.591,4.256 -6.805,6.472 -1.947,1.95 -4.625,4.093 -4.063,7.21 0.375,1.415 0.922,2.776 1.627,4.054 0.661,1.449 1.328,2.896 2.001,4.34 1.324,2.839 2.671,5.665 4.041,8.476 5.192,10.651 10.775,21.089 16.75,31.315 3.446,5.866 7.027,11.646 10.741,17.34 1.902,2.919 6.556,0.184 4.638,-2.76 z"
         fill="#211715"
         id="path51" /><path
         d="m 336.067,387.014 c 0.217,0.177 0.422,0.37 0.613,0.576 0.111,0.099 0.209,0.215 0.288,0.343 0.025,0.059 -0.351,-0.554 -0.231,-0.296 0.053,0.095 0.112,0.186 0.175,0.274 0.146,0.236 0.248,0.496 0.387,0.735 0.138,0.24 -0.199,-0.397 -0.149,-0.358 0.028,0.022 0.055,0.146 0.067,0.181 0.052,0.164 0.107,0.325 0.151,0.49 0.109,0.26 0.166,0.539 0.17,0.821 0,0.02 -0.072,-0.781 -0.051,-0.342 0,0.064 0.01,0.13 0.014,0.194 0.011,0.172 0.015,0.345 0.014,0.518 0,0.13 0,0.259 -0.014,0.388 0,0.065 -0.012,0.13 -0.014,0.195 -0.021,0.438 0.045,-0.36 0.051,-0.341 -0.003,0.305 -0.066,0.605 -0.186,0.885 -0.04,0.146 -0.088,0.287 -0.134,0.43 -0.012,0.064 -0.035,0.125 -0.066,0.182 -0.047,0.036 0.286,-0.603 0.148,-0.355 -0.156,0.28 -0.278,0.575 -0.451,0.849 -0.055,0.117 -0.128,0.224 -0.216,0.317 -0.055,0.035 0.425,-0.503 0.223,-0.3 -0.061,0.061 -0.111,0.137 -0.168,0.196 -0.088,0.097 -0.178,0.191 -0.269,0.273 -0.066,0.063 -0.134,0.119 -0.203,0.181 -0.229,0.217 0.486,-0.352 0.223,-0.174 -0.263,0.178 -0.486,0.335 -0.746,0.477 -0.135,0.078 -0.288,0.137 -0.43,0.216 -0.224,0.115 0.322,-0.136 0.326,-0.136 -0.088,0.027 -0.174,0.06 -0.259,0.098 -0.304,0.111 -0.615,0.202 -0.93,0.273 -0.069,0.014 -0.374,0.028 -0.41,0.077 0.012,-0.016 0.735,-0.078 0.301,-0.042 -0.093,0 -0.185,0.017 -0.277,0.023 -0.3,0.018 -0.601,0.018 -0.901,0 -0.161,0.007 -0.323,-0.008 -0.482,-0.043 -0.055,-0.017 0.672,0.115 0.374,0.048 -0.112,-0.026 -0.226,-0.042 -0.337,-0.067 -0.289,-0.065 -0.574,-0.15 -0.852,-0.254 -0.06,-0.033 -0.124,-0.059 -0.19,-0.075 0,0 0.547,0.258 0.33,0.137 -0.158,-0.091 -0.324,-0.166 -0.479,-0.26 -0.156,-0.094 -0.269,-0.174 -0.403,-0.264 -0.367,-0.253 0.419,0.399 0.121,0.083 -0.21,-0.22 -0.413,-0.453 -0.623,-0.672 0.543,0.563 0.22,0.291 0.083,0.076 -0.082,-0.128 -0.159,-0.258 -0.23,-0.391 -0.071,-0.132 -0.114,-0.232 -0.173,-0.348 -0.095,-0.19 -0.07,-0.387 0.12,0.295 -0.023,-0.082 -0.062,-0.163 -0.09,-0.243 -0.092,-0.269 -0.167,-0.543 -0.226,-0.821 -0.054,-0.143 -0.081,-0.295 -0.081,-0.448 0.019,-0.067 0.062,0.701 0.057,0.402 0,-0.086 -0.016,-0.174 -0.022,-0.261 -0.018,-0.305 -0.018,-0.611 0,-0.916 0.008,-0.137 0.027,-0.261 0.034,-0.393 0.015,-0.284 -0.031,0.453 -0.052,0.402 0.004,-0.109 0.023,-0.218 0.057,-0.322 0.056,-0.278 0.128,-0.552 0.216,-0.82 0.038,-0.114 0.248,-0.644 0.047,-0.163 -0.2,0.481 0.025,-0.037 0.08,-0.146 0.142,-0.269 0.297,-0.53 0.464,-0.782 0.238,-0.372 -0.403,0.467 -0.106,0.136 0.117,-0.128 0.227,-0.262 0.349,-0.385 0.18,-0.182 0.63,-0.438 -0.028,-0.019 0.134,-0.088 0.269,-0.192 0.403,-0.274 0.134,-0.082 0.319,-0.193 0.486,-0.273 l 0.188,-0.095 c 0.403,-0.203 -0.497,0.189 -0.189,0.081 0.33,-0.123 0.667,-0.227 1.009,-0.31 l 0.208,-0.044 c 0.513,-0.1 -0.163,0.071 -0.225,0.019 0.051,0.044 0.415,-0.039 0.493,-0.044 0.376,-0.011 0.752,-0.003 1.128,0.026 0.259,0.013 -0.364,-0.053 -0.364,-0.053 0.018,0.029 0.237,0.04 0.276,0.048 0.184,0.035 0.367,0.079 0.547,0.137 0.18,0.057 0.356,0.114 0.537,0.176 0.087,0.031 0.334,0.137 -0.062,-0.03 -0.452,-0.194 -0.013,0 0.059,0.041 0.145,0.075 0.288,0.156 0.426,0.243 0.177,0.112 0.764,0.583 0.083,0.028 0.516,0.493 1.191,0.778 1.899,0.801 0.531,0 1.05,-0.16 1.492,-0.461 0.442,-0.3 0.786,-0.727 0.989,-1.227 0.204,-0.499 0.257,-1.049 0.153,-1.579 -0.103,-0.531 -0.359,-1.018 -0.734,-1.401 -1.542,-1.289 -3.439,-2.058 -5.428,-2.2 -1.99,-0.142 -3.974,0.35 -5.677,1.408 -1.563,1.069 -2.773,2.593 -3.472,4.374 -0.7,1.78 -0.857,3.733 -0.45,5.605 0.338,1.758 1.197,3.368 2.461,4.613 1.511,1.388 3.435,2.219 5.465,2.36 1.826,0.195 3.668,-0.167 5.292,-1.039 1.623,-0.872 2.956,-2.216 3.828,-3.861 1.7,-3.672 1.227,-8.577 -2.014,-11.257 -0.516,-0.494 -1.192,-0.779 -1.9,-0.801 -0.531,0 -1.05,0.161 -1.492,0.461 -0.441,0.301 -0.785,0.727 -0.988,1.227 -0.204,0.5 -0.257,1.049 -0.153,1.58 0.103,0.53 0.359,1.017 0.734,1.399 z"
         fill="#211715"
         id="path52" /><path
         d="m 265.083,181.149 c -1.785,-1.617 -3.996,-2.666 -6.361,-3.016 -2.364,-0.35 -4.777,0.014 -6.94,1.047 -1.538,0.814 -2.878,1.966 -3.924,3.373 -1.045,1.407 -1.769,3.034 -2.119,4.762 -2.086,8.18 -0.044,17.563 4.501,24.546 3.06,4.7 7.891,8.95 13.807,8.153 0.706,-0.023 1.376,-0.318 1.874,-0.826 0.499,-0.508 0.789,-1.19 0.812,-1.908 0,-1.327 -1.238,-2.93 -2.686,-2.734 -4.851,0.653 -8.19,-3.418 -10.301,-7.367 -1.834,-3.336 -2.968,-7.023 -3.33,-10.828 -0.268,-3.486 -0.251,-8.014 1.977,-10.923 1.764,-2.308 6.382,-2.7 8.887,-0.41 2.566,2.343 6.378,-1.512 3.797,-3.868 z"
         fill="#211715"
         id="path53" /><path
         d="m 374.157,185.023 c 2.506,-2.289 7.125,-1.892 8.888,0.411 2.227,2.909 2.24,7.437 1.976,10.923 -0.363,3.804 -1.497,7.491 -3.33,10.827 -2.104,3.954 -5.452,8.021 -10.3,7.367 -0.712,0.004 -1.393,0.293 -1.895,0.805 -0.503,0.512 -0.787,1.206 -0.791,1.93 0.017,0.719 0.306,1.404 0.806,1.913 0.5,0.509 1.173,0.803 1.88,0.821 9.756,1.315 15.752,-9.775 18.035,-17.82 1.971,-6.944 2.056,-17.871 -4.6,-22.358 -2.227,-1.401 -4.84,-2.03 -7.448,-1.794 -2.607,0.237 -5.07,1.327 -7.019,3.107 -2.578,2.355 1.23,6.213 3.798,3.868 z"
         fill="#211715"
         id="path54" /><path
         d="m 368.63,213.34 c -0.372,2.204 -0.957,4.366 -1.746,6.453 -0.286,0.82 -0.586,1.64 -0.874,2.461 -0.094,0.273 -0.186,0.546 -0.282,0.82 -0.037,0.105 -0.276,0.683 -0.134,0.329 0.158,-0.381 -0.145,0.322 -0.191,0.423 -0.112,0.245 -0.227,0.49 -0.343,0.734 -0.269,0.556 -0.546,1.107 -0.832,1.654 -0.699,1.333 -1.446,2.64 -2.223,3.925 -3.851,6.6 -8.753,12.502 -14.507,17.463 -3.162,2.748 -6.899,4.723 -10.926,5.774 -3.365,0.797 -1.94,6.07 1.429,5.273 8.211,-1.942 15.038,-7.997 20.432,-14.328 4.665,-5.33 8.575,-11.298 11.618,-17.731 1.791,-3.733 3.056,-7.704 3.759,-11.797 0.165,-0.698 0.063,-1.435 -0.286,-2.06 -0.349,-0.625 -0.919,-1.091 -1.594,-1.303 -0.687,-0.187 -1.419,-0.091 -2.038,0.267 -0.618,0.358 -1.073,0.95 -1.266,1.647 z"
         fill="#211715"
         id="path55" /><path
         d="m 261.026,214.569 c 2.446,10.764 7.543,20.717 14.811,28.921 7.033,8.248 16.032,14.751 26.827,16.385 0.687,0.17 1.411,0.066 2.025,-0.29 0.614,-0.355 1.071,-0.936 1.278,-1.624 0.185,-0.7 0.091,-1.445 -0.261,-2.075 -0.352,-0.629 -0.933,-1.092 -1.618,-1.288 -9.994,-1.512 -17.949,-7.344 -24.458,-14.978 -6.617,-7.53 -11.238,-16.653 -13.427,-26.508 -0.723,-3.44 -5.908,-1.984 -5.179,1.453 z"
         fill="#211715"
         id="path56" /><path
         d="m 358.5,106.835 c -9.783,-6.27 -24.505,-12.91 -36.029,-13.8351 -11.524,-0.9251 -23.096,1.0111 -33.723,5.6424 -8.642,3.9047 -16.395,9.5937 -22.767,16.7057 -6.372,7.112 -11.226,15.493 -14.254,24.612 -4.19,13.348 -4.506,27.644 -0.91,41.17 0.865,3.405 6.042,1.962 5.179,-1.453 -3.02,-11.391 -3.059,-23.388 -0.112,-34.799 2.347,-8.846 6.606,-17.046 12.466,-24 6.119,-7.427 13.829,-13.326 22.538,-17.244 8.708,-3.9174 18.184,-5.7491 27.697,-5.354 11.937,0.2081 24.881,5.132 34.915,11.72 2.919,1.906 7.904,-1.269 5,-3.165 z"
         fill="#211715"
         id="path57" /><path
         d="m 382.082,180.939 c 3.433,-11.73 3.843,-23.998 1.198,-35.888 -2.218,-9.827 -6.794,-19.112 -13.417,-27.22 -3.307,-4.02 -7.07,-7.726 -11.231,-11.059 -3.103,-2.479 -7.712,1.589 -4.594,4.086 7.718,6.25 13.891,13.859 18.127,22.345 4.237,8.486 6.443,17.663 6.48,26.948 0.005,6.499 -0.946,12.971 -2.827,19.252 -1.004,3.612 5.258,5.151 6.264,1.536 z"
         fill="#211715"
         id="path58" /><path
         d="m 336.656,152.191 c 5.359,2.505 10.171,6.076 14.152,10.505 4.354,4.347 7.865,9.49 10.35,15.16 0.207,0.687 0.665,1.268 1.279,1.624 0.614,0.356 1.338,0.459 2.025,0.29 0.685,-0.196 1.266,-0.659 1.618,-1.289 0.352,-0.629 0.446,-1.375 0.262,-2.074 -2.718,-6.416 -6.588,-12.258 -11.413,-17.226 -4.362,-4.927 -9.656,-8.908 -15.564,-11.704 -0.62,-0.343 -1.345,-0.433 -2.028,-0.251 -0.682,0.182 -1.271,0.623 -1.646,1.232 -0.354,0.627 -0.451,1.371 -0.271,2.071 0.18,0.7 0.623,1.299 1.234,1.669 z"
         fill="#211715"
         id="path59" /><path
         d="m 273.221,178.587 c 6.523,-7.685 13.944,-14.531 22.097,-20.385 0.835,-0.57 1.685,-1.119 2.551,-1.632 0.147,-0.086 0.838,-0.36 0.869,-0.528 l -1.129,-0.264 0.054,0.073 c -0.084,0.231 0.168,0.683 0.206,0.949 0.179,1.208 -0.134,2.422 0.093,3.62 0.114,0.649 0.358,1.268 0.715,1.818 0.357,0.551 0.821,1.021 1.362,1.383 2.349,1.519 4.477,0.316 6.6,-0.925 2.123,-1.241 4.248,-2.52 6.374,-3.776 4.943,-3.064 10.067,-5.816 15.342,-8.241 0.612,-0.369 1.056,-0.968 1.236,-1.669 0.181,-0.7 0.083,-1.444 -0.272,-2.071 -0.372,-0.613 -0.961,-1.056 -1.645,-1.239 -0.684,-0.182 -1.411,-0.09 -2.03,0.257 -4.724,2.155 -9.317,4.595 -13.756,7.306 -2.22,1.303 -4.431,2.627 -6.644,3.937 -0.844,0.5 -1.692,0.996 -2.542,1.486 0.048,-0.029 -0.657,0.347 -0.654,0.372 -0.078,-1.061 1.223,0.273 1.167,0.334 0.193,-0.215 0.103,-1.164 0.102,-1.471 -0.016,-2.614 -0.68,-5.871 -3.343,-6.949 -2.378,-0.957 -4.503,0.623 -6.446,1.886 -4.206,2.835 -8.184,6.008 -11.895,9.486 -4.288,3.899 -8.367,8.03 -12.219,12.375 -2.306,2.61 1.477,6.489 3.799,3.868 z"
         fill="#211715"
         id="path60" /><path
         d="m 315.702,371.347 c -2.21,7.635 -3.079,15.607 -2.568,23.55 0.729,8.174 1.96,16.293 3.685,24.311 0.689,3.446 5.867,1.988 5.179,-1.453 -1.631,-7.538 -2.797,-15.172 -3.491,-22.858 -0.296,-3.406 -0.309,-6.831 -0.037,-10.238 0.462,-4.018 1.271,-7.986 2.416,-11.859 0.924,-3.396 -4.256,-4.845 -5.18,-1.453 z"
         fill="#211715"
         id="path61" /><path
         d="m 266.807,448.626 c 12.487,-4.903 0.995,-21.6 -3.972,-28.605 -6.042,-8.514 -21.492,-8.95 -29.097,-9.036 -6.727,-0.075 -16.636,0.82 -22.101,5.277 -3.814,3.117 -9.335,8.325 -11.873,14.477 -0.259,0.637 -0.478,1.29 -0.658,1.955 -1.047,3.568 3.561,13.001 5.481,18.962 1.491,4.634 2.578,9.406 4.781,13.753 2.591,5.086 12.017,16.323 17.468,8.148 l 2.203,-2.855 c 5.946,4.774 12.954,6.923 15.452,-3.052 3.32,1.292 6.809,0.905 10.212,-2.51 z"
         fill="#ffffff"
         id="path62" /><path
         d="m 218.165,462.358 c 2.472,4.154 5.703,7.788 9.517,10.705 3.771,2.966 8.919,5.785 13.696,3.581 2.851,-1.317 4.431,-4.214 5.389,-7.109 0.189,-0.7 0.098,-1.447 -0.254,-2.078 -0.352,-0.631 -0.935,-1.094 -1.622,-1.287 -0.687,-0.192 -1.421,-0.1 -2.041,0.259 -0.62,0.358 -1.074,0.952 -1.264,1.651 -0.177,0.633 -0.434,1.24 -0.764,1.806 -0.163,0.297 -0.342,0.585 -0.537,0.861 0.337,-0.47 -0.239,0.253 -0.318,0.335 -0.119,0.121 -0.819,0.622 -0.258,0.262 -0.223,0.143 -0.464,0.273 -0.683,0.41 -0.325,0.22 0.424,-0.067 -0.258,0.084 -0.169,0.039 -1.011,0.171 -0.231,0.096 -0.528,0.05 -1.06,0.046 -1.587,-0.011 0.752,0.078 -0.167,-0.055 -0.317,-0.091 -0.282,-0.069 -0.563,-0.151 -0.839,-0.242 -0.277,-0.092 -0.571,-0.201 -0.85,-0.318 0.575,0.238 -0.332,-0.169 -0.43,-0.218 -0.552,-0.274 -1.087,-0.59 -1.611,-0.92 -2.217,-1.436 -4.235,-3.168 -5.998,-5.152 -0.466,-0.5 -0.921,-1.012 -1.363,-1.536 -0.211,-0.25 -0.42,-0.505 -0.626,-0.76 -0.065,-0.082 -0.671,-0.874 -0.303,-0.379 -0.657,-0.864 -1.258,-1.77 -1.801,-2.712 -1.73,-3.045 -6.374,-0.296 -4.637,2.76 z"
         fill="#211715"
         id="path63" /><path
         d="m 228.12,454.753 c 3.325,5.089 7.07,10.287 12.136,13.712 2.323,1.675 5.096,2.582 7.943,2.597 3.192,-0.216 6.189,-1.639 8.403,-3.989 2.497,-2.442 -1.302,-6.307 -3.797,-3.866 -0.81,0.834 -1.763,1.509 -2.812,1.993 -0.789,0.332 -1.646,0.465 -2.497,0.387 -0.814,-0.112 -1.614,-0.318 -2.382,-0.613 -1.042,-0.481 -2.027,-1.081 -2.934,-1.791 -3.76,-2.87 -6.788,-7.154 -9.422,-11.188 -1.905,-2.916 -6.559,-0.18 -4.638,2.76 z"
         fill="#211715"
         id="path64" /><path
         d="m 224.518,472.178 c -0.349,0.663 -0.934,1.164 -1.636,1.399 -0.702,0.235 -1.465,0.186 -2.132,-0.138 -1.953,-0.863 -3.684,-2.173 -5.06,-3.827 -3.803,-4.08 -5.603,-8.997 -7.187,-14.319 -1.736,-5.83 -4.208,-11.369 -5.99,-17.174 -0.37,-1.09 -0.646,-2.21 -0.827,-3.348 -0.148,-0.788 -0.042,-1.603 0.303,-2.324 1.131,-2.952 2.814,-5.653 4.956,-7.953 3.736,-4.287 7.8,-7.843 13.323,-9.327 5.13,-1.219 10.403,-1.695 15.664,-1.414 8.698,0.207 19.836,0.855 25.348,8.728 3.06,4.021 5.562,8.453 7.433,13.17 0.788,1.947 1.119,4.053 0.969,6.152 -0.172,0.962 -0.596,1.859 -1.228,2.596 -0.632,0.737 -1.447,1.286 -2.36,1.589 -0.676,0.211 -1.246,0.676 -1.596,1.302 -0.349,0.625 -0.451,1.362 -0.284,2.061 0.192,0.698 0.647,1.29 1.265,1.648 0.619,0.358 1.351,0.454 2.038,0.266 2.684,-0.913 4.951,-2.787 6.382,-5.273 1.143,-2.439 1.488,-5.187 0.984,-7.84 -0.787,-5.347 -3.672,-10.374 -6.541,-14.828 -1.312,-2.151 -2.761,-4.212 -4.339,-6.17 -1.961,-2.193 -4.37,-3.922 -7.059,-5.065 -5.533,-2.265 -11.42,-3.503 -17.383,-3.654 -5.867,-0.443 -11.764,-0.186 -17.573,0.764 -3.324,0.538 -6.539,1.627 -9.517,3.223 -2.789,1.73 -5.329,3.846 -7.545,6.288 -4.423,4.529 -9.562,10.903 -8.394,17.703 0.669,3.107 1.639,6.139 2.895,9.051 1.25,3.254 2.462,6.49 3.459,9.835 1.058,4.244 2.59,8.35 4.565,12.239 1.477,2.568 3.305,4.91 5.428,6.955 2.083,2.246 4.764,3.824 7.715,4.539 3.625,0.622 6.5,-1.14 8.563,-4.087 0.354,-0.628 0.451,-1.372 0.271,-2.072 -0.18,-0.7 -0.623,-1.3 -1.234,-1.67 -0.619,-0.351 -1.346,-0.444 -2.031,-0.262 -0.685,0.183 -1.274,0.629 -1.644,1.243 z"
         fill="#211715"
         id="path65" /><path
         d="m 259.662,445.778 c 1.031,1.903 13.38,25.309 18.958,35.025 0.259,0.45 0.603,0.844 1.013,1.157 0.41,0.314 0.878,0.541 1.375,0.668 0.497,0.128 1.015,0.153 1.521,0.074 0.507,-0.079 0.994,-0.26 1.431,-0.532 0.824,-0.51 1.431,-1.316 1.7,-2.258 0.27,-0.943 0.183,-1.954 -0.244,-2.835 -7.916,-16.309 -34.751,-69.448 -41.742,-81.557 -1.41,-2.441 -2.848,-2.495 -4.347,-1.777 -1.591,0.789 -3.139,1.662 -4.638,2.617 -1.636,1.108 -2.18,2.407 -1.327,4.007 3.836,7.201 9.96,16.678 14.612,24.022 3.92,6.193 8.343,14.829 11.681,21.383"
         fill="#211715"
         id="path66" /><path
         d="m 261.103,448.443 c 3.067,4.344 5.245,8.733 8.622,12.714 2.911,3.432 6.176,6.562 6.222,8.869 0.102,5.3 -3.777,6.651 -8.177,3.8 -3.265,-2.162 -6.356,-4.585 -9.244,-7.245 -6.542,-6.215 -13.253,-14.102 -15.021,-15.249"
         fill="#ffffff"
         id="path67" /><path
         d="m 258.784,449.831 c 3.188,4.565 5.803,9.498 9.441,13.734 1.777,1.747 3.36,3.689 4.721,5.788 0.229,0.472 0.33,0.998 0.292,1.524 -0.038,0.525 -0.214,1.03 -0.508,1.463 -0.773,0.628 -2.523,-0.182 -3.606,-0.867 -1.465,-0.926 -2.866,-1.976 -4.245,-3.03 -4.017,-3.24 -7.776,-6.797 -11.242,-10.641 -2.772,-2.922 -5.439,-6.523 -8.777,-8.817 -2.872,-1.974 -5.564,2.761 -2.711,4.722 0.332,0.228 -0.126,-0.111 -0.154,-0.137 0.104,0.091 0.217,0.179 0.319,0.273 0.255,0.246 0.52,0.484 0.775,0.733 0.691,0.684 1.361,1.378 2.029,2.081 1.835,1.927 3.644,3.882 5.482,5.807 4.012,4.337 8.397,8.3 13.102,11.842 3.293,2.401 7.713,5.298 11.737,2.752 0.963,-0.686 1.752,-1.595 2.302,-2.652 0.551,-1.057 0.847,-2.232 0.864,-3.429 0.208,-2.726 -1.184,-4.858 -2.795,-6.894 -2.106,-2.66 -4.514,-5.027 -6.439,-7.839 -2.059,-3.008 -3.861,-6.188 -5.949,-9.177 -1.986,-2.845 -6.645,-0.118 -4.638,2.76 z"
         fill="#211715"
         id="path68" /><path
         d="m 387.562,419.555 c -0.475,0.325 -0.951,0.675 -1.427,1.053 -4.867,3.573 -8.533,6.708 -9.829,9.721 -0.5,1.257 -0.577,2.646 -0.219,3.952 0.359,1.306 1.132,2.453 2.2,3.264 l 2.486,1.504 c -1.964,1.45 -3.849,2.912 -5.713,4.538 -3.343,2.899 -5.492,6.262 -4.686,8.9 1.325,4.293 5.623,3.899 7.647,2.734 -1.078,0.842 -2.105,1.75 -3.075,2.72 -0.947,1.256 -1.411,2.82 -1.306,4.4 0.105,1.579 0.771,3.066 1.875,4.181 1.896,1.568 6.149,1.212 9.226,-0.811 l 3.329,-2.421 c -2.065,2.514 -2.108,5.879 0.545,7.656 2.434,1.623 6.488,0.683 8.299,-0.209 3.834,-2.159 7.554,-4.52 11.145,-7.075 1.354,-0.857 3.799,-2.362 6.203,-3.873 2.082,-2.324 -0.695,1.513 -1.789,3.691 -0.418,0.89 -0.707,1.837 -0.858,2.811 -0.132,0.705 -0.089,1.432 0.126,2.115 0.216,0.683 0.595,1.301 1.105,1.796 2.762,2.967 6.354,-0.644 9.958,-2.962 3.076,-1.802 5.933,-3.967 8.511,-6.45 4.543,-4.5 7.723,-10.232 9.163,-16.516 1.404,-5.094 0.977,-10.53 -1.202,-15.332 -1.509,-3.031 -3.553,-5.754 -6.029,-8.032 -3.5,-2.695 -11.254,-4.896 -14.962,-5.274 -5.304,-0.713 -10.668,-0.828 -15.997,-0.344 -5.456,0.437 -10.077,1.09 -14.726,4.263 z"
         fill="#ffffff"
         id="path69" /><path
         d="m 402.398,440.945 0.043,-0.029 -2.711,-4.729 c -5.085,3.877 -10.458,7.4 -15.656,11.12 -1.666,1.192 -3.323,2.395 -4.955,3.637 -2.27,1.725 -5.141,3.524 -6.743,5.967 -0.838,1.354 -1.324,2.902 -1.411,4.5 -0.088,1.597 0.225,3.191 0.91,4.631 0.605,1.273 1.554,2.343 2.736,3.085 1.182,0.742 2.548,1.124 3.936,1.101 4.767,0.187 8.238,-2.656 11.87,-5.296 0.6,-0.38 1.035,-0.979 1.214,-1.676 0.179,-0.696 0.089,-1.435 -0.251,-2.066 -0.364,-0.621 -0.953,-1.073 -1.64,-1.256 -0.687,-0.183 -1.418,-0.084 -2.034,0.276 -2.217,1.612 -4.446,3.703 -7.151,4.357 -0.877,0.234 -1.794,0.269 -2.686,0.101 0.055,0.014 -0.764,-0.283 -0.57,-0.185 0.193,0.099 -0.403,-0.366 -0.096,-0.077 -0.281,-0.268 -0.496,-0.601 -0.627,-0.97 -0.307,-0.815 -0.34,-1.712 -0.092,-2.549 0.248,-0.836 0.762,-1.565 1.462,-2.072 5.659,-5.088 12.294,-9.258 18.482,-13.646 1.998,-1.418 4.058,-2.774 6.008,-4.26 0.599,-0.381 1.032,-0.98 1.211,-1.676 0.179,-0.695 0.091,-1.434 -0.247,-2.066 -0.365,-0.62 -0.954,-1.07 -1.64,-1.254 -0.687,-0.183 -1.417,-0.085 -2.034,0.274 l -0.043,0.03 c -0.602,0.378 -1.037,0.978 -1.217,1.674 -0.179,0.696 -0.089,1.436 0.253,2.067 0.364,0.621 0.953,1.071 1.64,1.255 0.687,0.183 1.417,0.084 2.034,-0.275 z"
         fill="#211715"
         id="path70" /><path
         d="m 376.686,452.849 c -0.644,0.359 0.169,0 -0.288,0.151 -0.215,0.068 -0.429,0.137 -0.648,0.19 -0.219,0.053 -0.69,0.094 -0.216,0.055 -0.323,0.028 -0.648,0.03 -0.972,0.008 0.478,0.037 -0.085,-0.021 -0.259,-0.067 -0.161,-0.044 -0.32,-0.096 -0.475,-0.157 0.217,0.088 0.241,0.09 0.071,0 -0.298,-0.138 -0.536,-0.381 -0.672,-0.684 -0.135,-0.18 -0.234,-0.386 -0.29,-0.606 -0.056,-0.22 -0.068,-0.449 -0.035,-0.674 -0.025,0.368 0.112,-0.458 0.119,-0.479 0.071,-0.262 0.171,-0.515 0.298,-0.754 0.85,-1.531 1.97,-2.89 3.304,-4.008 5.926,-5.355 12.961,-9.214 19.112,-14.26 0.5,-0.515 0.78,-1.21 0.78,-1.933 0,-0.724 -0.28,-1.419 -0.78,-1.933 -0.511,-0.498 -1.191,-0.775 -1.898,-0.775 -0.707,0 -1.387,0.277 -1.899,0.775 -2.772,2.273 -5.851,4.179 -8.758,6.266 -3.111,2.237 -6.224,4.479 -9.158,6.958 -2.623,2.216 -5.45,5.004 -6.261,8.517 -0.364,1.555 -0.239,3.188 0.356,4.668 0.596,1.479 1.633,2.731 2.965,3.579 1.282,0.705 2.72,1.064 4.177,1.043 1.457,-0.02 2.885,-0.419 4.148,-1.159 3.033,-1.687 0.326,-6.41 -2.711,-4.722 z"
         fill="#211715"
         id="path71" /><path
         d="m 406.417,446.14 c -4.765,3.417 -9.56,6.796 -14.248,10.317 -3.759,2.822 -8.804,6.025 -8.225,11.476 0.66,6.24 7.496,7.542 12.432,5.934 4.859,-1.583 8.977,-5.273 13.251,-7.988 3.939,-2.5 8.012,-4.82 11.816,-7.541 2.805,-2.009 0.125,-6.752 -2.711,-4.722 -2.967,2.126 -6.12,3.998 -9.215,5.923 -3.414,2.123 -6.679,4.473 -10.08,6.614 -1.657,1.199 -3.496,2.114 -5.444,2.708 -1.323,0.318 -3.615,0.621 -4.485,-0.771 -0.924,-1.478 0.554,-2.974 1.58,-3.842 1.381,-1.169 2.772,-2.307 4.222,-3.386 4.565,-3.395 9.2,-6.689 13.83,-10 2.805,-2.01 0.125,-6.752 -2.711,-4.722 z"
         fill="#211715"
         id="path72" /><path
         d="m 379.643,435.184 c -0.557,-0.511 -0.929,-1.198 -1.054,-1.951 -0.125,-0.753 0.003,-1.526 0.364,-2.196 0.991,-1.672 2.284,-3.14 3.809,-4.325 3.626,-3.209 7.607,-6.36 12.32,-7.611 4.347,-1.007 8.799,-1.466 13.256,-1.367 4.063,-0.09 8.124,0.256 12.116,1.031 3.831,0.65 7.505,2.034 10.829,4.079 3.069,2.446 5.329,5.79 6.475,9.582 2.59,8.543 -1.197,18.175 -6.741,24.641 -3.616,4.218 -8.287,7.02 -12.838,10.071 -1.074,0.717 -3.606,2.646 -3.951,0.137 -0.292,-2.124 1.777,-4.511 2.778,-6.17 1.812,-3.007 -2.831,-5.758 -4.638,-2.76 -1.569,2.162 -2.706,4.615 -3.347,7.223 -0.285,1.452 -0.131,2.958 0.441,4.32 0.572,1.361 1.535,2.515 2.762,3.309 2.542,1.545 5.382,0.694 7.753,-0.749 2.535,-1.54 4.999,-3.311 7.45,-4.991 9.341,-6.403 16.429,-17.372 16.526,-29.119 -0.02,-5.753 -1.98,-11.325 -5.551,-15.783 -3.205,-4.238 -7.358,-6.353 -12.31,-7.93 -4.884,-1.432 -9.931,-2.208 -15.013,-2.309 -5.516,-0.291 -11.045,0.138 -16.454,1.279 -6.501,1.468 -12.295,5.859 -17.008,10.511 -2.032,2.006 -3.985,4.443 -4.355,7.391 -0.205,1.61 0.028,3.247 0.675,4.731 0.648,1.484 1.684,2.758 2.995,3.682 2.871,1.977 5.562,-2.759 2.711,-4.722 z"
         fill="#211715"
         id="path73" /><path
         d="m 306.377,232.633 c 2.928,2.912 7.519,3.806 11.444,4.031 4.553,0.312 9.076,-0.958 12.827,-3.603 0.601,-0.379 1.036,-0.979 1.216,-1.675 0.179,-0.696 0.089,-1.435 -0.252,-2.066 -0.364,-0.621 -0.953,-1.072 -1.64,-1.256 -0.688,-0.183 -1.418,-0.085 -2.035,0.275 -0.537,0.378 -1.083,0.747 -1.65,1.081 -0.324,0.19 -0.651,0.369 -0.986,0.536 -0.18,0.09 -0.362,0.176 -0.545,0.26 0.489,-0.222 -0.283,0.105 -0.31,0.116 -1.999,0.733 -4.127,1.034 -6.246,0.883 -1.98,-0.058 -3.937,-0.44 -5.797,-1.131 -0.066,-0.026 -0.663,-0.273 -0.321,-0.124 0.343,0.149 -0.201,-0.101 -0.268,-0.137 -0.285,-0.136 -0.564,-0.292 -0.837,-0.458 -0.144,-0.087 -0.28,-0.183 -0.423,-0.273 -0.09,-0.056 -0.487,-0.32 -0.091,-0.051 0.396,0.27 -0.187,-0.175 -0.291,-0.273 -2.475,-2.461 -6.276,1.402 -3.798,3.866 z"
         fill="#211715"
         id="path74" /><path
         d="m 318.002,209.015 c 0.493,1.813 0.888,3.652 1.183,5.509 l -0.096,-0.726 c 0.035,0.252 0.042,0.507 0.02,0.76 l 0.096,-0.727 c -0.016,0.117 -0.044,0.232 -0.082,0.343 l 0.269,-0.653 c -0.033,0.076 -0.072,0.15 -0.118,0.22 l 0.42,-0.554 c -0.053,0.065 -0.112,0.125 -0.177,0.178 l 0.544,-0.428 c -0.138,0.086 -0.281,0.163 -0.429,0.231 l 0.641,-0.274 c -0.231,0.102 -0.474,0.174 -0.723,0.215 l 0.715,-0.097 c -0.223,0.027 -0.449,0.027 -0.672,0 l 0.715,0.097 c -0.257,-0.035 -0.508,-0.1 -0.763,-0.137 -0.699,-0.166 -1.434,-0.069 -2.069,0.274 -0.305,0.181 -0.571,0.421 -0.785,0.707 -0.213,0.287 -0.369,0.613 -0.459,0.96 -0.089,0.348 -0.111,0.71 -0.063,1.066 0.048,0.356 0.165,0.698 0.343,1.009 0.171,0.309 0.402,0.58 0.679,0.796 0.277,0.216 0.594,0.373 0.932,0.46 0.573,0.079 1.131,0.228 1.715,0.254 0.875,0.005 1.738,-0.203 2.517,-0.608 0.493,-0.226 0.929,-0.561 1.278,-0.982 0.349,-0.42 0.6,-0.914 0.736,-1.446 0.178,-0.867 0.168,-1.762 -0.026,-2.625 -0.294,-1.777 -0.697,-3.534 -1.146,-5.276 -0.093,-0.346 -0.253,-0.67 -0.47,-0.953 -0.217,-0.284 -0.486,-0.521 -0.793,-0.698 -0.307,-0.177 -0.645,-0.292 -0.995,-0.336 -0.35,-0.044 -0.705,-0.018 -1.045,0.078 -0.34,0.095 -0.658,0.258 -0.936,0.478 -0.279,0.221 -0.512,0.495 -0.686,0.808 -0.174,0.312 -0.286,0.656 -0.33,1.012 -0.043,0.357 -0.017,0.718 0.076,1.065 z"
         fill="#211715"
         id="path75" /><path
         d="m 335.209,197.191 c -0.028,-2.692 1.054,-5.781 3.491,-7.072 0.821,-0.378 1.714,-0.563 2.614,-0.542 0.9,0.022 1.783,0.25 2.585,0.667 0.802,0.417 1.501,1.012 2.046,1.742 0.544,0.73 0.921,1.575 1.1,2.473 1.307,4.074 -0.747,9.507 -5.315,9.98 -3.728,0.219 -6.585,-3.672 -6.521,-7.248 z"
         fill="#211715"
         id="path76" /><path
         d="m 289.089,197.214 c -0.028,-2.692 1.053,-5.78 3.491,-7.072 0.821,-0.378 1.714,-0.563 2.614,-0.541 0.9,0.021 1.784,0.249 2.586,0.666 0.802,0.417 1.501,1.013 2.046,1.743 0.545,0.73 0.921,1.575 1.101,2.474 1.306,4.072 -0.748,9.505 -5.316,9.98 -3.726,0.212 -6.578,-3.679 -6.522,-7.25 z"
         fill="#211715"
         id="path77" /></g></g></svg>
