<svg width="606" height="602" viewBox="0 0 606 602" fill="none" xmlns="http://www.w3.org/2000/svg">
<g clip-path="url(#clip0_4_1464)">
<path d="M147.019 70.5274V69.3667C134.962 69.3667 22.6558 69.5444 9.37626 69.5308C9.37626 75.3409 8.98687 203.121 8.87946 242.215C35.7568 242.215 120.492 242.194 146.991 242.192C146.979 241.248 147.015 85.5477 147.019 70.5274Z" fill="white"/>
<path d="M153.135 246.629C153.126 249.203 153.114 255.079 153.105 257.632C153.101 258.802 152.642 259.923 151.828 260.749C151.014 261.575 149.911 262.039 148.762 262.038L7.11643 262.009C6.54193 262.009 5.97315 261.893 5.44308 261.667C4.91302 261.442 4.43224 261.111 4.02864 260.695C3.62504 260.279 3.30666 259.785 3.09199 259.243C2.87731 258.7 2.77061 258.119 2.77808 257.535C2.80762 254.979 2.84387 249.12 2.87207 246.581C2.88269 245.417 3.34486 244.303 4.15793 243.484C4.971 242.665 6.06911 242.205 7.21311 242.207C32.6309 242.207 124.072 242.189 148.796 242.188C149.368 242.187 149.934 242.303 150.462 242.526C150.99 242.75 151.469 243.077 151.872 243.49C152.276 243.903 152.595 244.392 152.812 244.931C153.028 245.47 153.138 246.047 153.135 246.629Z" fill="white"/>
<path d="M24.6713 205.276C24.6283 216.927 24.6014 224.945 24.6014 226.285C31.4588 226.285 127.92 226.535 131.232 226.535C131.232 226.054 131.232 220.505 131.232 211.817L122.369 206.807C108.702 197.181 66.3777 172.149 55.2331 172.149C50.786 172.084 46.3755 172.975 42.2898 174.765C38.2041 176.554 34.5353 179.201 31.5232 182.532C29.8824 184.351 26.6021 187.692 26.6021 187.692C26.6021 187.692 25.8824 188.423 24.7223 189.606C24.7062 195.288 24.6874 200.577 24.6713 205.276Z" fill="#FCC56B"/>
<path d="M131.241 199.307C131.241 204.126 131.241 208.499 131.241 212.262C126.741 209.489 122.379 206.807 122.379 206.807C110.344 198.69 97.9075 191.207 85.1196 184.386L85.7627 183.893C90.285 180.02 102.719 172.603 108.711 172.603C115.5 172.603 120.124 176.222 124.568 179.34C125.843 180.234 129.525 183.126 129.525 183.126L131.245 184.437C131.244 189.706 131.242 194.711 131.241 199.307Z" fill="#EF8561"/>
<path d="M82.175 134.099C86.1225 135.393 89.7799 137.469 92.9369 140.207C94.7953 141.671 100.357 146.21 101.344 146.933C101.773 147.343 102.259 147.688 102.786 147.955C103.248 148.08 103.497 147.797 103.84 147.483C105.259 146.07 106.425 144.416 107.284 142.594C108.536 140.335 109.433 137.89 109.943 135.349C110.528 131.344 109.897 127.253 108.135 123.624C107.826 123.008 107.499 122.941 106.895 122.911C105.684 122.895 104.474 122.945 103.269 123.058L101.185 123.175C100.489 123.266 99.7869 123.301 99.0853 123.28C99.2907 123.053 99.421 122.777 99.6036 122.532L100.213 121.712L101.474 120.025L102.693 118.392C102.896 118.119 103.096 117.846 103.303 117.572C103.515 117.337 103.683 117.065 103.801 116.77C103.955 116.133 103.189 115.104 102.874 114.562C101.933 113.019 100.715 111.67 99.2827 110.586C97.1566 108.904 94.7342 107.651 92.1461 106.895C90.0821 106.282 87.9394 105.987 85.7896 106.021C84.7268 106.037 83.6693 106.177 82.6382 106.44C81.6151 106.713 80.7759 106.793 80.9665 108.091C82.1119 115.899 83.3002 124.604 81.3693 132.348C81.3693 132.348 81.0417 133.506 80.941 133.745C81.1948 133.806 82.175 134.099 82.175 134.099Z" fill="#FCC56B"/>
<path d="M11.5649 242.209C11.5935 231.721 11.6235 221.233 11.6549 210.745L11.7797 168.412L11.914 124.604C11.9489 112.643 11.9834 100.682 12.0174 88.7207C12.0348 82.5619 12.3558 76.3129 12.0657 70.1595C12.0563 69.9504 12.0657 69.7398 12.0657 69.5307L9.38028 72.2649C25.707 72.2813 42.0341 72.2649 58.3617 72.2157C81.1558 72.1856 103.953 72.1546 126.754 72.1227C133.51 72.1136 140.269 72.1063 147.029 72.1008L144.343 69.3666V86.5183L144.32 127.879L144.308 177.76L144.298 221.005C144.298 227.953 144.037 234.958 144.298 241.903C144.298 241.999 144.298 242.094 144.298 242.19C144.298 245.709 149.669 245.714 149.669 242.19V225.038L149.678 183.673L149.69 133.791L149.699 90.5458C149.699 83.5981 149.961 76.5931 149.699 69.6482C149.699 69.5525 149.699 69.4569 149.699 69.3612C149.689 68.6393 149.403 67.95 148.901 67.4395C148.4 66.929 147.723 66.6375 147.014 66.627C130.981 66.6306 114.946 66.652 98.9107 66.6912C76.027 66.7231 53.1478 66.7532 30.2731 66.7814C23.307 66.7896 16.3414 66.7947 9.37625 66.7965C8.66715 66.8067 7.98993 67.0981 7.48847 67.6086C6.98702 68.1192 6.70086 68.8087 6.69079 69.5307C6.69079 74.7885 6.66528 80.0478 6.65051 85.3057C6.62007 96.7246 6.5874 108.143 6.55249 119.561C6.50952 134.008 6.467 148.453 6.42493 162.898C6.38196 177.239 6.33944 191.58 6.29737 205.921C6.26515 217.024 6.23337 228.129 6.20204 239.233L6.19398 242.206C6.18458 245.725 11.5555 245.731 11.5649 242.206V242.209Z" fill="#211715"/>
<path d="M128.589 85.4055C128.589 91.5711 128.589 97.7372 128.589 103.904C128.589 115.18 128.586 126.457 128.58 137.734C128.58 150.676 128.575 163.622 128.566 176.572C128.566 187.543 128.563 198.513 128.555 209.485C128.555 213.182 128.555 216.878 128.555 220.573C128.555 222.405 128.402 224.314 128.555 226.142C128.566 226.27 128.555 226.406 128.555 226.535L131.241 223.801C119.338 223.801 107.433 223.745 95.5244 223.716C77.078 223.671 58.6316 223.625 40.1852 223.58C34.9915 223.569 29.7992 223.55 24.6095 223.55L27.295 226.284C27.295 221.078 27.3272 215.872 27.3473 210.666C27.3876 199.76 27.4292 188.854 27.4722 177.949C27.5214 165.035 27.5716 152.121 27.6226 139.208C27.6674 127.79 27.7121 116.372 27.7569 104.954C27.781 98.7224 27.8025 92.4916 27.8213 86.2613V85.5695L25.1359 88.3037C37.8703 88.316 50.6034 88.2764 63.3378 88.2545C80.5033 88.2235 97.6696 88.1921 114.837 88.1602C120.321 88.1511 125.804 88.1438 131.287 88.1383C134.743 88.1383 134.748 82.6699 131.287 82.6699C118.844 82.6699 106.401 82.6895 93.9587 82.7287C76.7118 82.7615 59.4641 82.792 42.2154 82.8203C36.524 82.8285 30.8313 82.8335 25.1372 82.8353C24.4281 82.8456 23.7509 83.1369 23.2494 83.6475C22.748 84.1581 22.4618 84.8476 22.4518 85.5695C22.4518 90.9135 22.4195 96.2589 22.4007 101.603C22.3604 112.579 22.3184 123.556 22.2745 134.534C22.2253 147.452 22.1751 160.37 22.1241 173.287C22.0803 184.642 22.0355 195.997 21.9899 207.352C21.967 213.448 21.8328 219.558 21.9267 225.655C21.9267 225.864 21.9267 226.073 21.9267 226.284C21.9368 227.006 22.223 227.695 22.7244 228.206C23.2259 228.716 23.9031 229.008 24.6122 229.018C37.3601 229.018 50.1093 229.071 62.8571 229.103L117.487 229.24C122.073 229.252 126.658 229.271 131.242 229.271C131.951 229.261 132.629 228.97 133.13 228.459C133.632 227.949 133.918 227.259 133.928 226.537C133.928 221.915 133.928 217.293 133.928 212.672C133.928 202.191 133.931 191.706 133.937 181.217L133.949 142.52C133.949 130.854 133.953 119.184 133.96 107.51C133.96 100.507 133.96 93.5037 133.96 86.5005V85.4069C133.96 81.8866 128.589 81.8811 128.589 85.4055Z" fill="#211715"/>
<path d="M81.466 136.735C85.4619 137.85 88.9705 140.464 92.1971 143.023C93.8688 144.349 95.4975 145.732 97.1571 147.074C98.5415 148.195 100.286 150.067 102.023 150.552C104.636 151.283 106.378 148.851 107.75 146.998C109.177 145.014 110.335 142.844 111.193 140.546C112.979 136.106 113.288 131.193 112.075 126.557C111.497 124.343 110.622 121.053 108.181 120.357C105.387 119.561 101.957 120.505 99.0947 120.543L101.414 124.658C102.353 123.291 103.377 122.004 104.368 120.684C105.307 119.441 106.566 118.086 106.501 116.428C106.402 113.859 103.891 111.07 102.136 109.447C97.5992 105.333 91.6936 103.134 85.6204 103.295C83.1524 103.397 79.2908 103.706 78.426 106.604C78.2119 108.138 78.3158 109.701 78.7308 111.192C78.9524 112.768 79.1538 114.347 79.3149 115.932C79.8829 121.489 80.2804 127.672 78.375 133.02C78.193 133.72 78.288 134.465 78.6396 135.094C78.9911 135.723 79.5711 136.186 80.2548 136.385C80.6577 136.497 81.0739 136.619 81.4821 136.739C84.8067 137.725 86.2273 132.449 82.9094 131.466C82.5066 131.344 82.093 131.224 81.6822 131.112L83.562 134.475C86.4233 126.457 84.9732 117.039 83.7956 108.84C83.4814 106.653 82.9161 109.595 82.6556 109.27C82.6664 109.282 84.0319 108.932 83.9635 108.946C85.0105 108.76 86.0756 108.701 87.1363 108.771C89.2863 108.89 91.4009 109.379 93.3907 110.217C95.0468 110.889 96.5908 111.818 97.9681 112.97C98.7167 113.599 99.3976 114.307 99.9997 115.083C100.275 115.461 100.532 115.853 100.768 116.258C100.919 116.506 101.129 117.352 101.14 116.778L101.506 115.397C100.065 117.662 98.3065 119.688 96.7905 121.9C96.5597 122.315 96.4387 122.784 96.4395 123.261C96.4402 123.738 96.5627 124.207 96.7949 124.621C97.027 125.036 97.3609 125.382 97.7639 125.625C98.1668 125.868 98.6249 126.001 99.0933 126.01C100.507 125.991 101.913 125.873 103.318 125.775C103.966 125.727 104.616 125.68 105.266 125.657C105.592 125.643 105.918 125.635 106.243 125.634C107.014 125.656 107.114 125.649 106.544 125.613L105.58 124.632C107.476 127.973 108.023 131.933 107.108 135.678C106.257 139.551 104.338 143.097 101.577 145.898L102.762 145.196L102.742 145.185L104.096 145.558C102.485 144.591 100.986 143.441 99.6304 142.129C97.8969 140.702 96.1648 139.275 94.3938 137.898C91 135.024 87.0965 132.839 82.8946 131.462C79.5553 130.529 78.1306 135.808 81.466 136.735Z" fill="#211715"/>
<path d="M123.735 204.446C111.864 196.288 99.5269 188.857 86.7885 182.192C80.1726 178.553 73.368 175.282 66.4046 172.393C63.9967 171.374 61.5145 170.548 58.9806 169.922C55.5792 169.265 52.084 169.295 48.694 170.011C43.2236 170.989 38.0743 173.325 33.7024 176.813C30.5253 179.602 27.5208 182.59 24.7062 185.757C22.2597 188.251 26.0569 192.119 28.5047 189.625C30.9136 187.164 33.1573 184.492 35.7018 182.185C39.0257 179.203 42.989 177.055 47.2747 175.912C49.6863 175.266 52.1663 174.922 54.6597 174.889C55.1888 174.881 55.6977 174.903 56.2227 174.94C56.694 174.972 55.6426 174.826 56.3368 174.955C56.5678 174.998 56.7987 175.037 57.0283 175.083C59.4435 175.624 61.8093 176.372 64.1005 177.32C77.7198 182.631 90.7738 190.337 103.363 197.895C109.344 201.485 115.305 205.151 121.021 209.168C123.873 211.172 126.561 206.434 123.732 204.446H123.735Z" fill="#211715"/>
<path d="M87.6627 185.825C90.5853 183.486 93.7205 181.436 97.0255 179.704C100.349 177.882 104.125 175.827 107.935 175.368C115.237 174.487 122.563 181.088 128.17 185.484C128.786 185.846 129.517 185.947 130.205 185.763C130.893 185.579 131.482 185.126 131.844 184.503C132.186 183.872 132.276 183.132 132.097 182.436C131.917 181.74 131.482 181.14 130.88 180.762C124.057 175.407 116.045 168.672 106.822 170.047C102.556 170.914 98.465 172.507 94.7201 174.759C90.8699 176.775 87.2323 179.186 83.8641 181.956C81.2028 184.206 85.0202 188.056 87.6627 185.822V185.825Z" fill="#211715"/>
<path d="M36.5571 130.669C40.1288 136.45 46.8518 141.04 53.7615 139.761C58.3684 138.91 62.1804 135.153 61.2606 130.132C61.0622 129.098 60.6649 128.115 60.0917 127.239C59.5185 126.363 58.7806 125.611 57.9207 125.027C57.0607 124.442 56.0957 124.036 55.0811 123.833C54.0666 123.63 53.0225 123.633 52.0092 123.843C45.3829 125.221 45.4164 133.102 49.4258 137.299C51.926 139.917 55.8978 140.625 59.319 141.066C63.3306 141.694 67.4347 141.036 71.0625 139.183C74.1132 137.526 71.4036 132.803 68.3516 134.461C64.3838 136.618 59.5446 135.879 55.401 134.679C54.6149 134.476 53.8932 134.072 53.3053 133.503C52.7174 132.935 52.2831 132.222 52.0441 131.433C51.7179 130.359 51.7367 129.69 52.7706 129.283C53.2165 129.05 53.7335 129.001 54.214 129.146C53.6917 129.078 54.3483 129.209 54.5228 129.283C54.8129 129.396 54.4382 129.236 54.406 129.221C54.5749 129.303 54.7389 129.394 54.8974 129.495C55.4345 129.828 54.8343 129.365 55.1445 129.683C55.2479 129.79 55.6816 130.292 55.5218 130.077C55.746 130.353 55.8972 130.682 55.9609 131.034C56.0226 131.266 56.0562 131.847 56.0307 131.296C56.0468 131.557 56.0468 131.818 56.0307 132.078C55.9998 132.488 56.114 131.615 56.024 132.02C56.0061 132.132 55.9778 132.243 55.9394 132.35C55.7286 132.821 55.9193 132.435 55.9622 132.35C55.8991 132.493 55.8245 132.63 55.7393 132.761C55.4533 133.184 55.6709 132.897 55.7393 132.807C55.6341 132.941 55.5196 133.068 55.3969 133.186C55.2739 133.316 55.136 133.432 54.9861 133.529C54.4069 133.914 53.7606 134.184 53.0821 134.322C48.4013 135.491 43.5635 131.734 41.1949 127.896C39.3594 124.924 34.7109 127.665 36.5571 130.657V130.669Z" fill="#211715"/>
<path d="M150.45 246.629C150.439 249.96 150.43 253.292 150.423 256.625C150.423 257.656 150.457 258.778 149.338 259.204C148.618 259.358 147.879 259.391 147.148 259.303H136.943H106.674L34.4745 259.288H9.52934C8.05234 259.288 5.75225 259.75 5.44073 257.72C5.35219 256.317 5.3697 254.91 5.4931 253.51C5.50832 251.665 5.52309 249.821 5.53741 247.977C5.54681 246.93 5.37494 245.627 6.50552 245.106C7.27827 244.899 8.08329 244.847 8.87543 244.954H14.0664C36.8158 244.954 59.5652 244.952 82.3146 244.946L146.443 244.937C147.912 244.937 150.348 244.502 150.447 246.64C150.608 250.144 155.981 250.164 155.818 246.64C155.797 245.674 155.589 244.721 155.206 243.837C154.822 242.953 154.271 242.155 153.584 241.489C152.896 240.822 152.086 240.301 151.2 239.954C150.314 239.607 149.37 239.442 148.421 239.468C146.715 239.445 145.007 239.468 143.299 239.468H129.603H92.9127L18.3833 239.479C14.5538 239.479 10.5834 239.178 6.76601 239.502C2.42228 239.871 0.208124 243.455 0.169184 247.586C0.136959 251.019 -0.155756 254.573 0.104734 257.995C0.24954 259.889 1.11103 261.652 2.50755 262.911C3.90406 264.171 5.72646 264.829 7.59044 264.747C9.11444 264.762 10.6398 264.747 12.1651 264.747H24.7357L98.4622 264.761L132.457 264.769H144.503C145.918 264.769 147.347 264.831 148.759 264.769C149.727 264.741 150.68 264.515 151.56 264.106C152.441 263.697 153.233 263.112 153.888 262.386C154.543 261.661 155.049 260.809 155.376 259.881C155.702 258.953 155.843 257.968 155.79 256.983C155.825 253.532 155.806 250.078 155.818 246.626C155.832 243.11 150.462 243.105 150.45 246.629Z" fill="#211715"/>
<path d="M48.0092 206.507C48.8498 205.578 49.8214 204.782 50.8921 204.144C51.3588 203.851 51.8537 203.607 52.3691 203.416C52.3556 203.416 53.0968 203.183 53.0968 203.259C52.9863 203.195 52.8791 203.125 52.7759 203.05C52.7511 203.017 52.7396 202.976 52.7437 202.935C52.7356 202.785 52.7665 202.873 52.8363 203.2C52.8363 203.2 52.9088 203.691 52.8833 203.451C52.9047 204.116 52.867 204.781 52.7705 205.44C52.6363 207.162 52.7571 209.231 54.2824 210.308C55.9461 211.482 57.5842 210.581 59.1337 209.691C60.4174 208.956 61.6661 208.16 62.9524 207.427C65.6335 205.896 68.4094 204.544 71.2626 203.379C71.9385 203.169 72.5098 202.703 72.8593 202.078C73.2088 201.452 73.3101 200.714 73.1424 200.015C72.9501 199.318 72.4954 198.725 71.877 198.367C71.2586 198.009 70.5265 197.913 69.8393 198.101C67.1898 199.166 64.5954 200.368 62.0662 201.702C60.9133 202.317 59.776 202.962 58.6544 203.636C58.0971 203.971 57.5439 204.32 56.984 204.644C56.6738 204.827 56.361 205.009 56.0441 205.191C55.6802 205.393 55.1257 205.434 55.9098 205.434L57.8084 206.235L57.5668 206.028L58.2583 207.233C58.0478 206.355 58.0359 205.44 58.2233 204.557C58.2942 203.727 58.249 202.892 58.0891 202.075C57.9118 201.097 57.4651 200.191 56.8011 199.462C56.1371 198.733 55.2831 198.211 54.3388 197.958C50.6745 197.028 46.5712 200.111 44.216 202.649C41.8609 205.188 45.6339 209.075 48.0132 206.516L48.0092 206.507Z" fill="#211715"/>
<path d="M109.737 197.15C110.052 196.876 110.374 196.612 110.701 196.355L110.164 196.783C111.837 195.501 113.653 194.426 115.574 193.579C116.18 193.217 116.623 192.628 116.808 191.938C116.995 191.227 116.898 190.47 116.539 189.83C116.182 189.215 115.605 188.765 114.928 188.574L114.215 188.477C113.738 188.476 113.27 188.605 112.859 188.85C110.357 189.984 108.028 191.477 105.941 193.282C105.44 193.796 105.157 194.491 105.156 195.215C105.161 195.939 105.443 196.633 105.941 197.15C106.446 197.661 107.129 197.948 107.841 197.949C108.547 197.917 109.218 197.634 109.74 197.15H109.737Z" fill="#211715"/>
<path d="M541.42 289.221C550.782 291.299 560.843 293.713 570.059 296.096C575.458 290.773 580.17 286.136 580.17 286.136C588.589 284.041 594.761 282.453 603.367 280.358L602.479 267.009C590.969 268.973 573.056 272.091 560.006 274.383C551.517 269.959 537.953 276.167 541.376 289.206C541.388 289.209 541.407 289.218 541.42 289.221Z" fill="white"/>
<path d="M579.026 326.108L578.928 326.147C577.292 326.777 575.509 326.894 573.807 326.484C553.048 321.563 503.071 308.942 498.128 307.322C494.857 306.25 493.079 303.737 493.913 301.287C496.188 297.119 499.167 293.392 502.713 290.277C505.094 288.071 507.937 286.446 511.027 285.526C514.117 284.607 517.372 284.416 520.545 284.969C537.777 288.017 566.9 294.919 585.382 300.258C586.496 300.57 587.537 301.102 588.448 301.825C589.359 302.547 590.121 303.446 590.69 304.468C591.908 306.83 592.688 309.399 592.992 312.048C593.187 313.714 592.921 315.403 592.225 316.925C591.529 318.446 590.429 319.74 589.051 320.66C585.891 322.805 582.534 324.629 579.026 326.108Z" fill="white"/>
<path d="M578.313 323.475C575.448 324.596 572.345 323.339 569.493 322.655C566.701 321.981 563.91 321.302 561.122 320.615C554.525 318.997 547.932 317.361 541.344 315.707C529.568 312.756 517.793 309.795 506.055 306.685C504.4 306.247 502.743 305.805 501.087 305.346C499.642 305.118 498.268 304.554 497.073 303.697C495.906 302.604 496.599 301.893 497.341 300.69C498.698 298.536 500.277 296.537 502.053 294.726C504.895 291.434 508.62 289.058 512.77 287.891C516.678 286.934 520.44 287.698 524.303 288.438C528 289.146 531.688 289.898 535.366 290.694C543.843 292.507 552.29 294.46 560.706 296.553C565.255 297.677 569.795 298.84 574.325 300.042C576.34 300.578 578.354 301.125 580.367 301.682C582.422 302.048 584.417 302.703 586.294 303.629C588.113 305.032 589.343 307.083 589.738 309.371C590.48 311.345 590.542 313.516 589.915 315.531C588.976 317.799 586.784 318.958 584.806 320.135C582.728 321.411 580.559 322.526 578.317 323.473C577.641 323.683 577.07 324.148 576.72 324.774C576.371 325.399 576.27 326.137 576.437 326.836C576.63 327.533 577.085 328.125 577.703 328.483C578.321 328.841 579.053 328.937 579.74 328.75C581.975 327.84 584.15 326.785 586.252 325.592C588.438 324.499 590.47 323.114 592.295 321.472C596.054 317.691 596.222 312.543 594.83 307.643C593.431 302.721 590.643 298.965 585.678 297.506C581.58 296.301 577.45 295.206 573.325 294.124C564.22 291.736 555.077 289.503 545.895 287.425C537.644 285.551 529.349 283.626 520.995 282.29C516.141 281.486 511.161 282.189 506.705 284.306C502.127 286.745 498.164 290.227 495.126 294.482C493.681 296.353 491.8 298.583 491.217 300.95C490.977 302.03 490.999 303.153 491.283 304.223C491.566 305.292 492.102 306.275 492.843 307.085C494.549 308.802 496.713 309.972 499.066 310.448C510.112 313.572 521.282 316.277 532.406 319.083C545.814 322.465 559.214 325.918 572.688 329.026C575.014 329.654 577.471 329.559 579.743 328.752C580.419 328.543 580.991 328.077 581.341 327.451C581.691 326.825 581.791 326.087 581.623 325.388C581.43 324.69 580.974 324.097 580.354 323.739C579.734 323.381 579.001 323.286 578.313 323.475Z" fill="#211715"/>
<path d="M507.969 324.974C507.857 325.127 507.744 325.277 507.63 325.427L508.051 324.874C506.519 326.889 504.891 328.826 503.342 330.826C502.859 331.353 502.58 332.04 502.556 332.761C502.562 333.484 502.843 334.178 503.342 334.694C503.847 335.204 504.53 335.492 505.242 335.495C505.595 335.5 505.946 335.431 506.272 335.294C506.599 335.156 506.894 334.952 507.14 334.694C508.945 332.36 510.862 330.117 512.606 327.734C512.786 327.418 512.903 327.07 512.949 326.708C512.995 326.346 512.97 325.979 512.875 325.627C512.782 325.28 512.622 324.956 512.406 324.672C512.189 324.388 511.92 324.151 511.613 323.973C511.306 323.795 510.968 323.681 510.618 323.636C510.268 323.592 509.912 323.618 509.572 323.713L508.93 323.987C508.533 324.225 508.201 324.562 507.967 324.967L507.969 324.974Z" fill="#211715"/>
<path d="M527.951 332.159C527.873 332.393 527.785 332.621 527.691 332.843L527.959 332.189C527.045 334.377 525.857 336.446 524.871 338.605C524.528 339.249 524.432 340.001 524.603 340.713C524.794 341.398 525.235 341.983 525.837 342.347C526.147 342.529 526.489 342.647 526.844 342.694C527.199 342.741 527.56 342.716 527.906 342.62C528.241 342.529 528.556 342.371 528.832 342.156C529.107 341.94 529.338 341.671 529.51 341.364C530.117 340.036 530.786 338.738 531.434 337.431C532.087 336.197 532.654 334.918 533.13 333.603C533.319 332.903 533.228 332.156 532.876 331.526C532.525 330.895 531.941 330.432 531.254 330.24C530.568 330.047 529.834 330.14 529.214 330.498C528.595 330.856 528.141 331.45 527.951 332.149V332.159Z" fill="#211715"/>
<path d="M546.473 338.43C546.222 341.164 545.991 343.898 545.683 346.632C545.684 347.358 545.967 348.053 546.47 348.566C546.974 349.078 547.657 349.366 548.369 349.366C549.081 349.366 549.764 349.078 550.267 348.566C550.738 348.031 551.016 347.349 551.054 346.632C551.362 343.898 551.591 341.164 551.844 338.43C551.844 337.705 551.561 337.01 551.058 336.497C550.809 336.243 550.513 336.041 550.187 335.904C549.861 335.766 549.512 335.696 549.159 335.696C548.806 335.696 548.457 335.766 548.131 335.904C547.805 336.041 547.509 336.243 547.26 336.497C546.786 337.029 546.507 337.712 546.473 338.43Z" fill="#211715"/>
<path d="M543.52 285.417C543.52 285.087 543.52 284.758 543.542 284.427C543.551 284.263 543.676 283.365 543.573 283.969C543.672 283.331 543.823 282.703 544.024 282.09C544.069 281.954 544.122 281.817 544.17 281.673C544.304 281.293 543.982 282.084 544.147 281.72C544.265 281.457 544.389 281.198 544.526 280.945C544.663 280.692 544.804 280.449 544.957 280.209C545.055 280.055 545.599 279.338 545.209 279.818C545.559 279.383 545.937 278.972 546.34 278.588C546.541 278.396 546.752 278.216 546.964 278.041C546.494 278.44 547.185 277.882 547.336 277.779C547.797 277.463 548.276 277.177 548.772 276.921C548.989 276.809 549.209 276.704 549.432 276.603C548.825 276.876 549.78 276.476 549.961 276.414C550.489 276.23 551.027 276.077 551.573 275.956C551.848 275.895 552.123 275.848 552.4 275.798C552.534 275.773 552.922 275.743 552.31 275.809C552.484 275.789 552.659 275.77 552.833 275.757C553.356 275.714 553.881 275.7 554.406 275.714C554.685 275.722 554.962 275.744 555.241 275.763C556.033 275.817 554.99 275.675 555.767 275.833C556.311 275.938 556.849 276.072 557.378 276.235C557.609 276.309 557.836 276.395 558.065 276.477C558.149 276.507 558.559 276.686 558.223 276.537C557.862 276.377 558.398 276.626 558.467 276.662C558.959 276.92 559.437 277.204 559.9 277.512C560.502 277.91 559.872 277.441 560.192 277.727C560.46 277.964 560.722 278.2 560.97 278.455C561.172 278.663 561.361 278.882 561.549 279.101C561.874 279.478 561.596 279.15 561.537 279.069C561.671 279.248 561.796 279.434 561.918 279.616C562.105 279.904 562.278 280.202 562.439 280.507C562.504 280.626 562.932 281.55 562.72 281.04C563.322 282.476 563.648 284.016 563.68 285.576C563.842 289.08 569.213 289.101 569.051 285.576C568.735 278.714 564.977 272.589 558.208 270.782C555.329 270.017 552.302 270.04 549.434 270.85C546.566 271.66 543.96 273.228 541.879 275.394C539.427 278.131 538.091 281.715 538.143 285.419C538.163 288.937 543.534 288.945 543.513 285.419L543.52 285.417Z" fill="#211715"/>
<path d="M561.466 276.893C575.371 274.453 589.28 272.038 603.194 269.647C603.878 269.45 604.459 268.987 604.811 268.357C605.163 267.728 605.257 266.982 605.073 266.283C604.871 265.592 604.414 265.007 603.798 264.651C603.183 264.294 602.456 264.193 601.769 264.369C587.854 266.745 573.945 269.16 560.042 271.614C559.358 271.811 558.777 272.274 558.425 272.904C558.074 273.533 557.979 274.278 558.163 274.977C558.364 275.669 558.821 276.254 559.436 276.61C560.052 276.967 560.779 277.068 561.466 276.891V276.893Z" fill="#211715"/>
<path d="M580.884 288.773C588.617 286.847 596.339 284.881 604.081 282.994C607.438 282.174 606.019 276.902 602.654 277.721C594.912 279.608 587.188 281.574 579.456 283.5C576.099 284.335 577.521 289.609 580.884 288.773Z" fill="#211715"/>
<path d="M578.733 307.22C575.926 309.081 574.846 312.434 573.918 315.538C573.736 316.237 573.831 316.982 574.182 317.611C574.534 318.24 575.114 318.703 575.798 318.901C576.485 319.078 577.212 318.978 577.828 318.621C578.444 318.265 578.9 317.679 579.101 316.987C579.421 315.916 579.746 314.847 580.167 313.814L579.899 314.467C580.224 313.645 580.649 312.868 581.164 312.153L580.743 312.706C581.025 312.333 581.352 311.997 581.715 311.706L581.172 312.132C581.263 312.064 581.354 311.996 581.45 311.937C582.044 311.565 582.483 310.983 582.683 310.303C582.87 309.592 582.774 308.835 582.415 308.196C582.237 307.886 582.001 307.615 581.72 307.398C581.439 307.181 581.119 307.022 580.778 306.931C580.437 306.84 580.081 306.818 579.732 306.867C579.382 306.915 579.046 307.034 578.741 307.215L578.733 307.22Z" fill="#211715"/>
<path d="M320.348 274.99C320.94 274.47 321.627 274.074 322.37 273.825C332.772 269.565 341.45 263.069 345.252 257.867C348.731 261.123 350.006 263.695 352.12 267.847C347.092 287.98 339.095 309.352 332.662 328.744L318.295 372.074L303.928 328.744C297.433 309.16 289.342 287.559 284.324 267.252C285.872 263.706 288.106 260.514 290.893 257.867C294.693 263.062 303.371 269.565 313.773 273.825C314.515 274.074 315.203 274.47 315.795 274.99H320.348Z" fill="white"/>
<path d="M311.657 352.068C309.534 345.667 307.411 339.265 305.287 332.863C307.313 315.967 310.092 295.305 310.092 294.721C310.092 293.673 308.445 286.715 307.995 284.398L307.928 284.156C308.707 283.336 309.475 282.502 310.21 281.675C313.201 278.334 314.957 276.838 315.313 276.254C315.54 275.884 316.024 275.468 315.776 274.997H320.341C320.093 275.468 320.578 275.884 320.805 276.254C321.163 276.838 322.921 278.334 325.907 281.675C326.66 282.517 327.443 283.361 328.234 284.2C328.035 285.02 327.924 285.469 327.924 285.469C327.608 286.755 325.632 293.182 325.598 295.059C325.581 296.055 328.477 315.478 331.103 333.413C326.828 346.302 322.553 359.191 318.279 372.081C316.076 365.408 313.868 358.737 311.657 352.068Z" fill="white"/>
<path d="M319.781 449.268C306.803 440.811 291.4 438.273 275.92 439.444C260.613 440.6 241.095 442.392 228.853 448.714C224.24 470.571 215.117 523.802 211.169 545.055C247.125 535.824 290.317 535.824 319.789 547.652C349.62 536.048 390.35 536.048 428.393 545.055C424.447 523.802 415.323 470.571 410.711 448.714C398.469 442.392 379.549 439.691 364.241 438.532C348.76 437.362 334.329 440.963 319.781 449.268Z" fill="white"/>
<path d="M372.258 183.082C373.107 182.283 374.103 181.664 375.189 181.259C376.275 180.855 377.428 180.673 378.583 180.725C380.052 180.676 381.506 181.034 382.791 181.761C384.075 182.488 385.142 183.556 385.877 184.851C388.356 189.226 388.251 197.292 386.587 202.28C385.41 205.813 383.479 211.219 378.826 215.094C377.803 215.962 376.613 216.605 375.334 216.981C374.054 217.358 372.711 217.46 371.39 217.282L370.557 217.145C369.833 219.733 368.775 222.438 368.377 223.666C366.62 228.526 357.288 244.976 345.252 252.569V257.875C341.45 263.07 332.772 269.573 322.37 273.833C321.627 274.082 320.94 274.478 320.348 274.998H315.783C315.191 274.478 314.503 274.082 313.761 273.833C303.358 269.573 294.68 263.077 290.881 257.875V252.914C285.483 249.663 280.712 245.44 276.801 240.45C271.037 233.729 266.806 225.792 264.413 217.209C263.04 217.459 261.63 217.4 260.283 217.035C258.936 216.67 257.683 216.008 256.614 215.097C251.962 211.221 250.035 205.816 248.853 202.283C247.191 197.293 247.085 189.23 249.563 184.854C250.299 183.559 251.365 182.491 252.65 181.764C253.934 181.038 255.388 180.679 256.857 180.728C258.012 180.676 259.166 180.857 260.252 181.262C261.337 181.667 262.334 182.286 263.183 183.085C263.183 183.085 253.389 125.325 317.84 125.325C382.291 125.325 372.258 183.082 372.258 183.082Z" fill="white"/>
<path d="M317.522 369.75L305.288 332.862C307.313 315.967 310.092 295.305 310.092 294.72C310.092 293.671 308.445 286.714 307.995 284.397L307.925 284.16C308.704 283.34 309.473 282.502 310.216 281.673C313.206 278.332 314.962 276.837 315.318 276.253C315.545 275.882 316.03 275.467 315.781 274.995L320.328 275.048C320.132 275.497 320.59 275.896 320.809 276.253C321.167 276.837 322.925 278.332 325.911 281.673C326.698 282.552 327.516 283.433 328.344 284.309L327.928 285.467C327.612 286.754 325.636 293.18 325.602 295.057C325.585 296.054 328.481 315.476 331.107 333.411L318.283 372.08L317.522 369.75Z" fill="#FFDA71"/>
<path d="M337.989 294.628C342.944 288.706 347.272 282.269 350.902 275.423C351.78 273.737 352.619 272.03 353.418 270.303C353.989 269.39 354.367 268.366 354.527 267.296C354.382 266.281 354.004 265.316 353.423 264.478C351.816 261.291 349.695 258.402 347.15 255.928C346.856 255.641 346.502 255.425 346.115 255.296C345.728 255.166 345.318 255.126 344.913 255.178C344.509 255.23 344.122 255.374 343.779 255.598C343.436 255.823 343.147 256.122 342.933 256.475C340.356 259.668 337.283 262.41 333.834 264.59C331.642 266.076 329.368 267.434 327.024 268.657C324.563 269.945 321.653 270.772 319.346 272.306C314.795 275.335 320.379 279.672 322.569 282.004C326.463 286.162 330.547 290.229 334.196 294.617C336.431 297.306 340.215 293.422 337.993 290.75C335.052 287.214 331.745 284.021 328.645 280.633C327.291 279.155 325.959 277.672 324.547 276.247C324.113 275.807 323.677 275.367 323.243 274.925C323.109 274.789 322.989 274.652 322.864 274.506C323.473 275.189 322.807 274.369 322.631 274.05L322.997 275.431L323.038 274.977L322.255 276.923C323.011 276.117 324.94 275.692 325.974 275.222C327.247 274.649 328.503 274.038 329.742 273.39C332.324 272.044 334.82 270.533 337.214 268.865C341.153 266.246 344.652 262.998 347.576 259.246L343.358 259.8C345.913 262.37 348.004 265.378 349.535 268.686V265.926C345.534 274.864 340.378 283.218 334.204 290.766C331.984 293.434 335.765 297.328 337.989 294.628Z" fill="#211715"/>
<path d="M301.941 290.76C295.766 283.213 290.61 274.859 286.609 265.92V268.68C288.141 265.373 290.231 262.365 292.786 259.794L288.568 259.241C291.492 262.993 294.991 266.241 298.93 268.859C301.244 270.473 303.652 271.939 306.142 273.252C307.464 273.951 308.807 274.608 310.17 275.222C311.211 275.691 313.134 276.117 313.89 276.923L313.104 274.99L313.144 275.443L313.511 274.063C313.387 274.292 312.571 275.263 313.277 274.518C313.143 274.655 313.033 274.804 312.899 274.938C312.504 275.327 312.118 275.73 311.728 276.126C310.276 277.594 308.892 279.121 307.498 280.645C304.398 284.033 301.089 287.225 298.149 290.762C295.928 293.433 299.709 297.324 301.946 294.629C305.538 290.311 309.558 286.324 313.382 282.22C315.569 279.871 321.417 275.397 316.791 272.318C314.568 270.838 311.753 270.036 309.377 268.806C307.02 267.589 304.734 266.235 302.529 264.753C298.993 262.543 295.843 259.749 293.208 256.487C292.993 256.134 292.704 255.835 292.361 255.611C292.018 255.386 291.63 255.243 291.226 255.19C290.822 255.138 290.411 255.178 290.024 255.308C289.637 255.438 289.283 255.654 288.989 255.94C286.499 258.349 284.419 261.162 282.835 264.265C282.297 265.084 281.9 265.99 281.66 266.944C281.672 268.048 281.999 269.124 282.6 270.042C283.44 271.857 284.316 273.657 285.24 275.43C288.868 282.276 293.196 288.714 298.153 294.635C300.368 297.328 304.149 293.441 301.941 290.76Z" fill="#211715"/>
<path d="M310.797 297.305C315.583 297.305 320.367 297.197 325.151 297.195C325.863 297.195 326.546 296.907 327.05 296.395C327.554 295.882 327.836 295.186 327.836 294.461C327.836 293.736 327.554 293.041 327.05 292.528C326.546 292.015 325.863 291.727 325.151 291.727C320.367 291.727 315.583 291.834 310.797 291.836C310.085 291.836 309.402 292.124 308.898 292.637C308.395 293.15 308.112 293.845 308.112 294.571C308.112 295.296 308.395 295.991 308.898 296.504C309.402 297.017 310.085 297.305 310.797 297.305Z" fill="#211715"/>
<path d="M305.406 285.118C305.778 287.004 306.212 288.877 306.623 290.755C306.812 291.631 307.001 292.509 307.175 293.388C307.251 293.778 307.321 294.167 307.392 294.557C307.513 295.208 307.458 294.051 307.407 294.714C307.242 296.839 306.889 298.962 306.616 301.074C305.246 311.699 303.866 322.324 302.588 332.961C302.591 333.685 302.875 334.379 303.378 334.891C303.881 335.403 304.562 335.692 305.273 335.696C305.98 335.679 306.654 335.385 307.154 334.876C307.654 334.367 307.942 333.681 307.959 332.961C309.249 322.202 310.644 311.457 312.031 300.709C312.424 298.668 312.669 296.601 312.763 294.524C312.605 292.756 312.282 291.008 311.799 289.302C311.396 287.423 310.954 285.55 310.582 283.665C309.902 280.217 304.724 281.676 305.403 285.118H305.406Z" fill="#211715"/>
<path d="M333.446 330.909C331.943 320.666 330.404 310.428 328.955 300.176C328.848 299.424 328.743 298.672 328.639 297.92L328.505 296.91C328.408 296.199 328.516 297.015 328.458 296.557C328.358 295.955 328.31 295.345 328.316 294.735C328.333 294.552 328.33 294.577 328.308 294.808C328.344 294.599 328.382 294.391 328.425 294.184C328.501 293.83 328.575 293.475 328.657 293.123C328.873 292.197 329.116 291.279 329.364 290.363C329.743 288.97 330.17 287.589 330.526 286.189C331.393 282.779 326.213 281.326 325.347 284.736C324.342 287.884 323.554 291.101 322.989 294.361C322.952 296.557 323.182 298.749 323.674 300.887C325.151 311.387 326.73 321.873 328.27 332.363C328.463 333.06 328.918 333.652 329.536 334.01C330.154 334.368 330.886 334.464 331.573 334.277C332.251 334.069 332.824 333.604 333.174 332.978C333.524 332.352 333.624 331.613 333.453 330.914L333.446 330.909Z" fill="#211715"/>
<path d="M229.859 415.567L198.724 432.106C186.72 427.855 171.825 406.633 174.175 393.532C175.555 385.833 178.402 378.832 181.107 371.995C185.886 359.923 196.365 336.076 201.065 326.99C203.691 321.917 206.352 316.45 209.192 311.391C214.305 302.322 221.926 294.984 231.105 290.29C244.24 283.537 260.577 277.35 273.439 271.525C276.453 268.448 279.791 265.72 283.393 263.39C288.298 284.8 297.013 307.912 303.921 328.737L318.288 372.067L332.656 328.737C339.565 307.908 348.279 284.796 353.184 263.39C356.848 265.762 360.24 268.542 363.298 271.678C374.284 277.54 388.244 282.457 400.414 288.122C411.331 293.182 420.334 301.724 426.06 312.456C429.051 318.076 431.843 324.107 433.982 329.165C438.233 339.191 452.854 375.646 456.92 389.888C458.483 395.356 459.239 402.757 457.031 408.799C453.842 417.378 449.633 425.527 444.499 433.065L398.4 417.001C399.554 416.141 403.804 412.834 403.804 412.834C406.502 409.162 411.067 397.821 410.203 393.197C407.095 387.257 402.206 378.344 397.143 372.122C396.112 387.64 395.053 403.751 394.271 419.005C363.338 419.034 295.07 419.064 262.828 419.093C262.828 419.093 248.26 419.093 242.847 419.093C241.734 402.297 240.27 384.457 238.889 367.516L238.017 368.505C234.195 373.734 230.724 379.22 227.629 384.926C224.218 392.063 226.272 392.871 230.824 398.707C233.095 401.619 235.854 405.645 239.122 410.641L229.859 415.567Z" fill="#5394CF"/>
<path d="M321.138 446.907C307.694 438.246 291.598 435.56 275.92 436.709C261.629 437.754 246.589 438.789 233.049 443.911C231.583 444.466 230.134 445.076 228.718 445.749C227.845 446.033 227.082 446.587 226.534 447.335C226.24 447.991 226.049 448.689 225.966 449.406C225.519 451.548 225.087 453.693 224.672 455.841C223.625 461.167 222.611 466.499 221.632 471.836C219.309 484.367 217.067 496.914 214.836 509.461C212.767 521.081 210.734 532.716 208.581 544.322C208.465 544.787 208.47 545.274 208.595 545.737C208.72 546.199 208.961 546.62 209.294 546.959C209.627 547.298 210.041 547.544 210.495 547.671C210.949 547.799 211.427 547.804 211.884 547.687C225.917 544.125 240.267 542.011 254.717 541.375C268.624 540.629 282.569 541.467 296.293 543.872C302.647 545.014 308.905 546.649 315.013 548.763C316.356 549.233 317.699 549.927 319.072 550.288C320.692 550.713 322.823 549.404 324.347 548.876C327.41 547.817 330.512 546.886 333.654 546.084C347.537 542.672 361.791 541.075 376.07 541.331C393.449 541.515 410.755 543.646 427.676 547.687C428.133 547.803 428.611 547.798 429.065 547.67C429.519 547.542 429.932 547.297 430.265 546.958C430.598 546.619 430.839 546.198 430.964 545.736C431.09 545.274 431.095 544.787 430.981 544.322C426.818 521.873 422.983 499.361 418.863 476.902C417.83 471.272 416.776 465.646 415.703 460.024C415.24 457.612 414.767 455.203 414.287 452.796C413.839 450.57 413.788 447.306 411.648 446.136C405.571 442.814 398.503 440.999 391.804 439.553C384.443 438.015 377.001 436.911 369.515 436.245C360.927 435.24 352.242 435.522 343.734 437.081C334.843 438.992 326.3 442.305 318.413 446.901C315.393 448.613 318.098 453.339 321.124 451.623C331.957 445.227 344.153 441.606 356.665 441.071C362.604 441.036 368.539 441.425 374.425 442.234C380.328 442.897 386.193 443.884 391.992 445.188C397.987 446.426 403.813 448.4 409.341 451.067L408.107 449.433C413.588 475.453 417.892 501.745 422.563 527.924C423.625 533.876 424.687 539.829 425.786 545.774L429.089 542.41C400.25 535.625 369.633 533.32 340.41 538.966C333.134 540.343 325.99 542.367 319.06 545.013H320.509C307.7 539.906 293.965 537.421 280.294 536.315C265.341 535.156 250.31 535.595 235.447 537.626C227.036 538.732 218.693 540.329 210.462 542.411L213.765 545.775C218.599 519.738 222.984 493.618 227.88 467.594C229.02 461.531 230.176 455.47 231.447 449.434L230.213 451.068C240.143 446.01 251.831 444.498 262.744 443.333C274.773 442.048 286.988 440.906 298.922 443.556C305.84 445.058 312.444 447.789 318.432 451.622C321.356 453.522 324.054 448.785 321.138 446.907Z" fill="#211715"/>
<path d="M317.174 461.588C317.174 483.827 316.948 506.065 316.947 528.303C316.947 531.82 322.318 531.827 322.318 528.303C322.318 506.064 322.542 483.825 322.545 461.588C322.545 458.069 317.174 458.064 317.174 461.588Z" fill="#211715"/>
<path d="M294.26 99.6918C288.648 101.749 283.357 104.62 278.55 108.217C270.436 114.107 263.771 121.83 259.077 130.78C254.383 139.73 251.787 149.664 251.493 159.806C251.288 167.025 252.157 174.233 254.071 181.187C254.976 180.906 255.915 180.751 256.861 180.725C258.016 180.673 259.17 180.855 260.256 181.259C261.341 181.664 262.338 182.283 263.187 183.082L271.325 176.657C277.922 169.173 289.566 157.892 297.737 153.528C298.694 153.017 299.925 153.709 300.313 155.338C300.632 156.613 300.717 157.936 300.564 159.241C300.498 159.612 300.535 159.993 300.669 160.344C300.803 160.694 301.031 161 301.326 161.227C301.621 161.453 301.972 161.592 302.34 161.628C302.707 161.664 303.078 161.595 303.41 161.429C309.242 158.13 319.636 151.49 327.007 148.328C331.029 147.804 335.115 148.448 338.793 150.187C342.166 151.699 345.283 153.746 348.026 156.251C354.623 162.032 360.948 169.961 363.75 177.138L372.261 183.092C373.11 182.293 374.106 181.673 375.192 181.269C376.277 180.864 377.431 180.683 378.586 180.735C379.449 180.759 380.305 180.888 381.137 181.12C383.064 174.196 383.912 167.007 383.65 159.816C382.557 133.787 369.52 117.619 356.929 108.467C345.513 99.9913 331.706 95.5125 317.578 95.7026C309.637 95.6429 301.746 96.9928 294.26 99.6918Z" fill="#7A7473"/>
<path d="M241.448 409.264C238.819 405.248 236.154 401.251 233.243 397.441C232.082 395.923 230.783 394.504 229.678 392.946C229.312 392.555 229.032 392.091 228.854 391.582C228.677 391.074 228.606 390.533 228.648 389.996C229.083 386.54 231.685 383.023 233.468 380.153C235.642 376.654 237.922 373.215 240.343 369.887C240.698 369.26 240.796 368.516 240.616 367.816C240.435 367.116 239.992 366.516 239.38 366.147C238.761 365.797 238.034 365.704 237.349 365.887C236.665 366.07 236.076 366.515 235.705 367.128C233.143 370.647 230.737 374.292 228.454 378.005C226.325 381.469 223.844 385.315 223.34 389.447C222.83 393.634 225.659 396.556 228.07 399.556C231.249 403.504 234.033 407.782 236.813 412.025C238.721 414.938 243.375 412.204 241.451 409.265L241.448 409.264Z" fill="#211715"/>
<path d="M193.533 393.506C200.985 391.674 208.689 391.149 216.315 391.953C217.026 391.949 217.706 391.66 218.209 391.148C218.712 390.636 218.996 389.943 219 389.219C218.985 388.499 218.697 387.813 218.196 387.303C217.696 386.794 217.022 386.501 216.315 386.485C208.206 385.667 200.02 386.258 192.105 388.233C188.749 389.054 190.169 394.332 193.533 393.506Z" fill="#211715"/>
<path d="M395.76 374.694C398.379 378.13 400.765 381.743 402.903 385.509C404.001 387.387 405.067 389.285 406.099 391.203C406.525 391.99 406.947 392.78 407.365 393.573L407.687 394.183C407.609 393.69 407.585 393.59 407.612 393.884C407.637 394.191 407.642 394.499 407.628 394.807C407.364 397.884 406.598 400.896 405.363 403.717C404.41 406.457 403.108 409.057 401.489 411.451L402.453 410.469C401.327 411.353 400.195 412.227 399.056 413.094C398.457 413.475 398.024 414.075 397.845 414.77C397.665 415.466 397.754 416.205 398.092 416.836C398.455 417.458 399.044 417.91 399.732 418.093C400.42 418.277 401.151 418.177 401.767 417.816C403.522 416.727 405.097 415.362 406.434 413.772C407.352 412.353 408.153 410.859 408.828 409.305C410.709 405.447 412.036 401.335 412.768 397.094C413.212 395.203 413.057 393.218 412.324 391.423C411.188 389.143 409.92 386.912 408.663 384.701C405.972 379.852 402.928 375.214 399.557 370.828C399.051 370.319 398.369 370.033 397.658 370.033C396.947 370.033 396.265 370.319 395.76 370.828C395.271 371.348 394.999 372.041 394.999 372.761C394.999 373.481 395.271 374.173 395.76 374.694Z" fill="#211715"/>
<path d="M421.779 393.973C420.998 394.321 421.725 394.004 421.899 393.943C422.116 393.865 422.336 393.795 422.558 393.731C423.032 393.594 423.514 393.482 423.997 393.388C424.254 393.338 424.511 393.299 424.768 393.251C425.07 393.206 425.03 393.21 424.65 393.263C424.784 393.245 424.918 393.228 425.053 393.213C425.608 393.148 426.164 393.098 426.722 393.062C428.989 392.932 431.262 392.922 433.531 393.033C434.241 393.028 434.921 392.738 435.423 392.226C435.926 391.715 436.21 391.023 436.216 390.299C436.201 389.579 435.914 388.892 435.413 388.382C434.913 387.873 434.238 387.58 433.531 387.565C428.736 387.375 423.543 387.253 419.067 389.247C418.453 389.614 418.007 390.214 417.827 390.915C417.647 391.616 417.746 392.362 418.104 392.988C418.478 393.598 419.067 394.039 419.75 394.221C420.433 394.404 421.158 394.313 421.778 393.969L421.779 393.973Z" fill="#211715"/>
<path d="M92.0158 421.965C110.306 421.965 128.595 421.944 146.885 421.902C151.056 421.902 155.228 421.899 159.401 421.893C162.857 421.893 162.862 416.424 159.401 416.424C140.774 416.424 122.148 416.445 103.522 416.487C99.6859 416.487 95.8506 416.49 92.0158 416.497C88.5596 416.497 88.5542 421.965 92.0158 421.965Z" fill="#211715"/>
<path d="M476.036 421.965C494.325 421.965 512.615 421.944 530.905 421.902C535.078 421.902 539.249 421.899 543.421 421.893C546.877 421.893 546.882 416.424 543.421 416.424C524.795 416.424 506.168 416.445 487.542 416.487C483.705 416.487 479.87 416.49 476.036 416.497C472.58 416.497 472.574 421.965 476.036 421.965Z" fill="#211715"/>
<path d="M262.835 421.826C278.491 421.812 294.147 421.801 309.804 421.793L363.009 421.759L387.882 421.741C391.338 421.741 391.343 416.273 387.882 416.273C372.118 416.286 356.355 416.297 340.592 416.305L287.478 416.337L262.838 416.356C259.383 416.356 259.376 421.824 262.838 421.824L262.835 421.826Z" fill="#211715"/>
<path d="M269.044 270.525C261.19 273.975 253.243 277.199 245.38 280.626C238.071 283.812 230.426 286.915 223.822 291.484C217.61 295.767 212.312 301.283 208.246 307.703C204.301 314.319 200.703 321.144 197.468 328.149C191.862 339.548 186.81 351.26 181.905 362.986C179.166 369.537 176.389 376.121 174.163 382.874C172.752 386.765 171.793 390.81 171.304 394.927C171.127 397.747 171.424 400.577 172.182 403.295C174.19 410.324 177.646 416.836 182.32 422.399C186.482 427.594 191.719 432.444 198.008 434.744C201.267 435.934 202.671 430.653 199.437 429.471C194.524 427.674 190.355 423.576 186.996 419.597C183.11 415.102 180.088 409.903 178.087 404.271C177.164 401.742 176.665 399.073 176.61 396.376C176.826 392.959 177.527 389.591 178.69 386.378C180.686 379.816 183.341 373.459 185.961 367.139C190.71 355.683 195.678 344.291 201.036 333.115C203.97 326.993 207.078 320.927 210.301 314.962C213.705 308.4 218.403 302.623 224.101 297.994C230.73 292.755 238.767 289.452 246.412 286.084C254.822 282.379 263.343 278.943 271.756 275.247C272.368 274.877 272.812 274.277 272.992 273.577C273.172 272.877 273.074 272.132 272.719 271.505C272.347 270.893 271.758 270.449 271.074 270.267C270.391 270.084 269.663 270.177 269.044 270.525Z" fill="#211715"/>
<path d="M233.193 328.296C234.699 350.779 236.732 373.224 238.471 395.694C238.988 402.381 239.48 409.07 239.948 415.763C240.187 419.253 245.559 419.28 245.319 415.763C243.719 392.428 241.653 369.131 239.845 345.812C239.392 339.979 238.966 334.142 238.568 328.3C238.333 324.808 232.961 324.782 233.197 328.3L233.193 328.296Z" fill="#211715"/>
<path d="M364.489 275.36C371.933 279.075 379.662 282.168 387.315 285.369C394.318 288.292 401.482 291.098 407.725 295.521C413.521 299.642 418.431 304.924 422.154 311.044C425.918 317.531 429.204 324.294 431.984 331.277C432.129 331.622 432.272 331.961 432.417 332.312L432.728 333.059C433.096 333.953 433.464 334.847 433.831 335.742C434.737 337.957 435.636 340.175 436.528 342.397C438.676 347.735 440.786 353.089 442.859 358.457C446.762 368.547 450.734 378.68 453.88 389.05C454.96 392.402 455.579 395.89 455.72 399.415C455.74 403.576 454.854 407.69 453.126 411.461C450.298 418.626 446.626 425.416 442.19 431.68C441.834 432.307 441.736 433.052 441.917 433.752C442.097 434.452 442.542 435.052 443.154 435.42C443.773 435.769 444.499 435.862 445.184 435.679C445.868 435.497 446.456 435.053 446.828 434.44C450.82 428.783 454.187 422.696 456.87 416.288C458.653 412.748 459.949 408.976 460.724 405.078C461.274 401.071 461.169 396.998 460.411 393.027C459.346 388.092 457.89 383.254 456.058 378.559C454.068 372.891 451.965 367.264 449.823 361.653C445.95 351.505 441.944 341.408 437.806 331.365C432.383 318.267 426.624 304.738 415.929 295.164C409.229 289.165 401.48 285.504 393.325 282.023C384.598 278.294 375.714 274.884 367.203 270.638C364.114 269.095 361.386 273.81 364.492 275.36H364.489Z" fill="#211715"/>
<path d="M397.199 328.253C396.028 350.753 394.334 373.223 392.932 395.709C392.515 402.403 392.124 409.099 391.76 415.796C391.572 419.312 396.943 419.302 397.131 415.796C398.381 392.443 400.097 369.12 401.562 345.781C401.927 339.94 402.265 334.097 402.577 328.253C402.761 324.736 397.388 324.747 397.206 328.253H397.199Z" fill="#211715"/>
<path d="M320.882 372.8C325.8 357.974 330.717 343.149 335.635 328.323C340.167 314.73 345.034 301.254 349.309 287.572C351.726 279.832 353.958 272.028 355.781 264.118L351.836 265.759C355.375 268.04 358.64 270.734 361.567 273.784C363.135 275.356 364.611 277.02 365.989 278.767C366.57 279.511 367.119 280.282 367.636 281.079C367.874 281.443 368.104 281.814 368.326 282.191C368.423 282.358 368.953 283.364 368.944 283.159L369.311 281.78C369.696 281.406 369.58 281.432 368.964 281.858L367.834 282.492L365.574 283.762L361.053 286.301C360.702 286.515 360.403 286.808 360.179 287.157C359.956 287.506 359.812 287.902 359.761 288.315C359.709 288.729 359.75 289.149 359.881 289.544C360.012 289.938 360.229 290.298 360.516 290.595C362.664 292.575 364.8 294.566 366.875 296.624C367.945 297.46 368.901 298.439 369.715 299.534C370.071 300.234 369.893 299.205 369.715 299.945C369.443 300.744 369.101 301.518 368.694 302.256C366.403 307.408 364.01 312.511 361.515 317.568C356.625 327.466 351.325 337.148 345.731 346.65C342.423 352.266 339.031 357.829 335.554 363.337C333.687 366.311 338.333 369.056 340.191 366.097C353.13 345.871 364.549 324.678 374.353 302.701C374.77 301.981 375.038 301.182 375.141 300.353C375.243 299.524 375.178 298.683 374.949 297.88C374.246 296.413 373.238 295.118 371.995 294.087C369.511 291.549 366.917 289.127 364.309 286.723L363.772 291.017L369.707 287.684C371.352 286.76 373.676 285.93 374.229 283.881C375.028 280.917 371.455 277.003 369.798 274.895C365.526 269.426 360.368 264.738 354.547 261.034C354.191 260.827 353.793 260.705 353.384 260.678C352.975 260.65 352.565 260.718 352.185 260.875C351.805 261.032 351.465 261.276 351.191 261.586C350.917 261.897 350.716 262.267 350.602 262.668C347.151 276.776 342.989 290.693 338.131 304.364C333.398 318.272 328.71 332.194 324.067 346.129L315.702 371.351C314.594 374.692 319.78 376.126 320.882 372.804V372.8Z" fill="#211715"/>
<path d="M301.214 363.177C289.042 344.382 278.233 324.708 268.875 304.311C268.063 302.929 267.393 301.465 266.877 299.943C266.842 299.774 266.683 299.513 266.652 299.782C266.666 299.663 267.159 299.235 267.305 299.076C267.809 298.549 268.317 298.026 268.829 297.507C271.179 295.131 273.622 292.852 276.08 290.59C276.366 290.292 276.583 289.932 276.713 289.537C276.844 289.142 276.884 288.722 276.832 288.308C276.779 287.895 276.636 287.499 276.411 287.15C276.187 286.801 275.887 286.509 275.536 286.295L271.015 283.757L268.755 282.487L267.624 281.852C267.008 281.428 266.892 281.402 267.278 281.774L267.645 283.154C267.634 283.401 268.07 282.52 268.158 282.369C268.41 281.929 268.675 281.497 268.952 281.073C269.425 280.349 269.922 279.64 270.447 278.956C271.866 277.136 273.394 275.407 275.022 273.778C277.948 270.728 281.214 268.035 284.752 265.753L280.807 264.113C284.258 278.221 288.421 292.138 293.279 305.809C298.011 319.717 302.699 333.638 307.342 347.574L315.706 372.796C316.807 376.113 321.996 374.69 320.886 371.343C315.968 356.516 311.05 341.69 306.133 326.864C301.601 313.271 296.734 299.796 292.458 286.114C290.041 278.374 287.81 270.57 285.986 262.661C285.873 262.26 285.672 261.89 285.398 261.579C285.123 261.269 284.784 261.026 284.404 260.868C284.024 260.711 283.614 260.643 283.205 260.671C282.795 260.699 282.398 260.82 282.041 261.027C276.224 264.733 271.07 269.421 266.801 274.891C265.142 277.003 261.565 280.906 262.37 283.877C262.899 285.835 265.036 286.637 266.611 287.522L272.828 291.013L272.284 286.719C269.982 288.841 267.693 290.975 265.479 293.191C263.532 295.141 260.854 297.284 261.416 300.401C261.791 301.816 262.338 303.177 263.043 304.455C263.704 305.904 264.371 307.351 265.044 308.795C266.368 311.634 267.715 314.46 269.085 317.271C274.277 327.922 279.86 338.36 285.835 348.586C289.281 354.452 292.862 360.232 296.576 365.926C298.478 368.845 303.132 366.11 301.214 363.166V363.177Z" fill="#211715"/>
<path d="M336.067 387.014C336.284 387.191 336.489 387.384 336.68 387.59C336.791 387.689 336.889 387.805 336.968 387.933C336.993 387.992 336.617 387.379 336.737 387.637C336.79 387.732 336.849 387.823 336.912 387.911C337.058 388.147 337.16 388.407 337.299 388.646C337.437 388.886 337.1 388.249 337.15 388.288C337.178 388.31 337.205 388.434 337.217 388.469C337.269 388.633 337.324 388.794 337.368 388.959C337.477 389.219 337.534 389.498 337.538 389.78C337.538 389.8 337.466 388.999 337.487 389.438C337.487 389.502 337.497 389.568 337.501 389.632C337.512 389.804 337.516 389.977 337.515 390.15C337.515 390.28 337.515 390.409 337.501 390.538C337.501 390.603 337.489 390.668 337.487 390.733C337.466 391.171 337.532 390.373 337.538 390.392C337.535 390.697 337.472 390.997 337.352 391.277C337.312 391.423 337.264 391.564 337.218 391.707C337.206 391.771 337.183 391.832 337.152 391.889C337.105 391.925 337.438 391.286 337.3 391.534C337.144 391.814 337.022 392.109 336.849 392.383C336.794 392.5 336.721 392.607 336.633 392.7C336.578 392.735 337.058 392.197 336.856 392.4C336.795 392.461 336.745 392.537 336.688 392.596C336.6 392.693 336.51 392.787 336.419 392.869C336.353 392.932 336.285 392.988 336.216 393.05C335.987 393.267 336.702 392.698 336.439 392.876C336.176 393.054 335.953 393.211 335.693 393.353C335.558 393.431 335.405 393.49 335.263 393.569C335.039 393.684 335.585 393.433 335.589 393.433C335.501 393.46 335.415 393.493 335.33 393.531C335.026 393.642 334.715 393.733 334.4 393.804C334.331 393.818 334.026 393.832 333.99 393.881C334.002 393.865 334.725 393.803 334.291 393.839C334.198 393.839 334.106 393.856 334.014 393.862C333.714 393.88 333.413 393.88 333.113 393.862C332.952 393.869 332.79 393.854 332.631 393.819C332.576 393.802 333.303 393.934 333.005 393.867C332.893 393.841 332.779 393.825 332.668 393.8C332.379 393.735 332.094 393.65 331.816 393.546C331.756 393.513 331.692 393.487 331.626 393.471C331.626 393.471 332.173 393.729 331.956 393.608C331.798 393.517 331.632 393.442 331.477 393.348C331.321 393.254 331.208 393.174 331.074 393.084C330.707 392.831 331.493 393.483 331.195 393.167C330.985 392.947 330.782 392.714 330.572 392.495C331.115 393.058 330.792 392.786 330.655 392.571C330.573 392.443 330.496 392.313 330.425 392.18C330.354 392.048 330.311 391.948 330.252 391.832C330.157 391.642 330.182 391.445 330.372 392.127C330.349 392.045 330.31 391.964 330.282 391.884C330.19 391.615 330.115 391.341 330.056 391.063C330.002 390.92 329.975 390.768 329.975 390.615C329.994 390.548 330.037 391.316 330.032 391.017C330.032 390.931 330.016 390.843 330.01 390.756C329.992 390.451 329.992 390.145 330.01 389.84C330.018 389.703 330.037 389.579 330.044 389.447C330.059 389.163 330.013 389.9 329.992 389.849C329.996 389.74 330.015 389.631 330.049 389.527C330.105 389.249 330.177 388.975 330.265 388.707C330.303 388.593 330.513 388.063 330.312 388.544C330.112 389.025 330.337 388.507 330.392 388.398C330.534 388.129 330.689 387.868 330.856 387.616C331.094 387.244 330.453 388.083 330.75 387.752C330.867 387.624 330.977 387.49 331.099 387.367C331.279 387.185 331.729 386.929 331.071 387.348C331.205 387.26 331.34 387.156 331.474 387.074C331.608 386.992 331.793 386.881 331.96 386.801L332.148 386.706C332.551 386.503 331.651 386.895 331.959 386.787C332.289 386.664 332.626 386.56 332.968 386.477L333.176 386.433C333.689 386.333 333.013 386.504 332.951 386.452C333.002 386.496 333.366 386.413 333.444 386.408C333.82 386.397 334.196 386.405 334.572 386.434C334.831 386.447 334.208 386.381 334.208 386.381C334.226 386.41 334.445 386.421 334.484 386.429C334.668 386.464 334.851 386.508 335.031 386.566C335.211 386.623 335.387 386.68 335.568 386.742C335.655 386.773 335.902 386.879 335.506 386.712C335.054 386.518 335.493 386.712 335.565 386.753C335.71 386.828 335.853 386.909 335.991 386.996C336.168 387.108 336.755 387.579 336.074 387.024C336.59 387.517 337.265 387.802 337.973 387.825C338.504 387.825 339.023 387.665 339.465 387.364C339.907 387.064 340.251 386.637 340.454 386.137C340.658 385.638 340.711 385.088 340.607 384.558C340.504 384.027 340.248 383.54 339.873 383.157C338.331 381.868 336.434 381.099 334.445 380.957C332.455 380.815 330.471 381.307 328.768 382.365C327.205 383.434 325.995 384.958 325.296 386.739C324.596 388.519 324.439 390.472 324.846 392.344C325.184 394.102 326.043 395.712 327.307 396.957C328.818 398.345 330.742 399.176 332.772 399.317C334.598 399.512 336.44 399.15 338.064 398.278C339.687 397.406 341.02 396.062 341.892 394.417C343.592 390.745 343.119 385.84 339.878 383.16C339.362 382.666 338.686 382.381 337.978 382.359C337.447 382.359 336.928 382.52 336.486 382.82C336.045 383.121 335.701 383.547 335.498 384.047C335.294 384.547 335.241 385.096 335.345 385.627C335.448 386.157 335.704 386.644 336.079 387.026L336.067 387.014Z" fill="#211715"/>
<path d="M265.083 181.149C263.298 179.532 261.087 178.483 258.722 178.133C256.358 177.783 253.945 178.147 251.782 179.18C250.244 179.994 248.904 181.146 247.858 182.553C246.813 183.96 246.089 185.587 245.739 187.315C243.653 195.495 245.695 204.878 250.24 211.861C253.3 216.561 258.131 220.811 264.047 220.014C264.753 219.991 265.423 219.696 265.921 219.188C266.42 218.68 266.71 217.998 266.733 217.28C266.733 215.953 265.495 214.35 264.047 214.546C259.196 215.199 255.857 211.128 253.746 207.179C251.912 203.843 250.778 200.156 250.416 196.351C250.148 192.865 250.165 188.337 252.393 185.428C254.157 183.12 258.775 182.728 261.28 185.018C263.846 187.361 267.658 183.506 265.077 181.15L265.083 181.149Z" fill="#211715"/>
<path d="M374.157 185.023C376.663 182.734 381.282 183.131 383.045 185.434C385.272 188.343 385.285 192.871 385.021 196.357C384.658 200.161 383.524 203.848 381.691 207.184C379.587 211.138 376.239 215.205 371.391 214.551C370.679 214.555 369.998 214.844 369.496 215.356C368.993 215.868 368.709 216.562 368.705 217.286C368.722 218.005 369.011 218.69 369.511 219.199C370.011 219.708 370.684 220.002 371.391 220.02C381.147 221.335 387.143 210.245 389.426 202.2C391.397 195.256 391.482 184.329 384.826 179.842C382.599 178.441 379.986 177.812 377.378 178.048C374.771 178.285 372.308 179.375 370.359 181.155C367.781 183.51 371.589 187.368 374.157 185.023Z" fill="#211715"/>
<path d="M368.63 213.34C368.258 215.544 367.673 217.706 366.884 219.793C366.598 220.613 366.298 221.433 366.01 222.254C365.916 222.527 365.824 222.8 365.728 223.074C365.691 223.179 365.452 223.757 365.594 223.403C365.752 223.022 365.449 223.725 365.403 223.826C365.291 224.071 365.176 224.316 365.06 224.56C364.791 225.116 364.514 225.667 364.228 226.214C363.529 227.547 362.782 228.854 362.005 230.139C358.154 236.739 353.252 242.641 347.498 247.602C344.336 250.35 340.599 252.325 336.572 253.376C333.207 254.173 334.632 259.446 338.001 258.649C346.212 256.707 353.039 250.652 358.433 244.321C363.098 238.991 367.008 233.023 370.051 226.59C371.842 222.857 373.107 218.886 373.81 214.793C373.975 214.095 373.873 213.358 373.524 212.733C373.175 212.108 372.605 211.642 371.93 211.43C371.243 211.243 370.511 211.339 369.892 211.697C369.274 212.055 368.819 212.647 368.626 213.344L368.63 213.34Z" fill="#211715"/>
<path d="M261.026 214.569C263.472 225.333 268.569 235.286 275.837 243.49C282.87 251.738 291.869 258.241 302.664 259.875C303.351 260.045 304.075 259.941 304.689 259.585C305.303 259.23 305.76 258.649 305.967 257.961C306.152 257.261 306.058 256.516 305.706 255.886C305.354 255.257 304.773 254.794 304.088 254.598C294.094 253.086 286.139 247.254 279.63 239.62C273.013 232.09 268.392 222.967 266.203 213.112C265.48 209.672 260.295 211.128 261.024 214.565L261.026 214.569Z" fill="#211715"/>
<path d="M358.5 106.835C348.717 100.565 333.995 93.925 322.471 92.9999C310.947 92.0748 299.375 94.011 288.748 98.6423C280.106 102.547 272.353 108.236 265.981 115.348C259.609 122.46 254.755 130.841 251.727 139.96C247.537 153.308 247.221 167.604 250.817 181.13C251.682 184.535 256.859 183.092 255.996 179.677C252.976 168.286 252.937 156.289 255.884 144.878C258.231 136.032 262.49 127.832 268.35 120.878C274.469 113.451 282.179 107.552 290.888 103.634C299.596 99.7166 309.072 97.8849 318.585 98.28C330.522 98.4881 343.466 103.412 353.5 110C356.419 111.906 361.404 108.731 358.5 106.835Z" fill="#211715"/>
<path d="M382.082 180.939C385.515 169.209 385.925 156.941 383.28 145.051C381.062 135.224 376.486 125.939 369.863 117.831C366.556 113.811 362.793 110.105 358.632 106.772C355.529 104.293 350.92 108.361 354.038 110.858C361.756 117.108 367.929 124.717 372.165 133.203C376.402 141.689 378.608 150.866 378.645 160.151C378.65 166.65 377.699 173.122 375.818 179.403C374.814 183.015 381.076 184.554 382.082 180.939Z" fill="#211715"/>
<path d="M336.656 152.191C342.015 154.696 346.827 158.267 350.808 162.696C355.162 167.043 358.673 172.186 361.158 177.856C361.365 178.543 361.823 179.124 362.437 179.48C363.051 179.836 363.775 179.939 364.462 179.77C365.147 179.574 365.728 179.111 366.08 178.481C366.432 177.852 366.526 177.106 366.342 176.407C363.624 169.991 359.754 164.149 354.929 159.181C350.567 154.254 345.273 150.273 339.365 147.477C338.745 147.134 338.02 147.044 337.337 147.226C336.655 147.408 336.066 147.849 335.691 148.458C335.337 149.085 335.24 149.829 335.42 150.529C335.6 151.229 336.043 151.828 336.654 152.198L336.656 152.191Z" fill="#211715"/>
<path d="M273.221 178.587C279.744 170.902 287.165 164.056 295.318 158.202C296.153 157.632 297.003 157.083 297.869 156.57C298.016 156.484 298.707 156.21 298.738 156.042L297.609 155.778L297.663 155.851C297.579 156.082 297.831 156.534 297.869 156.8C298.048 158.008 297.735 159.222 297.962 160.42C298.076 161.069 298.32 161.688 298.677 162.238C299.034 162.789 299.498 163.259 300.039 163.621C302.388 165.14 304.516 163.937 306.639 162.696C308.762 161.455 310.887 160.176 313.013 158.92C317.956 155.856 323.08 153.104 328.355 150.679C328.967 150.31 329.411 149.711 329.591 149.01C329.772 148.31 329.674 147.566 329.319 146.939C328.947 146.326 328.358 145.883 327.674 145.7C326.99 145.518 326.263 145.61 325.644 145.957C320.92 148.112 316.327 150.552 311.888 153.263C309.668 154.566 307.457 155.89 305.244 157.2C304.4 157.7 303.552 158.196 302.702 158.686C302.75 158.657 302.045 159.033 302.048 159.058C301.97 157.997 303.271 159.331 303.215 159.392C303.408 159.177 303.318 158.228 303.317 157.921C303.301 155.307 302.637 152.05 299.974 150.972C297.596 150.015 295.471 151.595 293.528 152.858C289.322 155.693 285.344 158.866 281.633 162.344C277.345 166.243 273.266 170.374 269.414 174.719C267.108 177.329 270.891 181.208 273.213 178.587H273.221Z" fill="#211715"/>
<path d="M315.702 371.347C313.492 378.982 312.623 386.954 313.134 394.897C313.863 403.071 315.094 411.19 316.819 419.208C317.508 422.654 322.686 421.196 321.998 417.755C320.367 410.217 319.201 402.583 318.507 394.897C318.211 391.491 318.198 388.066 318.47 384.659C318.932 380.641 319.741 376.673 320.886 372.8C321.81 369.404 316.63 367.955 315.706 371.347H315.702Z" fill="#211715"/>
<path d="M266.807 448.626C279.294 443.723 267.802 427.026 262.835 420.021C256.793 411.507 241.343 411.071 233.738 410.985C227.011 410.91 217.102 411.805 211.637 416.262C207.823 419.379 202.302 424.587 199.764 430.739C199.505 431.376 199.286 432.029 199.106 432.694C198.059 436.262 202.667 445.695 204.587 451.656C206.078 456.29 207.165 461.062 209.368 465.409C211.959 470.495 221.385 481.732 226.836 473.557L229.039 470.702C234.985 475.476 241.993 477.625 244.491 467.65C247.811 468.942 251.3 468.555 254.703 465.14L266.807 448.626Z" fill="white"/>
<path d="M218.165 462.358C220.637 466.512 223.868 470.146 227.682 473.063C231.453 476.029 236.601 478.848 241.378 476.644C244.229 475.327 245.809 472.43 246.767 469.535C246.956 468.835 246.865 468.088 246.513 467.457C246.161 466.826 245.578 466.363 244.891 466.17C244.204 465.978 243.47 466.07 242.85 466.429C242.23 466.787 241.776 467.381 241.586 468.08C241.409 468.713 241.152 469.32 240.822 469.886C240.659 470.183 240.48 470.471 240.285 470.747C240.622 470.277 240.046 471 239.967 471.082C239.848 471.203 239.148 471.704 239.709 471.344C239.486 471.487 239.245 471.617 239.026 471.754C238.701 471.974 239.45 471.687 238.768 471.838C238.599 471.877 237.757 472.009 238.537 471.934C238.009 471.984 237.477 471.98 236.95 471.923C237.702 472.001 236.783 471.868 236.633 471.832C236.351 471.763 236.07 471.681 235.794 471.59C235.517 471.498 235.223 471.389 234.944 471.272C235.519 471.51 234.612 471.103 234.514 471.054C233.962 470.78 233.427 470.464 232.903 470.134C230.686 468.698 228.668 466.966 226.905 464.982C226.439 464.482 225.984 463.97 225.542 463.446C225.331 463.196 225.122 462.941 224.916 462.686C224.851 462.604 224.245 461.812 224.613 462.307C223.956 461.443 223.355 460.537 222.812 459.595C221.082 456.55 216.438 459.299 218.175 462.355L218.165 462.358Z" fill="#211715"/>
<path d="M228.12 454.753C231.445 459.842 235.19 465.04 240.256 468.465C242.579 470.14 245.352 471.047 248.199 471.062C251.391 470.846 254.388 469.423 256.602 467.073C259.099 464.631 255.3 460.766 252.805 463.207C251.995 464.041 251.042 464.716 249.993 465.2C249.204 465.532 248.347 465.665 247.496 465.587C246.682 465.475 245.882 465.269 245.114 464.974C244.072 464.493 243.087 463.893 242.18 463.183C238.42 460.313 235.392 456.029 232.758 451.995C230.853 449.079 226.199 451.815 228.12 454.755V454.753Z" fill="#211715"/>
<path d="M224.518 472.178C224.169 472.841 223.584 473.342 222.882 473.577C222.18 473.812 221.417 473.763 220.75 473.439C218.797 472.576 217.066 471.266 215.69 469.612C211.887 465.532 210.087 460.615 208.503 455.293C206.767 449.463 204.295 443.924 202.513 438.119C202.143 437.029 201.867 435.909 201.686 434.771C201.538 433.983 201.644 433.168 201.989 432.447C203.12 429.495 204.803 426.794 206.945 424.494C210.681 420.207 214.745 416.651 220.268 415.167C225.398 413.948 230.671 413.472 235.932 413.753C244.63 413.96 255.768 414.608 261.28 422.481C264.34 426.502 266.842 430.934 268.713 435.651C269.501 437.598 269.832 439.704 269.682 441.803C269.51 442.765 269.086 443.662 268.454 444.399C267.822 445.136 267.007 445.685 266.094 445.988C265.418 446.199 264.848 446.664 264.498 447.29C264.149 447.915 264.047 448.652 264.214 449.351C264.406 450.049 264.861 450.641 265.479 450.999C266.098 451.357 266.83 451.453 267.517 451.265C270.201 450.352 272.468 448.478 273.899 445.992C275.042 443.553 275.387 440.805 274.883 438.152C274.096 432.805 271.211 427.778 268.342 423.324C267.03 421.173 265.581 419.112 264.003 417.154C262.042 414.961 259.633 413.232 256.944 412.089C251.411 409.824 245.524 408.586 239.561 408.435C233.694 407.992 227.797 408.249 221.988 409.199C218.664 409.737 215.449 410.826 212.471 412.422C209.682 414.152 207.142 416.268 204.926 418.71C200.503 423.239 195.364 429.613 196.532 436.413C197.201 439.52 198.171 442.552 199.427 445.464C200.677 448.718 201.889 451.954 202.886 455.299C203.944 459.543 205.476 463.649 207.451 467.538C208.928 470.106 210.756 472.448 212.879 474.493C214.962 476.739 217.643 478.317 220.594 479.032C224.219 479.654 227.094 477.892 229.157 474.945C229.511 474.317 229.608 473.573 229.428 472.873C229.248 472.173 228.805 471.573 228.194 471.203C227.575 470.852 226.848 470.759 226.163 470.941C225.478 471.124 224.889 471.57 224.519 472.184L224.518 472.178Z" fill="#211715"/>
<path d="M259.662 445.778C260.693 447.681 273.042 471.087 278.62 480.803C278.879 481.253 279.223 481.647 279.633 481.96C280.043 482.274 280.511 482.501 281.008 482.628C281.505 482.756 282.023 482.781 282.529 482.702C283.036 482.623 283.523 482.442 283.96 482.17C284.784 481.66 285.391 480.854 285.66 479.912C285.93 478.969 285.843 477.958 285.416 477.077C277.5 460.768 250.665 407.629 243.674 395.52C242.264 393.079 240.826 393.025 239.327 393.743C237.736 394.532 236.188 395.405 234.689 396.36C233.053 397.468 232.509 398.767 233.362 400.367C237.198 407.568 243.322 417.045 247.974 424.389C251.894 430.582 256.317 439.218 259.655 445.772" fill="#211715"/>
<path d="M261.103 448.443C264.17 452.787 266.348 457.176 269.725 461.157C272.636 464.589 275.901 467.719 275.947 470.026C276.049 475.326 272.17 476.677 267.77 473.826C264.505 471.664 261.414 469.241 258.526 466.581C251.984 460.366 245.273 452.479 243.505 451.332" fill="white"/>
<path d="M258.784 449.831C261.972 454.396 264.587 459.329 268.225 463.565C270.002 465.312 271.585 467.254 272.946 469.353C273.175 469.825 273.276 470.351 273.238 470.877C273.2 471.402 273.024 471.907 272.73 472.34C271.957 472.968 270.207 472.158 269.124 471.473C267.659 470.547 266.258 469.497 264.879 468.443C260.862 465.203 257.103 461.646 253.637 457.802C250.865 454.88 248.198 451.279 244.86 448.985C241.988 447.011 239.296 451.746 242.149 453.707C242.481 453.935 242.023 453.596 241.995 453.57C242.099 453.661 242.212 453.749 242.314 453.843C242.569 454.089 242.834 454.327 243.089 454.576C243.78 455.26 244.45 455.954 245.118 456.657C246.953 458.584 248.762 460.539 250.6 462.464C254.612 466.801 258.997 470.764 263.702 474.306C266.995 476.707 271.415 479.604 275.439 477.058C276.402 476.372 277.191 475.463 277.741 474.406C278.292 473.349 278.588 472.174 278.605 470.977C278.813 468.251 277.421 466.119 275.81 464.083C273.704 461.423 271.296 459.056 269.371 456.244C267.312 453.236 265.51 450.056 263.422 447.067C261.436 444.222 256.777 446.949 258.784 449.827V449.831Z" fill="#211715"/>
<path d="M387.562 419.555C387.087 419.88 386.611 420.23 386.135 420.608C381.268 424.181 377.602 427.316 376.306 430.329C375.806 431.586 375.729 432.975 376.087 434.281C376.446 435.587 377.219 436.734 378.287 437.545L380.773 439.049C378.809 440.499 376.924 441.961 375.06 443.587C371.717 446.486 369.568 449.849 370.374 452.487C371.699 456.78 375.997 456.386 378.021 455.221C376.943 456.063 375.916 456.971 374.946 457.941C373.999 459.197 373.535 460.761 373.64 462.341C373.745 463.92 374.411 465.407 375.515 466.522C377.411 468.09 381.664 467.734 384.741 465.711L388.07 463.29C386.005 465.804 385.962 469.169 388.615 470.946C391.049 472.569 395.103 471.629 396.914 470.737C400.748 468.578 404.468 466.217 408.059 463.662C409.413 462.805 411.858 461.3 414.262 459.789C416.344 457.465 413.567 461.302 412.473 463.48C412.055 464.37 411.766 465.317 411.615 466.291C411.483 466.996 411.526 467.723 411.741 468.406C411.957 469.089 412.336 469.707 412.846 470.202C415.608 473.169 419.2 469.558 422.804 467.24C425.88 465.438 428.737 463.273 431.315 460.79C435.858 456.29 439.038 450.558 440.478 444.274C441.882 439.18 441.455 433.744 439.276 428.942C437.767 425.911 435.723 423.188 433.247 420.91C429.747 418.215 421.993 416.014 418.285 415.636C412.981 414.923 407.617 414.808 402.288 415.292C396.832 415.729 392.211 416.382 387.562 419.555Z" fill="white"/>
<path d="M402.398 440.945L402.441 440.916L399.73 436.187C394.645 440.064 389.272 443.587 384.074 447.307C382.408 448.499 380.751 449.702 379.119 450.944C376.849 452.669 373.978 454.468 372.376 456.911C371.538 458.265 371.052 459.813 370.965 461.411C370.877 463.008 371.19 464.602 371.875 466.042C372.48 467.315 373.429 468.385 374.611 469.127C375.793 469.869 377.159 470.251 378.547 470.228C383.314 470.415 386.785 467.572 390.417 464.932C391.017 464.552 391.452 463.953 391.631 463.256C391.81 462.56 391.72 461.821 391.38 461.19C391.016 460.569 390.427 460.117 389.74 459.934C389.053 459.751 388.322 459.85 387.706 460.21C385.489 461.822 383.26 463.913 380.555 464.567C379.678 464.801 378.761 464.836 377.869 464.668C377.924 464.682 377.105 464.385 377.299 464.483C377.492 464.582 376.896 464.117 377.203 464.406C376.922 464.138 376.707 463.805 376.576 463.436C376.269 462.621 376.236 461.724 376.484 460.887C376.732 460.051 377.246 459.322 377.946 458.815C383.605 453.727 390.24 449.557 396.428 445.169C398.426 443.751 400.486 442.395 402.436 440.909C403.035 440.528 403.468 439.929 403.647 439.233C403.826 438.538 403.738 437.799 403.4 437.167C403.035 436.547 402.446 436.097 401.76 435.913C401.073 435.73 400.343 435.828 399.726 436.187L399.683 436.217C399.081 436.595 398.646 437.195 398.466 437.891C398.287 438.587 398.377 439.327 398.719 439.958C399.083 440.579 399.672 441.029 400.359 441.213C401.046 441.396 401.776 441.297 402.393 440.938L402.398 440.945Z" fill="#211715"/>
<path d="M376.686 452.849C376.042 453.208 376.855 452.849 376.398 453C376.183 453.068 375.969 453.137 375.75 453.19C375.531 453.243 375.06 453.284 375.534 453.245C375.211 453.273 374.886 453.275 374.562 453.253C375.04 453.29 374.477 453.232 374.303 453.186C374.142 453.142 373.983 453.09 373.828 453.029C374.045 453.117 374.069 453.119 373.899 453.029C373.601 452.891 373.363 452.648 373.227 452.345C373.092 452.165 372.993 451.959 372.937 451.739C372.881 451.519 372.869 451.29 372.902 451.065C372.877 451.433 373.014 450.607 373.021 450.586C373.092 450.324 373.192 450.071 373.319 449.832C374.169 448.301 375.289 446.942 376.623 445.824C382.549 440.469 389.584 436.61 395.735 431.564C396.235 431.049 396.515 430.354 396.515 429.631C396.515 428.907 396.235 428.212 395.735 427.698C395.224 427.2 394.544 426.923 393.837 426.923C393.13 426.923 392.45 427.2 391.938 427.698C389.166 429.971 386.087 431.877 383.18 433.964C380.069 436.201 376.956 438.443 374.022 440.922C371.399 443.138 368.572 445.926 367.761 449.439C367.397 450.994 367.522 452.627 368.117 454.107C368.713 455.586 369.75 456.838 371.082 457.686C372.364 458.391 373.802 458.75 375.259 458.729C376.716 458.709 378.144 458.31 379.407 457.57C382.44 455.883 379.733 451.16 376.696 452.848L376.686 452.849Z" fill="#211715"/>
<path d="M406.417 446.14C401.652 449.557 396.857 452.936 392.169 456.457C388.41 459.279 383.365 462.482 383.944 467.933C384.604 474.173 391.44 475.475 396.376 473.867C401.235 472.284 405.353 468.594 409.627 465.879C413.566 463.379 417.639 461.059 421.443 458.338C424.248 456.329 421.568 451.586 418.732 453.616C415.765 455.742 412.612 457.614 409.517 459.539C406.103 461.662 402.838 464.012 399.437 466.153C397.78 467.352 395.941 468.267 393.993 468.861C392.67 469.179 390.378 469.482 389.508 468.09C388.584 466.612 390.062 465.116 391.088 464.248C392.469 463.079 393.86 461.941 395.31 460.862C399.875 457.467 404.51 454.173 409.14 450.862C411.945 448.852 409.265 444.11 406.429 446.14H406.417Z" fill="#211715"/>
<path d="M379.643 435.184C379.086 434.673 378.714 433.986 378.589 433.233C378.464 432.48 378.592 431.707 378.953 431.037C379.944 429.365 381.237 427.897 382.762 426.712C386.388 423.503 390.369 420.352 395.082 419.101C399.429 418.094 403.881 417.635 408.338 417.734C412.401 417.644 416.462 417.99 420.454 418.765C424.285 419.415 427.959 420.799 431.283 422.844C434.352 425.29 436.612 428.634 437.758 432.426C440.348 440.969 436.561 450.601 431.017 457.067C427.401 461.285 422.73 464.087 418.179 467.138C417.105 467.855 414.573 469.784 414.228 467.275C413.936 465.151 416.005 462.764 417.006 461.105C418.818 458.098 414.175 455.347 412.368 458.345C410.799 460.507 409.662 462.96 409.021 465.568C408.736 467.02 408.89 468.526 409.462 469.888C410.034 471.249 410.997 472.403 412.224 473.197C414.766 474.742 417.606 473.891 419.977 472.448C422.512 470.908 424.976 469.137 427.427 467.457C436.768 461.054 443.856 450.085 443.953 438.338C443.933 432.585 441.973 427.013 438.402 422.555C435.197 418.317 431.044 416.202 426.092 414.625C421.208 413.193 416.161 412.417 411.079 412.316C405.563 412.025 400.034 412.454 394.625 413.595C388.124 415.063 382.33 419.454 377.617 424.106C375.585 426.112 373.632 428.549 373.262 431.497C373.057 433.107 373.29 434.744 373.937 436.228C374.585 437.712 375.621 438.986 376.932 439.91C379.803 441.887 382.494 437.151 379.643 435.188V435.184Z" fill="#211715"/>
<path d="M306.377 232.633C309.305 235.545 313.896 236.439 317.821 236.664C322.374 236.976 326.897 235.706 330.648 233.061C331.249 232.682 331.684 232.082 331.864 231.386C332.043 230.69 331.953 229.951 331.612 229.32C331.248 228.699 330.659 228.248 329.972 228.064C329.284 227.881 328.554 227.979 327.937 228.339C327.4 228.717 326.854 229.086 326.287 229.42C325.963 229.61 325.636 229.789 325.301 229.956C325.121 230.046 324.939 230.132 324.756 230.216C325.245 229.994 324.473 230.321 324.446 230.332C322.447 231.065 320.319 231.366 318.2 231.215C316.22 231.157 314.263 230.775 312.403 230.084C312.337 230.058 311.74 229.811 312.082 229.96C312.425 230.109 311.881 229.859 311.814 229.823C311.529 229.687 311.25 229.531 310.977 229.365C310.833 229.278 310.697 229.182 310.554 229.092C310.464 229.036 310.067 228.772 310.463 229.041C310.859 229.311 310.276 228.866 310.172 228.768C307.697 226.307 303.896 230.17 306.374 232.634L306.377 232.633Z" fill="#211715"/>
<path d="M318.002 209.015C318.495 210.828 318.89 212.667 319.185 214.524L319.089 213.798C319.124 214.05 319.131 214.305 319.109 214.558L319.205 213.831C319.189 213.948 319.161 214.063 319.123 214.174L319.392 213.521C319.359 213.597 319.32 213.671 319.274 213.741L319.694 213.187C319.641 213.252 319.582 213.312 319.517 213.365L320.061 212.937C319.923 213.023 319.78 213.1 319.632 213.168L320.273 212.894C320.042 212.996 319.799 213.068 319.55 213.109L320.265 213.012C320.042 213.039 319.816 213.039 319.593 213.012L320.308 213.109C320.051 213.074 319.8 213.009 319.545 212.972C318.846 212.806 318.111 212.903 317.476 213.246C317.171 213.427 316.905 213.667 316.691 213.953C316.478 214.24 316.322 214.566 316.232 214.913C316.143 215.261 316.121 215.623 316.169 215.979C316.217 216.335 316.334 216.677 316.512 216.988C316.683 217.297 316.914 217.568 317.191 217.784C317.468 218 317.785 218.157 318.123 218.244C318.696 218.323 319.254 218.472 319.838 218.498C320.713 218.503 321.576 218.295 322.355 217.89C322.848 217.664 323.284 217.329 323.633 216.908C323.982 216.488 324.233 215.994 324.369 215.462C324.547 214.595 324.537 213.7 324.343 212.837C324.049 211.06 323.646 209.303 323.197 207.561C323.104 207.215 322.944 206.891 322.727 206.608C322.51 206.324 322.241 206.087 321.934 205.91C321.627 205.733 321.289 205.618 320.939 205.574C320.589 205.53 320.234 205.556 319.894 205.652C319.554 205.747 319.236 205.91 318.958 206.13C318.679 206.351 318.446 206.625 318.272 206.938C318.098 207.25 317.986 207.594 317.942 207.95C317.899 208.307 317.925 208.668 318.018 209.015H318.002Z" fill="#211715"/>
<path d="M335.209 197.191C335.181 194.499 336.263 191.41 338.7 190.119C339.521 189.741 340.414 189.556 341.314 189.577C342.214 189.599 343.097 189.827 343.899 190.244C344.701 190.661 345.4 191.256 345.945 191.986C346.489 192.716 346.866 193.561 347.045 194.459C348.352 198.533 346.298 203.966 341.73 204.439C338.002 204.658 335.145 200.767 335.209 197.191Z" fill="#211715"/>
<path d="M289.089 197.214C289.061 194.522 290.142 191.434 292.58 190.142C293.401 189.764 294.294 189.579 295.194 189.601C296.094 189.622 296.978 189.85 297.78 190.267C298.582 190.684 299.281 191.28 299.826 192.01C300.371 192.74 300.747 193.585 300.927 194.484C302.233 198.556 300.179 203.989 295.611 204.464C291.885 204.676 289.033 200.785 289.089 197.214Z" fill="#211715"/>
</g>
<defs>
<clipPath id="clip0_4_1464">
<rect width="606" height="617" fill="white"/>
</clipPath>
</defs>
</svg>