<svg id="visual" viewBox="0 0 900 600" width="900" height="600" xmlns="http://www.w3.org/2000/svg" xmlns:xlink="http://www.w3.org/1999/xlink" version="1.1"><g stroke-width="1" stroke-linejoin="bevel"><path d="M395 296.9L405 210.1L381 280.1Z" fill="#09a5e9" stroke="#09a5e9"></path><path d="M395 296.9L472 205.4L405 210.1Z" fill="#1cdcfa" stroke="#1cdcfa"></path><path d="M395 296.9L528 290.1L472 205.4Z" fill="#38e9fa" stroke="#38e9fa"></path><path d="M472 205.4L396 142.4L405 210.1Z" fill="#00c8f6" stroke="#00c8f6"></path><path d="M405 210.1L312 174.4L381 280.1Z" fill="#01cff8" stroke="#01cff8"></path><path d="M396 142.4L312 174.4L405 210.1Z" fill="#0dd5f9" stroke="#0dd5f9"></path><path d="M381 280.1L345 382.9L395 296.9Z" fill="#00baf2" stroke="#00baf2"></path><path d="M485 409.6L552 350.9L528 290.1Z" fill="#2ae3fa" stroke="#2ae3fa"></path><path d="M265 305.1L345 382.9L381 280.1Z" fill="#09a5e9" stroke="#09a5e9"></path><path d="M528 290.1L577 232.1L472 205.4Z" fill="#00c8f6" stroke="#00c8f6"></path><path d="M472 205.4L505 111.7L396 142.4Z" fill="#00baf2" stroke="#00baf2"></path><path d="M485 409.6L528 290.1L395 296.9Z" fill="#00b3ef" stroke="#00b3ef"></path><path d="M528 290.1L648 289.9L577 232.1Z" fill="#00baf2" stroke="#00baf2"></path><path d="M345 382.9L485 409.6L395 296.9Z" fill="#00b3ef" stroke="#00b3ef"></path><path d="M570 130.4L505 111.7L472 205.4Z" fill="#00b3ef" stroke="#00b3ef"></path><path d="M312 174.4L265 305.1L381 280.1Z" fill="#09a5e9" stroke="#09a5e9"></path><path d="M505 111.7L470 72.7L396 142.4Z" fill="#00c8f6" stroke="#00c8f6"></path><path d="M396 142.4L326 68.7L312 174.4Z" fill="#00acec" stroke="#00acec"></path><path d="M577 232.1L570 130.4L472 205.4Z" fill="#09a5e9" stroke="#09a5e9"></path><path d="M505 111.7L595 0L470 72.7Z" fill="#38e9fa" stroke="#38e9fa"></path><path d="M265 305.1L293 402.6L345 382.9Z" fill="#00b3ef" stroke="#00b3ef"></path><path d="M345 382.9L397 465.3L485 409.6Z" fill="#01cff8" stroke="#01cff8"></path><path d="M293 402.6L363 445.6L345 382.9Z" fill="#00c1f4" stroke="#00c1f4"></path><path d="M363 445.6L397 465.3L345 382.9Z" fill="#09a5e9" stroke="#09a5e9"></path><path d="M470 72.7L326 68.7L396 142.4Z" fill="#1cdcfa" stroke="#1cdcfa"></path><path d="M203 193.4L218 304.9L265 305.1Z" fill="#00c1f4" stroke="#00c1f4"></path><path d="M203 193.4L265 305.1L312 174.4Z" fill="#00c8f6" stroke="#00c8f6"></path><path d="M265 305.1L218 304.9L293 402.6Z" fill="#00c8f6" stroke="#00c8f6"></path><path d="M622 379.6L648 289.9L552 350.9Z" fill="#00acec" stroke="#00acec"></path><path d="M552 350.9L648 289.9L528 290.1Z" fill="#00b3ef" stroke="#00b3ef"></path><path d="M577 232.1L675 188.4L570 130.4Z" fill="#00c1f4" stroke="#00c1f4"></path><path d="M397 465.3L493 472.6L485 409.6Z" fill="#00b3ef" stroke="#00b3ef"></path><path d="M485 409.6L622 379.6L552 350.9Z" fill="#1cdcfa" stroke="#1cdcfa"></path><path d="M493 472.6L622 379.6L485 409.6Z" fill="#00c1f4" stroke="#00c1f4"></path><path d="M267 87.7L203 193.4L312 174.4Z" fill="#00c8f6" stroke="#00c8f6"></path><path d="M326 68.7L267 87.7L312 174.4Z" fill="#00baf2" stroke="#00baf2"></path><path d="M203 193.4L179 288.9L218 304.9Z" fill="#00c1f4" stroke="#00c1f4"></path><path d="M136 396.6L260 472.3L293 402.6Z" fill="#00acec" stroke="#00acec"></path><path d="M595 0L426 0L470 72.7Z" fill="#1cdcfa" stroke="#1cdcfa"></path><path d="M470 72.7L414 0L326 68.7Z" fill="#38e9fa" stroke="#38e9fa"></path><path d="M252 0L219 42.7L267 87.7Z" fill="#0dd5f9" stroke="#0dd5f9"></path><path d="M426 0L414 0L470 72.7Z" fill="#1cdcfa" stroke="#1cdcfa"></path><path d="M648 289.9L675 188.4L577 232.1Z" fill="#0dd5f9" stroke="#0dd5f9"></path><path d="M570 130.4L595 0L505 111.7Z" fill="#2ae3fa" stroke="#2ae3fa"></path><path d="M116 167.4L166 214.1L203 193.4Z" fill="#38e9fa" stroke="#38e9fa"></path><path d="M203 193.4L166 214.1L179 288.9Z" fill="#00c8f6" stroke="#00c8f6"></path><path d="M363 445.6L369 522.3L397 465.3Z" fill="#00acec" stroke="#00acec"></path><path d="M397 465.3L369 522.3L493 472.6Z" fill="#00c1f4" stroke="#00c1f4"></path><path d="M260 472.3L369 522.3L363 445.6Z" fill="#00baf2" stroke="#00baf2"></path><path d="M260 472.3L363 445.6L293 402.6Z" fill="#00acec" stroke="#00acec"></path><path d="M136 396.6L293 402.6L218 304.9Z" fill="#09a5e9" stroke="#09a5e9"></path><path d="M648 289.9L700 243.1L675 188.4Z" fill="#2ae3fa" stroke="#2ae3fa"></path><path d="M751 317.9L700 243.1L648 289.9Z" fill="#2ae3fa" stroke="#2ae3fa"></path><path d="M744 177.4L669 121.7L675 188.4Z" fill="#00c1f4" stroke="#00c1f4"></path><path d="M675 188.4L669 121.7L570 130.4Z" fill="#00c8f6" stroke="#00c8f6"></path><path d="M166 214.1L139 308.1L179 288.9Z" fill="#00acec" stroke="#00acec"></path><path d="M179 288.9L139 308.1L218 304.9Z" fill="#0dd5f9" stroke="#0dd5f9"></path><path d="M252 0L267 87.7L326 68.7Z" fill="#00baf2" stroke="#00baf2"></path><path d="M267 87.7L219 42.7L203 193.4Z" fill="#00b3ef" stroke="#00b3ef"></path><path d="M474 600L533 540.3L493 472.6Z" fill="#00baf2" stroke="#00baf2"></path><path d="M493 472.6L646 521.3L622 379.6Z" fill="#00c1f4" stroke="#00c1f4"></path><path d="M622 379.6L713 381.6L648 289.9Z" fill="#2ae3fa" stroke="#2ae3fa"></path><path d="M611 0L595 0L570 130.4Z" fill="#00c8f6" stroke="#00c8f6"></path><path d="M414 0L252 0L326 68.7Z" fill="#38e9fa" stroke="#38e9fa"></path><path d="M646 521.3L713 381.6L622 379.6Z" fill="#2ae3fa" stroke="#2ae3fa"></path><path d="M669 121.7L611 0L570 130.4Z" fill="#09a5e9" stroke="#09a5e9"></path><path d="M139 308.1L136 396.6L218 304.9Z" fill="#09a5e9" stroke="#09a5e9"></path><path d="M219 42.7L116 167.4L203 193.4Z" fill="#00acec" stroke="#00acec"></path><path d="M166 214.1L116 167.4L139 308.1Z" fill="#00baf2" stroke="#00baf2"></path><path d="M86 343.9L120 423.6L136 396.6Z" fill="#0dd5f9" stroke="#0dd5f9"></path><path d="M124 0L116 167.4L219 42.7Z" fill="#00c8f6" stroke="#00c8f6"></path><path d="M700 243.1L744 177.4L675 188.4Z" fill="#00c1f4" stroke="#00c1f4"></path><path d="M669 121.7L701 0L611 0Z" fill="#00acec" stroke="#00acec"></path><path d="M806 214.4L744 177.4L700 243.1Z" fill="#38e9fa" stroke="#38e9fa"></path><path d="M713 381.6L751 317.9L648 289.9Z" fill="#01cff8" stroke="#01cff8"></path><path d="M533 540.3L646 521.3L493 472.6Z" fill="#09a5e9" stroke="#09a5e9"></path><path d="M713 381.6L806 364.9L751 317.9Z" fill="#2ae3fa" stroke="#2ae3fa"></path><path d="M355 600L474 600L369 522.3Z" fill="#00baf2" stroke="#00baf2"></path><path d="M369 522.3L474 600L493 472.6Z" fill="#00b3ef" stroke="#00b3ef"></path><path d="M533 540.3L621 600L646 521.3Z" fill="#38e9fa" stroke="#38e9fa"></path><path d="M86 343.9L136 396.6L139 308.1Z" fill="#01cff8" stroke="#01cff8"></path><path d="M136 396.6L120 423.6L260 472.3Z" fill="#01cff8" stroke="#01cff8"></path><path d="M271 600L355 600L369 522.3Z" fill="#09a5e9" stroke="#09a5e9"></path><path d="M271 600L369 522.3L260 472.3Z" fill="#01cff8" stroke="#01cff8"></path><path d="M0 262.1L86 343.9L139 308.1Z" fill="#0dd5f9" stroke="#0dd5f9"></path><path d="M474 600L507 600L533 540.3Z" fill="#00acec" stroke="#00acec"></path><path d="M792 35.7L743 62.7L744 177.4Z" fill="#01cff8" stroke="#01cff8"></path><path d="M744 177.4L743 62.7L669 121.7Z" fill="#00acec" stroke="#00acec"></path><path d="M743 62.7L701 0L669 121.7Z" fill="#00baf2" stroke="#00baf2"></path><path d="M144 535.3L271 600L260 472.3Z" fill="#00b3ef" stroke="#00b3ef"></path><path d="M751 317.9L806 214.4L700 243.1Z" fill="#00c8f6" stroke="#00c8f6"></path><path d="M813 209.1L806 214.4L900 281.1Z" fill="#2ae3fa" stroke="#2ae3fa"></path><path d="M806 364.9L806 214.4L751 317.9Z" fill="#1cdcfa" stroke="#1cdcfa"></path><path d="M806 214.4L813 209.1L744 177.4Z" fill="#00b3ef" stroke="#00b3ef"></path><path d="M507 600L621 600L533 540.3Z" fill="#00acec" stroke="#00acec"></path><path d="M840 432.6L806 364.9L713 381.6Z" fill="#00baf2" stroke="#00baf2"></path><path d="M768 542.3L713 381.6L646 521.3Z" fill="#00c1f4" stroke="#00c1f4"></path><path d="M252 0L124 0L219 42.7Z" fill="#01cff8" stroke="#01cff8"></path><path d="M116 167.4L0 262.1L139 308.1Z" fill="#00c8f6" stroke="#00c8f6"></path><path d="M120 423.6L144 535.3L260 472.3Z" fill="#00c1f4" stroke="#00c1f4"></path><path d="M119 521.3L144 535.3L120 423.6Z" fill="#0dd5f9" stroke="#0dd5f9"></path><path d="M124 0L50 113.7L116 167.4Z" fill="#00baf2" stroke="#00baf2"></path><path d="M117 0L50 113.7L124 0Z" fill="#00acec" stroke="#00acec"></path><path d="M0 433.6L119 521.3L120 423.6Z" fill="#01cff8" stroke="#01cff8"></path><path d="M621 600L667 600L646 521.3Z" fill="#00b3ef" stroke="#00b3ef"></path><path d="M0 224.4L0 262.1L116 167.4Z" fill="#0dd5f9" stroke="#0dd5f9"></path><path d="M86 343.9L0 433.6L120 423.6Z" fill="#00acec" stroke="#00acec"></path><path d="M813 209.1L792 35.7L744 177.4Z" fill="#00acec" stroke="#00acec"></path><path d="M743 62.7L792 35.7L701 0Z" fill="#00c8f6" stroke="#00c8f6"></path><path d="M0 262.1L0 287.9L86 343.9Z" fill="#01cff8" stroke="#01cff8"></path><path d="M50 113.7L0 224.4L116 167.4Z" fill="#1cdcfa" stroke="#1cdcfa"></path><path d="M89 600L162 600L144 535.3Z" fill="#09a5e9" stroke="#09a5e9"></path><path d="M144 535.3L162 600L271 600Z" fill="#09a5e9" stroke="#09a5e9"></path><path d="M667 600L768 542.3L646 521.3Z" fill="#38e9fa" stroke="#38e9fa"></path><path d="M789 527.3L840 432.6L713 381.6Z" fill="#1cdcfa" stroke="#1cdcfa"></path><path d="M806 364.9L900 281.1L806 214.4Z" fill="#00acec" stroke="#00acec"></path><path d="M768 542.3L789 527.3L713 381.6Z" fill="#00acec" stroke="#00acec"></path><path d="M0 0L0 89.7L50 113.7Z" fill="#00acec" stroke="#00acec"></path><path d="M50 113.7L0 89.7L0 224.4Z" fill="#00baf2" stroke="#00baf2"></path><path d="M0 287.9L0 433.6L86 343.9Z" fill="#09a5e9" stroke="#09a5e9"></path><path d="M119 521.3L89 600L144 535.3Z" fill="#0dd5f9" stroke="#0dd5f9"></path><path d="M900 326.9L900 281.1L806 364.9Z" fill="#1cdcfa" stroke="#1cdcfa"></path><path d="M813 209.1L900 65.7L792 35.7Z" fill="#2ae3fa" stroke="#2ae3fa"></path><path d="M900 281.1L900 212.4L813 209.1Z" fill="#38e9fa" stroke="#38e9fa"></path><path d="M900 387.6L900 326.9L806 364.9Z" fill="#1cdcfa" stroke="#1cdcfa"></path><path d="M900 387.6L806 364.9L840 432.6Z" fill="#38e9fa" stroke="#38e9fa"></path><path d="M0 542.3L89 600L119 521.3Z" fill="#0dd5f9" stroke="#0dd5f9"></path><path d="M900 552.3L900 387.6L840 432.6Z" fill="#00b3ef" stroke="#00b3ef"></path><path d="M900 65.7L849 0L792 35.7Z" fill="#38e9fa" stroke="#38e9fa"></path><path d="M792 35.7L849 0L701 0Z" fill="#00baf2" stroke="#00baf2"></path><path d="M117 0L0 0L50 113.7Z" fill="#00acec" stroke="#00acec"></path><path d="M768 542.3L792 600L789 527.3Z" fill="#00baf2" stroke="#00baf2"></path><path d="M789 527.3L900 552.3L840 432.6Z" fill="#00c1f4" stroke="#00c1f4"></path><path d="M667 600L792 600L768 542.3Z" fill="#0dd5f9" stroke="#0dd5f9"></path><path d="M900 212.4L900 65.7L813 209.1Z" fill="#1cdcfa" stroke="#1cdcfa"></path><path d="M0 433.6L0 542.3L119 521.3Z" fill="#00baf2" stroke="#00baf2"></path><path d="M900 65.7L900 0L849 0Z" fill="#00c1f4" stroke="#00c1f4"></path><path d="M0 542.3L0 600L89 600Z" fill="#00b3ef" stroke="#00b3ef"></path><path d="M792 600L900 552.3L789 527.3Z" fill="#01cff8" stroke="#01cff8"></path><path d="M792 600L900 600L900 552.3Z" fill="#00c1f4" stroke="#00c1f4"></path></g></svg>