<?xml version="1.0" encoding="UTF-8" standalone="no"?>

<svg
   width="800"
   height="457.55499"
   viewBox="0 -0.62 422.813 241.82467"
   version="1.1"
   id="svg72"
   sodipodi:docname="students-doing-a-guts-pose.svg"
   inkscape:version="1.3.2 (091e20e, 2023-11-25)"
   xmlns:inkscape="http://www.inkscape.org/namespaces/inkscape"
   xmlns:sodipodi="http://sodipodi.sourceforge.net/DTD/sodipodi-0.dtd"
   xmlns="http://www.w3.org/2000/svg"
   xmlns:svg="http://www.w3.org/2000/svg">
  <sodipodi:namedview
     id="namedview72"
     pagecolor="#ffffff"
     bordercolor="#000000"
     borderopacity="0.25"
     inkscape:showpageshadow="2"
     inkscape:pageopacity="0.0"
     inkscape:pagecheckerboard="0"
     inkscape:deskcolor="#d1d1d1"
     showborder="true"
     inkscape:zoom="0.60562584"
     inkscape:cx="109.80377"
     inkscape:cy="70.175341"
     inkscape:window-width="1440"
     inkscape:window-height="872"
     inkscape:window-x="0"
     inkscape:window-y="28"
     inkscape:window-maximized="0"
     inkscape:current-layer="svg72" />
  <defs
     id="defs1">
    <style
       id="style1">.a{fill:#ffffff;}.b{fill:#85807f;}.c{fill:#211715;}.d{fill:#4793cf;}.e{fill:#ffda71;}</style>
  </defs>
  <path
     class="a"
     d="m 140.8,61.892 a 5.87,5.87 0 0 1 4.246,-1.554 5.448,5.448 0 0 1 4.9,2.72 c 1.664,2.885 1.593,8.2 0.477,11.491 -0.791,2.329 -2.087,5.893 -5.21,8.448 a 6.472,6.472 0 0 1 -4.992,1.441 l -0.479,-0.081 a 38.011,38.011 0 0 1 -1.717,4.662 c -1.3,3.53 -8.633,16.128 -17.821,20.566 v 2.684 c -0.7,0.57 -15.068,11.895 -16.157,12.667 h -2.53 c -1.089,-0.772 -15.452,-12.1 -16.157,-12.667 v -3.22 A 34.7,34.7 0 0 1 75.129,100.341 44.671,44.671 0 0 1 66.646,84.35 6.349,6.349 0 0 1 61.245,83 c -3.123,-2.555 -4.419,-6.119 -5.209,-8.448 -1.117,-3.29 -1.187,-8.606 0.476,-11.491 a 5.448,5.448 0 0 1 4.9,-2.72 5.869,5.869 0 0 1 4.246,1.554 c 0,0 -3.101,-31.526 35.342,-31.526 38.443,0 39.8,31.523 39.8,31.523 z"
     id="path1" />
  <path
     class="a"
     d="m 357.745,70.538 a 5.724,5.724 0 0 1 4.137,-1.515 5.312,5.312 0 0 1 4.771,2.651 c 1.621,2.811 1.552,7.991 0.464,11.2 -0.77,2.269 -2.033,5.742 -5.076,8.232 a 6.307,6.307 0 0 1 -4.863,1.4 l -0.336,-0.056 c -0.576,1.681 -1.3,3.175 -1.539,3.913 -1.209,3.28 -7.814,14.673 -16.219,19.337 v 2.351 c -0.658,0.533 -14.087,11.121 -15.105,11.842 h -2.365 c -1.018,-0.721 -14.446,-11.309 -15.1,-11.842 v -1.176 a 35.294,35.294 0 0 1 -11.892,-9.589 43,43 0 0 1 -8,-14.838 6.211,6.211 0 0 1 -5.137,-1.345 c -3.043,-2.49 -4.305,-5.963 -5.075,-8.232 -1.088,-3.2 -1.157,-8.385 0.464,-11.2 a 5.311,5.311 0 0 1 4.77,-2.651 5.723,5.723 0 0 1 4.137,1.515 c 0,0 -4.281,-30.222 35.554,-30.222 40.665,0 36.41,30.225 36.41,30.225 z"
     id="path2" />
  <path
     class="b"
     d="m 281.7,38.513 a 43.477,43.477 0 0 1 14.268,-17.549 45.378,45.378 0 0 1 45.959,-3.414 c 9.409,-11.43 23.771,-5.45 25.545,3.8 1.158,6.04 1.51,9.771 4.275,15.229 2.846,5.618 5.226,6.322 10.177,8.647 -3.787,5.593 -8.7,10.395 -16.753,9.109 a 46.137,46.137 0 0 1 -1.932,14.862 7.336,7.336 0 0 0 -1.356,-0.17 5.726,5.726 0 0 0 -4.038,1.428 c -6,-1.238 -12.262,-7.25 -15.857,-11.84 -3.437,-4.387 -5.588,-9.657 -7.4,-15.608 -5.509,6.2 -14.841,11.285 -25.235,16.98 a 142.553,142.553 0 0 1 -17.5,6.848 l -6.068,3.707 a 5.723,5.723 0 0 0 -4.137,-1.515 7.346,7.346 0 0 0 -1.5,0.2 46.873,46.873 0 0 1 -2,-14.893 45.492,45.492 0 0 1 1.7,-10.683 41.546,41.546 0 0 1 1.852,-5.138 z"
     id="path3" />
  <path
     class="a"
     d="m 309.4,163.107 c 0.938,2.656 1.858,5.277 2.737,7.849 3.648,10.673 5.683,15.24 9.905,25.588 h 1.507 c 4.222,-10.348 6.257,-14.915 9.9,-25.588 4.536,-13.271 10.163,-27.877 13.764,-41.678 -1.208,-0.509 -2.116,-0.895 -2.116,-0.895 a 4.806,4.806 0 0 0 -1.041,-4.3 c -1.517,-1.756 -3.428,-4.3 -4.978,-6.031 -0.658,0.533 -14.087,11.121 -15.105,11.842 h -2.365 c -1.018,-0.721 -14.446,-11.309 -15.1,-11.842 -1.55,1.734 -3.461,4.275 -4.978,6.031 a 4.806,4.806 0 0 0 -1.041,4.3 l -2.142,0.79 c 2.903,11.157 7.138,22.846 11.053,33.934 z"
     id="path4" />
  <path
     class="b"
     d="m 94.586,2.737 a 42.817,42.817 0 0 0 -18.264,7.819 45.016,45.016 0 0 0 -18.586,35.22 49.587,49.587 0 0 0 1.84,14.852 7.111,7.111 0 0 1 1.832,-0.29 5.869,5.869 0 0 1 4.246,1.554 L 71.659,56.85 C 76.166,51.828 84.12,44.259 89.7,41.331 c 0.655,-0.343 1.5,0.122 1.761,1.215 a 7.2,7.2 0 0 1 0.172,2.619 1.363,1.363 0 0 0 1.943,1.464 c 3.985,-2.214 11.084,-6.669 16.119,-8.79 a 20.367,20.367 0 0 1 7.465,0.917 24.111,24.111 0 0 1 6.876,4.324 c 4.532,3.9 8.876,9.249 10.8,14.09 l 5.959,4.722 a 5.87,5.87 0 0 1 4.246,-1.554 7.264,7.264 0 0 1 1.667,0.242 47.875,47.875 0 0 0 1.793,-14.8 C 147.75,28.008 138.793,16.968 130.139,10.721 A 44.5,44.5 0 0 0 103.116,2.01 48.953,48.953 0 0 0 94.586,2.737 Z"
     id="path5" />
  <path
     class="c"
     d="m 304.131,117.519 a 47.051,47.051 0 0 1 -0.588,4.777 28.115,28.115 0 0 1 -0.521,2.916 c -0.037,0.129 -0.268,0.7 -0.1,0.344 a 5.342,5.342 0 0 1 -0.3,0.538 c -0.163,0.258 0.19,-0.207 -0.019,0.029 -0.063,0.071 -0.127,0.141 -0.194,0.208 a 1.364,1.364 0 0 1 -0.511,0.385 c -0.514,0.3 -1.065,0.5 -1.6,0.74 -2.779,1.264 -5.54,2.57 -8.313,3.846 q -1.075,0.494 -2.152,0.983 c -0.256,0.116 -0.513,0.228 -0.77,0.344 -0.49,0.22 0.477,-0.175 0.04,-0.018 a 2.05,2.05 0 0 0 -1.4,2.46 2.018,2.018 0 0 0 2.46,1.4 c 1.115,-0.4 2.193,-0.958 3.268,-1.451 q 2.559,-1.173 5.111,-2.361 1.885,-0.875 3.772,-1.746 a 2.176,2.176 0 0 0 0.3,-0.137 c -0.006,0 -0.749,0.3 -0.323,0.142 0.209,-0.077 0.414,-0.166 0.619,-0.253 a 7.881,7.881 0 0 0 1.1,-0.551 6.466,6.466 0 0 0 2.633,-3.174 15.387,15.387 0 0 0 0.689,-3.219 c 0.34,-2.059 0.65,-4.115 0.792,-6.2 a 2,2 0 0 0 -4,0 z"
     id="path6" />
  <path
     class="c"
     d="m 335.984,116.59 a 65.278,65.278 0 0 0 1.124,8.949 6.972,6.972 0 0 0 4.615,5.324 c 0.727,0.289 -0.521,-0.258 -0.006,-0.009 0.185,0.089 0.373,0.173 0.559,0.26 q 0.879,0.412 1.757,0.829 2.38,1.124 4.759,2.251 c 1.082,0.512 2.155,1.062 3.257,1.532 a 2.068,2.068 0 0 0 2.736,-0.718 2.013,2.013 0 0 0 -0.717,-2.736 c -2.337,-1 -4.61,-2.172 -6.9,-3.258 -1.115,-0.527 -2.225,-1.066 -3.347,-1.577 a 13.751,13.751 0 0 1 -1.687,-0.8 2.065,2.065 0 0 1 -0.975,-1.36 28.2,28.2 0 0 1 -0.6,-3.321 47.847,47.847 0 0 1 -0.573,-5.368 2.043,2.043 0 0 0 -2,-2 2.019,2.019 0 0 0 -2,2 z"
     id="path7" />
  <path
     class="c"
     d="m 314.992,100.746 a 14.853,14.853 0 0 0 7.15,1.659 11.675,11.675 0 0 0 7.249,-2.152 2,2 0 0 0 0,-2.828 2.062,2.062 0 0 0 -2.829,0 c 0.616,-0.48 0.173,-0.138 0.015,-0.036 q -0.213,0.137 -0.437,0.253 c -0.078,0.04 -0.157,0.077 -0.234,0.116 -0.173,0.089 -0.3,0.032 0.113,-0.04 a 4.842,4.842 0 0 0 -0.6,0.219 10.959,10.959 0 0 1 -1.687,0.385 c 0.3,-0.047 0.043,-0.008 -0.117,0.008 -0.16,0.016 -0.332,0.03 -0.5,0.041 -0.4,0.026 -0.8,0.036 -1.2,0.034 q -0.537,0 -1.073,-0.039 c -0.164,-0.011 -0.328,-0.024 -0.492,-0.041 -0.052,-0.005 -0.65,-0.1 -0.194,-0.02 a 14.391,14.391 0 0 1 -1.576,-0.35 c -0.221,-0.066 -0.436,-0.145 -0.654,-0.219 -0.5,-0.17 0.334,0.168 -0.115,-0.044 -0.27,-0.127 -0.536,-0.26 -0.8,-0.4 a 2.0001525,2.0001525 0 1 0 -2.018,3.454 z"
     id="path8" />
  <path
     class="c"
     d="m 321.051,84 a 33.292,33.292 0 0 1 0.781,3.572 L 321.76,87.04 a 2.2,2.2 0 0 1 0.014,0.493 l 0.071,-0.532 a 1.2,1.2 0 0 1 -0.054,0.222 l 0.2,-0.478 a 0.794,0.794 0 0 1 -0.078,0.143 l 0.313,-0.405 a 0.748,0.748 0 0 1 -0.117,0.115 l 0.4,-0.313 a 2.319,2.319 0 0 1 -0.283,0.15 l 0.478,-0.2 a 2.09,2.09 0 0 1 -0.477,0.14 l 0.532,-0.072 a 1.865,1.865 0 0 1 -0.448,0 l 0.532,0.072 c -0.169,-0.024 -0.334,-0.065 -0.5,-0.088 a 1.515,1.515 0 0 0 -0.8,-0.035 1.486,1.486 0 0 0 -0.743,0.237 2,2 0 0 0 -0.718,2.736 1.916,1.916 0 0 0 1.2,0.92 c 0.4,0.053 0.786,0.154 1.192,0.172 a 3.836,3.836 0 0 0 1.776,-0.425 2.6,2.6 0 0 0 1.431,-1.71 4.231,4.231 0 0 0 -0.018,-1.823 c -0.194,-1.15 -0.46,-2.29 -0.756,-3.419 A 2,2 0 0 0 321.051,84 Z"
     id="path9" />
  <path
     class="c"
     d="m 302.33,73.839 c -0.6,1.938 -0.207,6.4 3.464,6.776 4.853,-0.029 5.112,-5.42 3.478,-7.954 -1.338,-2.075 -5.272,-2.938 -6.942,1.178 z"
     id="path10" />
  <path
     class="c"
     d="m 341.192,73.839 c 0.6,1.938 0.208,6.4 -3.463,6.776 -4.853,-0.03 -5.112,-5.42 -3.478,-7.954 1.337,-2.075 5.27,-2.938 6.941,1.178 z"
     id="path11" />
  <path
     class="c"
     d="m 355.651,88.909 a 23.54,23.54 0 0 1 -1.832,5.8 c -0.2,0.485 -0.386,0.975 -0.577,1.463 0.217,-0.557 -0.039,0.082 -0.089,0.188 -0.1,0.205 -0.194,0.411 -0.3,0.616 a 48.763,48.763 0 0 1 -4.06,6.662 c -3.561,4.992 -8.415,10.407 -14.628,11.858 -2.506,0.585 -1.445,4.443 1.063,3.857 5.475,-1.278 10.036,-5.226 13.632,-9.375 a 50.033,50.033 0 0 0 7.742,-11.6 31.08,31.08 0 0 0 2.9,-8.4 2.07,2.07 0 0 0 -1.4,-2.461 2.014,2.014 0 0 0 -2.46,1.4 z"
     id="path12" />
  <path
     class="c"
     d="m 283.841,89.829 a 45.654,45.654 0 0 0 9.922,19.528 c 4.816,5.556 11.209,10.269 18.63,11.388 a 2.065,2.065 0 0 0 2.46,-1.4 2.015,2.015 0 0 0 -1.4,-2.46 c -6.821,-1.028 -12.442,-5.252 -16.865,-10.359 A 41.466,41.466 0 0 1 287.7,88.766 c -0.584,-2.506 -4.442,-1.445 -3.857,1.063 z"
     id="path13" />
  <path
     class="c"
     d="m 287.192,69.124 a 8.222,8.222 0 0 0 -8.906,-1.342 7.817,7.817 0 0 0 -4.12,5.3 20.458,20.458 0 0 0 2.994,16.151 c 2.052,3.054 5.262,5.785 9.185,5.276 a 2.065,2.065 0 0 0 2,-2 2.012,2.012 0 0 0 -2,-2 c -3.09,0.4 -5.185,-2.137 -6.527,-4.611 a 17.475,17.475 0 0 1 -2.13,-6.669 c -0.193,-2.243 -0.2,-5.042 1.174,-6.959 -0.166,0.232 0.432,-0.456 0.494,-0.505 a 3.488,3.488 0 0 1 1.361,-0.616 4.027,4.027 0 0 1 3.646,0.807 c 1.916,1.709 4.754,-1.11 2.829,-2.828 z"
     id="path14" />
  <path
     class="c"
     d="m 359.16,71.952 a 4,4 0 0 1 3.478,-0.843 3.588,3.588 0 0 1 1.529,0.652 c -0.147,-0.114 0.358,0.352 0.3,0.3 0.055,0.056 0.406,0.51 0.191,0.209 1.37,1.916 1.366,4.717 1.174,6.959 -0.365,4.258 -3.358,11.968 -8.657,11.28 a 2.01,2.01 0 0 0 -2,2 2.049,2.049 0 0 0 2,2 c 6.444,0.837 10.352,-6.187 11.958,-11.383 1.422,-4.6 1.467,-11.914 -3.057,-14.886 a 8.182,8.182 0 0 0 -9.748,0.888 c -1.925,1.717 0.912,4.538 2.829,2.828 z"
     id="path15" />
  <path
     class="d"
     d="m 120.906,145.766 c 2.492,-8.981 4.779,-18.046 6.748,-26.791 1.567,1 3.513,2.363 5.506,3.912 17.478,6.846 32.793,11.906 40.66,23.866 4.372,6.643 6.98,15.412 8.75,26.84 2.226,17.078 6.312,54.37 7.42,66.661 H 53.774 c -0.026,-3.166 -0.085,-8.657 -0.166,-15.333 l -2.886,1.929 a 72.548,72.548 0 0 1 -8.552,5.973 c -4.582,2.422 -8.445,4.434 -15.661,3.324 -6.151,-0.947 -11.092,-6.229 -12.684,-12.244 a 39.684,39.684 0 0 1 -0.977,-8.478 c -0.47,-10.965 -0.128,-16.4 -1.254,-26.938 l 9.967,-35.282 21.029,-15.879 c 7.986,-6.073 18.51,-10.525 29.585,-14.272 2.067,-1.618 4.1,-3.039 5.72,-4.079 3.745,16.626 8.637,34.406 13.9,50.572 3.9,11.978 5.184,16.043 10.174,28.356 h 1.61 c 4.989,-12.313 6.273,-16.378 10.174,-28.356 2.496,-7.663 4.908,-15.688 7.153,-23.781 z"
     id="path16" />
  <path
     class="d"
     d="m 243.89,240.566 c 2.443,-18.852 6.559,-51.335 9.612,-66.252 1.289,-6.349 4.242,-17.13 8.442,-23.511 6.561,-9.968 17.345,-14.989 30,-21.1 a 36.41,36.41 0 0 1 5.523,-4.06 c 3.5,14.847 9.731,30.872 14.668,45.315 3.648,10.673 5.683,15.24 9.905,25.588 h 1.507 c 4.222,-10.348 6.257,-14.915 9.9,-25.588 4.937,-14.443 11.166,-30.468 14.669,-45.315 a 33,33 0 0 1 4.194,2.942 c 2.84,0.831 5.029,1.468 5.029,1.468 a 70.306,70.306 0 0 1 16.519,8.5 l 15.455,10.878 16.159,35.491 c 1.209,6.544 2.618,12.426 4.974,23.186 a 39.867,39.867 0 0 1 1.225,8.477 c 0,6.245 -3.43,12.665 -9.167,15.133 -4.477,1.926 -10.851,2 -16.049,0.791 -3.568,-0.832 -9.462,-2.7 -13.743,-5.612 l -3.386,-1.69 c -0.062,6.994 -0.076,13.518 -0.087,15.357 z"
     id="path17" />
  <path
     class="a"
     d="M 101.97,197.9 C 96.98,185.59 95.7,181.525 91.8,169.547 86.967,154.705 82.447,138.502 78.842,123.081 a 5.29,5.29 0 0 1 1.191,-4.361 c 1.622,-1.879 3.666,-4.6 5.324,-6.451 0.705,0.57 15.068,11.895 16.157,12.667 h 2.53 c 1.089,-0.772 15.452,-12.1 16.157,-12.667 1.658,1.854 3.7,4.572 5.324,6.451 a 5.294,5.294 0 0 1 1.191,4.361 c -3.606,15.421 -8.125,31.624 -12.958,46.466 -3.9,11.978 -5.185,16.043 -10.174,28.356 z"
     id="path18" />
  <path
     class="e"
     d="m 97.633,186.8 c 1.152,3.117 2.491,6.543 4.337,11.1 h 1.61 c 4.593,-11.335 6.046,-15.68 9.291,-25.644 -1.573,-13.491 -3.655,-29.535 -3.655,-30.008 a 11.16,11.16 0 0 1 0.387,-2.52 q 0.144,-0.565 0.26,-1.13 c 0.416,-1.874 0.492,-2.833 0.975,-4.818 l 0.029,-0.1 c -2.317,-3.124 -5.119,-6.829 -6.827,-8.75 h -2.53 c -1.693,1.9 -4.463,5.563 -6.769,8.67 l 0.216,0.606 a 24.636,24.636 0 0 1 1.184,3.853 16.051,16.051 0 0 1 0.936,4.463 c 0.013,0.794 -2.177,16.007 -4.207,30.319 1.836,5.64 3.106,9.481 4.763,13.959 z"
     id="path19" />
  <path
     class="c"
     d="m 91.374,197.424 c -8.951,-15.517 -17.8,-31.1 -26.055,-47 a 17.706,17.706 0 0 1 -1.667,-3.232 c -0.107,-0.421 -0.123,-0.311 0.314,-0.778 q 0.63,-0.673 1.274,-1.334 c 1.772,-1.817 3.612,-3.564 5.463,-5.3 a 2.018,2.018 0 0 0 -0.405,-3.141 l -3.458,-1.979 -1.729,-0.987 -0.865,-0.493 q -0.7,-0.47 -0.284,-0.106 l 0.273,1.009 a 8.337,8.337 0 0 1 1.066,-1.645 19.794,19.794 0 0 1 1.326,-1.623 45.182,45.182 0 0 1 4.038,-3.935 71.116,71.116 0 0 1 8.24,-6.178 l -2.938,-1.195 a 579.208,579.208 0 0 0 18.365,64.016 c 1.761,5.025 3.712,9.978 5.71,14.912 a 2.064,2.064 0 0 0 2.46,1.4 2.014,2.014 0 0 0 1.4,-2.46 494.168,494.168 0 0 1 -19.422,-59.886 q -2.493,-9.482 -4.656,-19.046 a 2.015,2.015 0 0 0 -2.938,-1.195 66.552,66.552 0 0 0 -12.5,10.1 30.381,30.381 0 0 0 -2.448,2.947 7.338,7.338 0 0 0 -1.688,3.429 c -0.119,1.879 1.442,2.6 2.842,3.4 l 5.187,2.961 -0.405,-3.141 c -1.738,1.63 -3.467,3.271 -5.139,4.97 -1.5,1.526 -3.582,3.187 -3.17,5.578 a 11.463,11.463 0 0 0 1.357,3.121 q 0.839,1.626 1.684,3.245 1.611,3.084 3.251,6.153 c 4.54,8.5 9.225,16.923 13.978,25.306 q 4.014,7.078 8.085,14.123 c 1.286,2.229 4.744,0.217 3.454,-2.019 z"
     id="path20" />
  <path
     class="c"
     d="m 108.665,138.792 c -3.744,0 -7.487,-0.078 -11.231,-0.079 a 2,2 0 0 0 0,4 c 3.744,0 7.487,0.078 11.231,0.079 a 2,2 0 0 0 0,-4 z"
     id="path21" />
  <path
     class="c"
     d="m 108.909,133.251 c -0.438,1.846 -0.716,3.723 -1.142,5.571 a 12.566,12.566 0 0 0 -0.52,3.763 c 0.162,2.019 0.49,4.038 0.74,6.047 0.984,7.888 1.968,15.777 2.889,23.673 a 2.062,2.062 0 0 0 2,2 2.012,2.012 0 0 0 2,-2 c -0.91,-7.8 -1.88,-15.584 -2.851,-23.372 -0.257,-2.056 -0.537,-4.111 -0.758,-6.171 a 8.588,8.588 0 0 1 0.357,-2.876 c 0.426,-1.849 0.7,-3.726 1.142,-5.571 0.594,-2.5 -3.262,-3.571 -3.857,-1.064 z"
     id="path22" />
  <path
     class="c"
     d="m 94.9,172.675 c 1.114,-7.847 2.246,-15.692 3.331,-23.543 0.283,-2.049 0.65,-4.112 0.813,-6.175 a 11.347,11.347 0 0 0 -0.454,-3.664 38.814,38.814 0 0 0 -1.9,-6.09 2.014,2.014 0 0 0 -2.737,-0.718 2.05,2.05 0 0 0 -0.717,2.737 21.127,21.127 0 0 1 0.864,2.978 c 0.263,0.944 0.586,1.868 0.793,2.828 a 6.652,6.652 0 0 1 0.116,2.259 c -0.228,1.988 -0.484,3.705 -0.766,5.735 -1.046,7.533 -2.13,15.062 -3.2,22.592 a 2.068,2.068 0 0 0 1.4,2.46 2.013,2.013 0 0 0 2.46,-1.4 z"
     id="path23" />
  <path
     class="c"
     d="m 50.7,166.356 c 0.225,9.625 0.364,19.252 0.506,28.878 q 0.245,16.5 0.439,33 0.071,6.011 0.127,12.023 c 0.021,2.572 4.021,2.579 4,0 -0.069,-8.474 -0.183,-16.947 -0.293,-25.421 q -0.222,-16.982 -0.5,-33.962 c -0.082,-4.839 -0.167,-9.677 -0.28,-14.515 -0.061,-2.57 -4.061,-2.579 -4,0 z"
     id="path24" />
  <path
     class="c"
     d="m 154.3,240.254 q 0.069,-12.841 0.215,-25.683 0.166,-16.852 0.389,-33.706 c 0.067,-4.836 0.137,-9.673 0.236,-14.509 0.052,-2.575 -3.948,-2.575 -4,0 -0.2,9.57 -0.3,19.142 -0.416,28.713 q -0.191,16.431 -0.333,32.862 -0.053,6.162 -0.091,12.323 c -0.014,2.574 3.986,2.577 4,0 z"
     id="path25" />
  <path
     class="c"
     d="m 9.594,188.487 c 0.59,5.588 0.835,11.181 0.957,16.8 0.066,3.059 0.135,6.117 0.257,9.175 a 45.652,45.652 0 0 0 1.089,9.976 19.261,19.261 0 0 0 9.564,12.136 20.861,20.861 0 0 0 15.948,0.674 c 5.469,-1.983 10.2,-5.4 14.728,-8.98 a 2.013,2.013 0 0 0 0,-2.829 2.052,2.052 0 0 0 -2.829,0 c -6.823,5.391 -15.9,11.677 -25.013,8.052 a 15.066,15.066 0 0 1 -8.541,-10.116 41.617,41.617 0 0 1 -0.955,-9.15 c -0.107,-2.727 -0.173,-5.455 -0.232,-8.184 -0.127,-5.867 -0.357,-11.711 -0.973,-17.55 a 2.059,2.059 0 0 0 -2,-2 2.013,2.013 0 0 0 -2,2 z"
     id="path26" />
  <path
     class="c"
     d="m 374.876,136.826 a 76.474,76.474 0 0 0 -17,-8.7 2.021,2.021 0 0 0 -2.461,1.4 2.042,2.042 0 0 0 1.4,2.461 72.325,72.325 0 0 1 16.042,8.3 2,2 0 1 0 2.019,-3.453 z"
     id="path27" />
  <path
     class="c"
     d="m 369.946,170.706 c -0.022,9.426 -1.212,18.789 -1.669,28.2 -0.461,9.5 -0.889,18.967 -0.961,28.477 -0.033,4.4 -0.045,8.789 -0.069,13.184 -0.014,2.575 3.986,2.578 4,0 0.1,-17.969 0.31,-35.928 1.856,-53.843 0.46,-5.332 0.83,-10.66 0.843,-16.014 0.006,-2.574 -3.994,-2.578 -4,0 z"
     id="path28" />
  <path
     class="c"
     d="m 272.573,170.706 c 0.023,9.426 1.213,18.789 1.669,28.2 0.462,9.5 0.889,18.967 0.962,28.477 0.033,4.4 0.044,8.789 0.068,13.184 0.014,2.573 4.014,2.579 4,0 -0.1,-17.969 -0.31,-35.928 -1.855,-53.843 -0.46,-5.332 -0.831,-10.66 -0.844,-16.014 -0.006,-2.574 -4.006,-2.578 -4,0 z"
     id="path29" />
  <path
     class="c"
     d="m 403.551,185.453 c 0.779,4.2 1.691,8.37 2.616,12.539 q 0.873,3.935 1.748,7.869 a 62.387,62.387 0 0 1 1.716,9.3 15.576,15.576 0 0 1 -5.213,13.088 c -3.941,3.247 -9.886,3.448 -14.72,2.832 a 38.463,38.463 0 0 1 -15.968,-5.908 c -2.148,-1.433 -4.153,2.031 -2.019,3.454 a 42.6,42.6 0 0 0 15.408,6.065 c 5.733,1.088 12.471,1.068 17.685,-1.882 a 18.336,18.336 0 0 0 8.619,-13.169 27.941,27.941 0 0 0 -0.544,-9.726 c -0.647,-3.236 -1.4,-6.453 -2.119,-9.675 -1.173,-5.27 -2.367,-10.537 -3.351,-15.847 -0.469,-2.527 -4.325,-1.457 -3.858,1.064 z"
     id="path30" />
  <path
     class="c"
     d="m 245.89,240.566 c 2.211,-17.064 4.351,-34.143 7,-51.145 a 192.255,192.255 0 0 1 4.136,-21.248 71.4,71.4 0 0 1 4.594,-12.736 33.667,33.667 0 0 1 7.642,-10.073 c 7.808,-7.1 18.061,-11.161 27.419,-15.747 2.311,-1.133 0.286,-4.584 -2.019,-3.454 -8.751,4.289 -17.914,8.157 -25.644,14.2 a 39.379,39.379 0 0 0 -8.983,9.706 54.586,54.586 0 0 0 -5.576,12.7 150.4,150.4 0 0 0 -4.908,22.324 c -1.429,8.832 -2.668,17.695 -3.87,26.561 -1.305,9.63 -2.545,19.269 -3.794,28.908 a 2.01,2.01 0 0 0 2,2 2.051,2.051 0 0 0 2,-2 z"
     id="path31" />
  <path
     class="a"
     d="m 419.4,156.97 a 11.125,11.125 0 0 1 0.4,1.648 11.885,11.885 0 0 1 -1.7,7.721 62.684,62.684 0 0 0 -4.755,11.989 c -0.89,3.12 -2.008,7.888 -2.339,9.8 a 11.614,11.614 0 0 1 -1.634,4.534 c -1.1,1.627 -2.7,2.172 -4.312,3.113 -0.82,0.479 -5.144,0.179 -6.088,0.078 a 24.033,24.033 0 0 1 -9.5,-3.906 c -3.58,-2.547 -4.565,-7.567 -2.068,-18.074 0.491,-1.894 -0.233,-4.22 -1.45,-6.3 l -2.573,1.282 a 65.028,65.028 0 0 1 -3,-5.867 5.058,5.058 0 0 1 0.887,-5.357 7.268,7.268 0 0 1 1.872,-1.31 l 1.157,-2.342 a 5.5,5.5 0 0 1 -4.479,-1.113 3.41,3.41 0 0 1 -1.305,-2.931 9.083,9.083 0 0 1 1.84,-4.819 16.137,16.137 0 0 1 4.854,-4.482 6.465,6.465 0 0 1 6.353,-0.083 c 0.891,0.568 1.584,1.417 2.508,1.93 l 3.683,0.348 a 5.444,5.444 0 0 1 4.027,-3.086 6.86,6.86 0 0 1 4.929,1.492 30.279,30.279 0 0 1 2.427,2.17 c 3.186,3.3 5.9,6.751 9.031,10.7 a 11.073,11.073 0 0 1 1.235,2.865 z"
     id="path32" />
  <path
     class="c"
     d="m 399.668,143.361 c 0.492,-1.335 2.365,-1.8 3.586,-1.574 2.132,0.4 3.8,2.324 5.216,3.833 1.611,1.719 3.137,3.516 4.626,5.342 1.277,1.567 3.02,3.214 3.845,5.074 a 9.951,9.951 0 0 1 0.915,4.914 c -0.176,2.085 -1.207,3.733 -2.128,5.545 a 62.835,62.835 0 0 0 -4.085,10.484 101.566,101.566 0 0 0 -2.555,10.52 c -0.353,1.917 -0.822,4 -2.54,5.152 a 14.9,14.9 0 0 1 -1.306,0.745 c -0.228,0.122 -0.456,0.241 -0.682,0.365 -0.087,0.048 -0.812,0.4 -0.4,0.236 0.366,-0.143 -0.46,0.009 -0.1,0 -0.431,0.016 -0.859,0.047 -1.291,0.049 a 19.514,19.514 0 0 1 -8.58,-1.715 24.37,24.37 0 0 1 -2.773,-1.476 c -0.348,-0.217 -0.7,-0.438 -1.025,-0.686 0.038,0.029 -0.209,-0.176 -0.415,-0.375 a 5.692,5.692 0 0 1 -1.394,-2.2 c -1.152,-3.519 -0.461,-7.555 0.284,-11.141 0.514,-2.478 0.968,-4.592 0.1,-7.062 a 18.15,18.15 0 0 0 -3.929,-6.313 c -1.756,-1.89 -4.58,0.944 -2.828,2.828 a 12.167,12.167 0 0 1 3.252,5.8 7.4,7.4 0 0 1 -0.316,3.019 c -0.286,1.307 -0.534,2.623 -0.725,3.948 -0.513,3.569 -0.809,7.431 0.634,10.833 1.429,3.368 4.587,5.2 7.828,6.592 a 23.942,23.942 0 0 0 10.43,1.937 c 4.443,-0.135 8.129,-3.63 9.264,-7.792 0.5,-1.856 0.778,-3.791 1.218,-5.666 0.492,-2.095 1.016,-4.184 1.615,-6.251 a 51.689,51.689 0 0 1 4.4,-10.976 14.031,14.031 0 0 0 0.456,-13.583 19.672,19.672 0 0 0 -2.341,-3.131 c -0.991,-1.245 -1.987,-2.486 -3,-3.709 a 53.237,53.237 0 0 0 -5.9,-6.332 c -2.2,-1.905 -4.787,-3.268 -7.8,-2.778 a 7.22,7.22 0 0 0 -5.423,4.482 c -0.892,2.419 2.972,3.463 3.857,1.064 z"
     id="path33" />
  <path
     class="c"
     d="m 407.581,152.538 c -1.984,-2.221 -4.029,-4.39 -6.091,-6.537 a 17.821,17.821 0 0 0 -2.172,-2.067 5.861,5.861 0 0 0 -6.714,-0.117 6.779,6.779 0 0 0 -2.805,6.865 2.018,2.018 0 0 0 2.46,1.4 2.043,2.043 0 0 0 1.4,-2.46 c -0.045,-0.236 -0.046,-0.246 0,-0.031 -0.008,-0.129 -0.009,-0.258 0,-0.387 q 0.031,-0.361 -0.011,-0.059 c 0.023,-0.132 0.051,-0.264 0.085,-0.395 a 2.444,2.444 0 0 1 0.487,-1.033 c -0.1,0.116 -0.075,0.083 0.085,-0.1 q 0.146,-0.162 0.306,-0.309 c 0.346,-0.324 -0.106,0.026 0.3,-0.213 a 1.537,1.537 0 0 1 1.016,-0.287 c 0.4,-0.027 -0.071,-0.078 0.32,0.034 a 1.565,1.565 0 0 1 0.567,0.216 c 0.215,0.135 0.538,0.411 0.244,0.14 0.036,0.033 0.075,0.065 0.109,0.1 0.33,0.354 0.688,0.685 1.025,1.033 2.234,2.3 4.437,4.646 6.575,7.039 a 2.0000516,2.0000516 0 1 0 2.829,-2.828 z"
     id="path34" />
  <path
     class="c"
     d="m 399.42,155.13 a 49.687,49.687 0 0 0 -5.879,-4.972 9.618,9.618 0 0 0 -2.967,-1.74 5.691,5.691 0 0 0 -6.827,6.955 10.605,10.605 0 0 0 2.176,3.484 18,18 0 0 0 1.347,1.5 c 1.365,1.372 2.786,2.689 4.2,4.011 a 2.0000516,2.0000516 0 1 0 2.829,-2.828 c -1.065,-1 -2.13,-1.992 -3.177,-3.006 -0.527,-0.51 -1.052,-1.022 -1.557,-1.554 -0.411,-0.432 -0.9,-1.04 -1.173,-1.4 a 10.806,10.806 0 0 1 -0.723,-1.111 c -0.161,-0.3 0.13,0.21 -0.033,-0.066 -0.041,-0.069 -0.031,-0.159 -0.067,-0.229 0.134,0.262 0.006,0.292 0.014,0.079 0,-0.135 0.012,-0.276 0.008,-0.41 -0.007,-0.289 -0.087,0.306 0,0.021 0.025,-0.083 0.035,-0.173 0.056,-0.257 0.027,-0.105 0.271,-0.716 0.087,-0.344 0.084,-0.169 0.207,-0.332 0.28,-0.5 0.082,-0.191 -0.045,0.073 -0.082,0.1 0.008,-0.007 0.337,-0.327 0.168,-0.18 -0.169,0.147 0.113,-0.075 0.16,-0.1 0.076,-0.048 0.154,-0.09 0.231,-0.135 0.318,-0.186 0.1,-0.05 0.007,-0.017 0.109,-0.041 0.221,-0.078 0.333,-0.109 0.083,-0.023 0.173,-0.033 0.254,-0.06 0.274,-0.091 -0.307,-0.013 -0.023,0 0.08,0 0.172,0 0.253,-0.008 0.438,-0.025 -0.164,-0.089 0.041,-0.013 a 1.318,1.318 0 0 0 0.312,0.082 c 0.2,0.016 -0.059,-0.015 -0.109,-0.051 0.174,0.123 0.365,0.229 0.542,0.351 0.418,0.29 0.839,0.577 1.254,0.871 0.23,0.163 0.459,0.326 0.686,0.493 0.115,0.085 0.23,0.17 0.344,0.257 0.038,0.028 0.262,0.2 0.106,0.081 0.488,0.387 0.951,0.8 1.418,1.215 0.9,0.795 1.824,1.578 2.686,2.421 a 2,2 0 0 0 2.828,-2.828 z"
     id="path35" />
  <path
     class="c"
     d="m 387.484,154.982 a 6.17,6.17 0 0 0 -4.082,-0.795 6.787,6.787 0 0 0 -3.181,1.7 6.663,6.663 0 0 0 -2.221,5.664 13.025,13.025 0 0 0 1.61,4.485 30.3,30.3 0 0 0 2.038,3.829 2.0004048,2.0004048 0 0 0 3.454,-2.019 26.1,26.1 0 0 1 -1.7,-3.135 q -0.42,-0.848 -0.826,-1.7 c -0.1,-0.2 -0.192,-0.405 -0.287,-0.608 l -0.141,-0.306 c -0.058,-0.125 -0.015,-0.23 0.029,0.063 -0.023,-0.151 -0.1,-0.323 -0.14,-0.473 -0.026,-0.108 -0.048,-0.218 -0.067,-0.328 0.028,0.224 0.034,0.26 0.02,0.11 0,-0.2 -0.024,-0.4 -0.018,-0.6 0,-0.062 0.055,-0.632 -0.011,-0.16 a 4.681,4.681 0 0 1 0.1,-0.509 c 0.022,-0.087 0.263,-0.759 0.076,-0.331 a 4.319,4.319 0 0 1 0.232,-0.448 c 0.061,-0.1 0.356,-0.412 0.072,-0.133 0.136,-0.133 0.262,-0.271 0.405,-0.4 0.053,-0.046 0.524,-0.428 0.237,-0.21 0.15,-0.114 0.306,-0.223 0.465,-0.324 0.159,-0.101 0.455,-0.24 0.108,-0.1 0.088,-0.035 0.832,-0.191 0.47,-0.156 a 2.625,2.625 0 0 1 0.581,0 c -0.4,-0.052 0.214,0.085 0.241,0.093 0.222,0.081 0.259,0.092 0.111,0.035 q 0.206,0.1 0.4,0.209 a 2.0001525,2.0001525 0 1 0 2.018,-3.454 z"
     id="path36" />
  <path
     class="c"
     d="m 395.066,140.754 c -0.894,-0.529 -1.658,-1.419 -2.614,-1.993 a 7.475,7.475 0 0 0 -3.677,-1.006 10.466,10.466 0 0 0 -6.883,2.755 16.222,16.222 0 0 0 -4.389,5.483 c -1.058,2.415 -1.582,5.265 0.156,7.493 a 7.4,7.4 0 0 0 7.158,2.422 2.015,2.015 0 0 0 1.4,-2.461 2.047,2.047 0 0 0 -2.46,-1.4 3.326,3.326 0 0 1 -2.279,-0.451 c -0.147,-0.085 -0.288,-0.179 -0.426,-0.278 0.439,0.316 -0.115,-0.135 -0.2,-0.226 a 1.235,1.235 0 0 1 -0.354,-0.714 6,6 0 0 1 0.569,-2.61 10.256,10.256 0 0 1 1.84,-2.626 c 1.39,-1.578 3.043,-3.1 5.172,-3.374 a 3.861,3.861 0 0 1 2.252,0.38 c 0.932,0.518 1.733,1.472 2.719,2.056 2.22,1.314 4.235,-2.142 2.019,-3.454 z"
     id="path37" />
  <path
     class="a"
     d="m 27.73,145.618 c 0.921,-0.511 1.612,-1.357 2.5,-1.923 a 6.439,6.439 0 0 1 6.329,0.083 16.073,16.073 0 0 1 4.837,4.466 9.061,9.061 0 0 1 1.833,4.8 3.4,3.4 0 0 1 -1.3,2.92 5.472,5.472 0 0 1 -4.462,1.109 l 1.153,2.334 a 7.231,7.231 0 0 1 1.865,1.305 5.04,5.04 0 0 1 0.884,5.337 64.829,64.829 0 0 1 -2.993,5.847 l -2.649,-1.131 c -1.161,2.037 -1.837,4.29 -1.359,6.133 2.487,10.468 1.506,15.471 -2.061,18.008 a 23.954,23.954 0 0 1 -9.467,3.892 c -0.94,0.1 -5.249,0.4 -6.065,-0.078 -1.605,-0.938 -3.2,-1.48 -4.3,-3.1 a 11.591,11.591 0 0 1 -1.628,-4.518 c -0.33,-1.908 -1.444,-6.658 -2.33,-9.767 A 62.446,62.446 0 0 0 3.78,169.389 11.846,11.846 0 0 1 2.086,161.7 13.722,13.722 0 0 1 3.721,157.2 c 3.122,-3.936 5.824,-7.378 9,-10.662 a 30.436,30.436 0 0 1 2.418,-2.163 6.834,6.834 0 0 1 4.912,-1.486 5.421,5.421 0 0 1 4.011,3.075 z"
     id="path38" />
  <path
     class="c"
     d="m 25.989,145.433 c -1.771,-4.8 -7.823,-5.744 -11.7,-2.906 -4.2,3.072 -7.438,7.54 -10.646,11.576 a 18.59,18.59 0 0 0 -1.983,2.635 15.9,15.9 0 0 0 -1.153,2.948 12.867,12.867 0 0 0 -0.067,6.907 c 0.571,2.194 1.848,4.05 2.79,6.084 0.882,1.908 1.628,3.882 2.315,5.868 A 94.907,94.907 0 0 1 8.7,190.464 c 0.44,2.139 0.8,4.313 2.055,6.165 a 11.54,11.54 0 0 0 5.6,4.071 13.361,13.361 0 0 0 4.683,0.229 19.992,19.992 0 0 0 4.633,-0.692 c 3.611,-1.053 7.849,-2.836 10.09,-6.018 2.149,-3.052 2.2,-7.15 1.814,-10.715 q -0.222,-2.025 -0.6,-4.031 a 23.9,23.9 0 0 1 -0.75,-3.88 c -0.042,-2.442 1.736,-4.928 3.32,-6.633 1.751,-1.883 -1.072,-4.718 -2.829,-2.828 -2.851,3.068 -5.192,7.236 -4.21,11.531 0.809,3.544 1.664,7.455 1.13,11.074 a 7.631,7.631 0 0 1 -1.047,3.052 6.149,6.149 0 0 1 -2.222,2.017 19.492,19.492 0 0 1 -9.06,3.109 c -0.748,0.043 -1.5,0.072 -2.248,0.069 a 5.977,5.977 0 0 1 -1.5,-0.1 c 0.563,0.168 0.041,0 -0.1,-0.087 -0.223,-0.13 -0.455,-0.246 -0.683,-0.368 -0.441,-0.236 -0.889,-0.465 -1.314,-0.731 a 4.8,4.8 0 0 1 -1.892,-2.27 27.321,27.321 0 0 1 -1.22,-5.065 q -0.648,-2.961 -1.426,-5.891 A 75.559,75.559 0 0 0 7.235,171.9 c -1.439,-3.339 -4,-6.559 -3.074,-10.413 a 12.2,12.2 0 0 1 2.746,-5.1 c 1.714,-2.152 3.447,-4.291 5.284,-6.34 1.509,-1.684 3.29,-4 5.459,-4.848 1.407,-0.552 3.843,-0.432 4.482,1.3 0.883,2.395 4.75,1.359 3.857,-1.064 z"
     id="path39" />
  <path
     class="c"
     d="m 17.078,158.462 c 2.131,-2.385 4.326,-4.719 6.552,-7.014 0.336,-0.346 0.692,-0.677 1.021,-1.029 0.033,-0.035 0.072,-0.067 0.108,-0.1 -0.294,0.272 0.026,0 0.242,-0.138 a 1.521,1.521 0 0 1 0.563,-0.214 l 0.212,-0.045 q -0.265,0.039 0.105,0.011 a 3.942,3.942 0 0 1 0.421,0.02 q -0.277,-0.023 0.089,0.046 c 0.227,0.084 0.266,0.09 0.119,0.018 a 4.166,4.166 0 0 1 0.38,0.2 c 0.263,0.136 0.065,0 0.295,0.212 q 0.159,0.145 0.3,0.308 0.24,0.274 0.084,0.1 a 2.438,2.438 0 0 1 0.484,1.028 q 0.051,0.195 0.084,0.393 -0.041,-0.3 -0.011,0.057 c 0,0.129 0,0.257 0,0.386 0.041,-0.217 0.04,-0.207 0,0.028 a 2.055,2.055 0 0 0 1.4,2.46 2.018,2.018 0 0 0 2.46,-1.4 6.717,6.717 0 0 0 -1.966,-6.191 5.986,5.986 0 0 0 -6.826,-0.982 9.969,9.969 0 0 0 -2.525,2.145 q -1.571,1.626 -3.111,3.282 c -1.111,1.186 -2.219,2.376 -3.3,3.588 a 2.047,2.047 0 0 0 0,2.829 2.019,2.019 0 0 0 2.828,0 z"
     id="path40" />
  <path
     class="c"
     d="m 25.209,161.044 c 0.722,-0.707 1.486,-1.37 2.246,-2.036 0.425,-0.372 0.844,-0.752 1.274,-1.119 0.186,-0.16 0.376,-0.315 0.569,-0.468 -0.071,0.056 -0.224,0.167 0.1,-0.08 0.114,-0.086 0.228,-0.171 0.343,-0.255 0.414,-0.305 0.835,-0.6 1.257,-0.893 a 7.626,7.626 0 0 0 1.147,-0.778 c 0.123,-0.128 -0.044,0.017 -0.118,0.038 0.1,-0.029 0.208,-0.058 0.308,-0.09 0.152,-0.048 0.289,0.029 -0.047,0 0.081,0.007 0.167,0 0.249,0 0.065,0 0.419,0.034 0.156,0 -0.247,-0.033 0.036,0.012 0.072,0.022 0.11,0.03 0.224,0.065 0.335,0.093 0.341,0.085 -0.078,-0.078 0.091,0.034 0.169,0.112 0.365,0.2 0.531,0.323 -0.359,-0.273 0.267,0.282 0.041,0.049 -0.185,-0.192 0.027,0.047 0.065,0.115 0.038,0.068 0.08,0.142 0.12,0.214 0.178,0.321 0.032,0.07 0,-0.009 0.049,0.138 0.094,0.276 0.133,0.417 0.03,0.112 0.046,0.23 0.079,0.341 0.065,0.219 -0.007,-0.068 -0.009,-0.106 0.008,0.219 0.014,0.428 0,0.648 0,-0.055 0.1,-0.328 0.007,-0.168 -0.027,0.047 -0.14,0.379 -0.057,0.191 0.083,-0.188 -0.068,0.117 -0.071,0.121 -0.088,0.15 -0.173,0.3 -0.268,0.445 a 9.423,9.423 0 0 1 -0.764,1.021 c -0.171,0.216 -0.339,0.433 -0.523,0.638 -0.442,0.492 -0.917,0.956 -1.389,1.419 -1.186,1.163 -2.4,2.3 -3.614,3.432 a 2.017,2.017 0 0 0 0,2.828 2.042,2.042 0 0 0 2.829,0 c 1.25,-1.169 2.5,-2.337 3.722,-3.538 a 17.707,17.707 0 0 0 3.554,-4.4 5.649,5.649 0 0 0 -5.3,-8.12 6.226,6.226 0 0 0 -3.309,1.375 50.923,50.923 0 0 0 -6.6,5.476 2,2 0 0 0 2.828,2.828 z"
     id="path41" />
  <path
     class="c"
     d="m 36.293,161.522 c 0.132,-0.075 0.265,-0.144 0.4,-0.209 -0.149,0.058 -0.112,0.047 0.109,-0.034 0.082,-0.023 0.634,-0.14 0.238,-0.092 a 2.873,2.873 0 0 1 0.579,-0.005 c -0.372,-0.032 0.278,0.1 0.365,0.12 q 0.252,0.087 -0.094,-0.04 c 0.1,0.054 0.2,0.113 0.3,0.176 0.159,0.1 0.314,0.209 0.463,0.323 -0.288,-0.22 0.114,0.1 0.171,0.152 a 5.532,5.532 0 0 1 0.467,0.452 c -0.229,-0.249 -0.016,-0.015 0.07,0.131 a 4.183,4.183 0 0 1 0.231,0.446 c -0.185,-0.416 0.028,0.151 0.054,0.245 a 4.947,4.947 0 0 1 0.124,0.59 c -0.051,-0.359 -0.015,0 -0.011,0.157 0.004,0.157 -0.009,0.343 -0.01,0.515 q -0.035,0.352 0.012,-0.027 c -0.018,0.11 -0.04,0.219 -0.066,0.328 -0.037,0.156 -0.117,0.315 -0.139,0.471 0.034,-0.233 0.1,-0.216 0.029,-0.064 -0.04,0.087 -0.08,0.174 -0.121,0.261 q -0.151,0.325 -0.3,0.649 -0.4,0.852 -0.824,1.7 a 26.039,26.039 0 0 1 -1.69,3.123 2.013,2.013 0 0 0 0.717,2.737 2.051,2.051 0 0 0 2.737,-0.718 30.078,30.078 0 0 0 2.03,-3.815 12.962,12.962 0 0 0 1.605,-4.472 6.646,6.646 0 0 0 -2.217,-5.649 6.769,6.769 0 0 0 -3.172,-1.7 6.16,6.16 0 0 0 -4.074,0.794 2.018,2.018 0 0 0 -0.717,2.736 2.043,2.043 0 0 0 2.736,0.718 z"
     id="path42" />
  <path
     class="c"
     d="m 28.739,147.345 c 0.985,-0.583 1.783,-1.533 2.71,-2.049 a 3.9,3.9 0 0 1 2.238,-0.377 c 2.118,0.268 3.763,1.785 5.149,3.359 a 10.438,10.438 0 0 1 1.778,2.5 6.067,6.067 0 0 1 0.621,2.714 c -0.012,0.072 -0.219,0.572 -0.107,0.349 -0.008,0.017 -0.363,0.508 -0.173,0.284 -0.079,0.092 -0.718,0.624 -0.268,0.3 -0.137,0.1 -0.278,0.192 -0.424,0.277 a 2.471,2.471 0 0 1 -1.053,0.4 3.349,3.349 0 0 1 -1.212,0.046 2.062,2.062 0 0 0 -2.461,1.4 2.016,2.016 0 0 0 1.4,2.46 7.635,7.635 0 0 0 6.56,-1.759 c 2,-1.864 2.024,-4.6 1.176,-7.038 a 15.6,15.6 0 0 0 -4.153,-5.96 11.307,11.307 0 0 0 -6.666,-3.3 7.692,7.692 0 0 0 -4.1,0.734 c -1.155,0.549 -2.017,1.613 -3.033,2.215 -2.214,1.31 -0.2,4.769 2.018,3.454 z"
     id="path43" />
  <path
     class="c"
     d="m 325.478,197.076 c 3.369,-8.252 6.771,-16.469 9.67,-24.9 3.37,-9.8 6.98,-19.525 10.169,-29.39 1.771,-5.479 3.4,-11.007 4.735,-16.611 l -2.938,1.195 a 37.342,37.342 0 0 1 7.236,5.706 c 2.1,2.059 4.393,4.417 5.565,7.164 l -0.273,-1.01 0.015,0.322 0.273,-1.01 c 0.249,-0.449 -0.046,-0.065 -0.33,0.111 q -0.353,0.217 -0.7,0.443 c -0.609,0.39 -1.211,0.79 -1.811,1.193 -1.127,0.754 -2.247,1.517 -3.388,2.25 a 2.031,2.031 0 0 0 0,3.454 c 1.587,1.166 3.273,2.21 4.811,3.441 0.42,0.337 1.761,1.217 1.869,1.692 -0.092,-0.4 -0.272,0.206 -0.362,0.371 q -0.4,0.747 -0.809,1.492 -2.906,5.325 -5.96,10.567 c -4.246,7.317 -8.645,14.545 -13.1,21.735 q -3.675,5.93 -7.4,11.829 c -1.375,2.185 2.085,4.195 3.454,2.019 4.82,-7.66 9.615,-15.338 14.291,-23.087 q 3.555,-5.891 7,-11.846 c 2.137,-3.707 4.373,-7.413 6.278,-11.247 1.3,-2.61 -0.12,-4.423 -2.113,-6.091 -1.881,-1.574 -3.966,-2.879 -5.94,-4.329 v 3.454 c 1.326,-0.852 2.624,-1.745 3.936,-2.617 a 18.9,18.9 0 0 0 3.3,-2.2 c 2.01,-2.115 -0.919,-5.351 -2.253,-7.042 a 42.211,42.211 0 0 0 -11.567,-10.221 2.019,2.019 0 0 0 -2.938,1.2 296.113,296.113 0 0 1 -9.167,29.642 c -3.218,9.155 -6.253,18.4 -9.786,27.438 -1.811,4.633 -3.741,9.218 -5.621,13.823 a 2.013,2.013 0 0 0 1.4,2.46 2.049,2.049 0 0 0 2.46,-1.4 z"
     id="path44" />
  <path
     class="c"
     d="m 323.972,196.013 c -3.369,-8.252 -6.771,-16.469 -9.67,-24.9 -3.37,-9.8 -6.979,-19.526 -10.169,-29.39 -1.771,-5.48 -3.4,-11.007 -4.735,-16.611 a 2.019,2.019 0 0 0 -2.938,-1.2 42.18,42.18 0 0 0 -11.567,10.221 c -1.3,1.644 -4.1,4.713 -2.409,6.839 0.818,1.03 2.367,1.677 3.455,2.4 1.313,0.872 2.61,1.765 3.936,2.617 v -3.454 c -1.754,1.288 -3.585,2.466 -5.3,3.811 -1.577,1.238 -3.466,2.7 -3.3,4.917 a 7.306,7.306 0 0 0 1.148,2.806 q 0.817,1.509 1.648,3.008 1.546,2.8 3.135,5.568 c 4.53,7.921 9.26,15.727 14.061,23.487 q 4.034,6.519 8.124,13 c 1.368,2.174 4.831,0.169 3.454,-2.019 -8.866,-14.09 -17.705,-28.226 -25.738,-42.814 q -0.773,-1.4 -1.531,-2.809 a 2.314,2.314 0 0 1 -0.3,-0.556 c 0.009,0.077 -0.217,0.45 0.085,0.044 a 7.272,7.272 0 0 1 1.085,-1.018 c 1.695,-1.476 3.64,-2.646 5.448,-3.974 a 2.031,2.031 0 0 0 0,-3.454 c -1.141,-0.733 -2.261,-1.5 -3.388,-2.25 -0.542,-0.364 -1.084,-0.726 -1.633,-1.079 -0.235,-0.152 -0.47,-0.3 -0.707,-0.45 q -0.257,-0.162 -0.517,-0.318 -0.354,-0.249 0.014,0.1 l 0.274,1.01 0.014,-0.322 -0.273,1.01 c 1.172,-2.747 3.465,-5.106 5.565,-7.164 a 37.342,37.342 0 0 1 7.236,-5.706 l -2.938,-1.195 a 296.032,296.032 0 0 0 9.167,29.642 c 3.218,9.155 6.253,18.4 9.786,27.439 1.811,4.632 3.741,9.217 5.621,13.822 a 2.065,2.065 0 0 0 2.46,1.4 2.012,2.012 0 0 0 1.4,-2.46 z"
     id="path45" />
  <path
     class="c"
     d="m 83.939,110.854 c -1.338,1.513 -2.578,3.107 -3.849,4.675 -1.228,1.515 -2.583,2.888 -3.108,4.825 -0.729,2.687 0.443,4.493 1.809,6.614 1.607,2.5 3.327,4.922 5.167,7.254 a 27.155,27.155 0 0 0 6.1,6.09 2.048,2.048 0 0 0 2.736,-0.718 c 3.324,-4.441 6.455,-9.079 10.13,-13.244 a 2.038,2.038 0 0 0 -0.405,-3.141 c -0.122,-0.088 -0.242,-0.179 -0.362,-0.27 -0.12,-0.091 -0.792,-0.609 -0.351,-0.268 q -0.927,-0.717 -1.85,-1.439 -2.683,-2.1 -5.359,-4.2 c -2.612,-2.055 -5.242,-4.091 -7.83,-6.177 a 2.06,2.06 0 0 0 -2.828,0 2.015,2.015 0 0 0 0,2.829 c 2.656,2.141 5.356,4.231 8.038,6.34 2.825,2.22 5.6,4.544 8.523,6.64 l -0.405,-3.142 c -3.9,4.42 -7.227,9.342 -10.755,14.054 l 2.736,-0.717 a 24.478,24.478 0 0 1 -5,-5.095 c -1.59,-1.985 -3.048,-4.081 -4.441,-6.209 -0.505,-0.77 -1,-1.546 -1.476,-2.335 -0.433,-0.721 -0.515,-0.7 -0.409,-1.444 0.214,-1.49 1.525,-2.624 2.423,-3.736 1.182,-1.465 2.344,-2.946 3.591,-4.356 1.703,-1.923 -1.116,-4.763 -2.825,-2.83 z"
     id="path46" />
  <path
     class="c"
     d="m 117.629,199.443 c 9.513,-16.489 19.05,-33.03 27.619,-50.036 a 4.642,4.642 0 0 0 0.559,-3.828 9.191,9.191 0 0 0 -2.347,-3 c -1.87,-1.937 -3.822,-3.791 -5.785,-5.632 l -0.405,3.141 4.972,-2.837 c 1.454,-0.831 3.171,-1.565 3.057,-3.528 a 7.092,7.092 0 0 0 -1.6,-3.3 29.847,29.847 0 0 0 -2.539,-3.072 66.552,66.552 0 0 0 -12.5,-10.1 2.015,2.015 0 0 0 -2.938,1.195 579.38,579.38 0 0 1 -18.365,64.017 c -1.761,5.024 -3.712,9.977 -5.71,14.912 a 2.014,2.014 0 0 0 1.4,2.46 2.049,2.049 0 0 0 2.46,-1.4 494.344,494.344 0 0 0 19.419,-59.883 q 2.493,-9.482 4.656,-19.045 l -2.938,1.195 a 71.116,71.116 0 0 1 8.24,6.178 46.073,46.073 0 0 1 3.923,3.807 20.644,20.644 0 0 1 1.441,1.751 8.337,8.337 0 0 1 1.066,1.645 l 0.273,-1.009 q 0.417,-0.363 -0.284,0.106 l -0.865,0.493 -1.729,0.987 -3.458,1.974 a 2.018,2.018 0 0 0 -0.405,3.141 c 1.625,1.525 3.244,3.059 4.814,4.641 0.7,0.707 1.428,1.407 2.08,2.161 0.569,0.659 0.27,0.14 0.156,0.61 a 8.569,8.569 0 0 1 -0.828,1.612 q -3.025,5.868 -6.16,11.676 c -4.31,8.006 -8.741,15.947 -13.231,23.853 q -3.727,6.561 -7.5,13.1 c -1.289,2.234 2.166,4.251 3.453,2.019 z"
     id="path47" />
  <path
     class="c"
     d="m 118.782,113.683 c 1.248,1.41 2.41,2.891 3.592,4.356 0.9,1.111 2.209,2.247 2.423,3.736 0.1,0.711 0.019,0.731 -0.41,1.444 -0.474,0.789 -0.971,1.565 -1.475,2.335 -1.393,2.128 -2.851,4.224 -4.442,6.209 a 24.429,24.429 0 0 1 -5,5.095 l 2.737,0.717 c -3.528,-4.712 -6.856,-9.634 -10.756,-14.054 l -0.4,3.142 c 2.921,-2.095 5.7,-4.42 8.524,-6.64 2.682,-2.109 5.381,-4.2 8.038,-6.34 a 2.014,2.014 0 0 0 0,-2.829 2.049,2.049 0 0 0 -2.829,0 c -2.587,2.086 -5.217,4.122 -7.83,6.177 q -2.634,2.07 -5.275,4.136 -0.965,0.753 -1.934,1.5 c 0.427,-0.329 -0.228,0.174 -0.35,0.268 -0.122,0.094 -0.24,0.182 -0.362,0.27 a 2.038,2.038 0 0 0 -0.405,3.141 c 3.674,4.165 6.8,8.8 10.13,13.244 a 2.038,2.038 0 0 0 2.736,0.718 26.88,26.88 0 0 0 6,-5.966 c 1.877,-2.369 3.628,-4.837 5.264,-7.378 1.334,-2.073 2.476,-3.806 1.852,-6.435 -0.466,-1.961 -1.793,-3.333 -3.023,-4.846 -1.316,-1.619 -2.595,-3.269 -3.977,-4.833 -1.71,-1.928 -4.528,0.91 -2.828,2.833 z"
     id="path48" />
  <path
     class="c"
     d="m 191.99,240.254 c -1.5,-16.568 -3.417,-33.108 -5.344,-49.631 -1.055,-9.039 -1.864,-18.195 -3.973,-27.063 -2.294,-9.647 -6.236,-18.98 -13.988,-25.488 -9.318,-7.821 -21.323,-11.809 -32.5,-16.143 a 2.015,2.015 0 0 0 -2.46,1.4 2.046,2.046 0 0 0 1.4,2.46 c 9.793,3.8 20.1,7.311 28.688,13.519 a 33.21,33.21 0 0 1 9.148,9.833 51.3,51.3 0 0 1 5.266,13.127 c 2.311,8.637 3.156,17.56 4.2,26.415 q 1.617,13.752 3.1,27.518 c 0.869,8.013 1.745,16.028 2.471,24.056 a 2.054,2.054 0 0 0 2,2 2.015,2.015 0 0 0 2,-2 z"
     id="path49" />
  <path
     class="c"
     d="m 43.6,139.053 c 8.659,-6.536 18.915,-10.611 29.112,-14.072 2.425,-0.823 1.384,-4.687 -1.063,-3.857 -10.5,3.563 -21.15,7.744 -30.068,14.475 a 2.064,2.064 0 0 0 -0.717,2.737 2.014,2.014 0 0 0 2.736,0.717 z"
     id="path50" />
  <path
     class="c"
     d="m 96.207,93.7 a 15.407,15.407 0 0 0 7.416,1.718 12.089,12.089 0 0 0 7.5,-2.219 2.005,2.005 0 0 0 0,-2.829 2.064,2.064 0 0 0 -2.829,0 c 0.611,-0.476 0.155,-0.124 0,-0.024 -0.155,0.1 -0.3,0.183 -0.456,0.264 -0.081,0.043 -0.164,0.08 -0.244,0.122 -0.232,0.119 -0.171,-0.046 0.1,-0.034 a 2.655,2.655 0 0 0 -0.629,0.229 11.413,11.413 0 0 1 -1.76,0.4 c 0.3,-0.046 -0.006,0 -0.145,0.011 -0.173,0.017 -0.346,0.032 -0.519,0.043 -0.416,0.027 -0.834,0.037 -1.251,0.035 q -0.561,0 -1.12,-0.04 c -0.171,-0.012 -0.342,-0.026 -0.513,-0.043 -0.038,0 -0.657,-0.1 -0.225,-0.024 a 14.66,14.66 0 0 1 -1.644,-0.365 c -0.231,-0.069 -0.455,-0.151 -0.682,-0.229 -0.5,-0.172 0.315,0.16 -0.141,-0.054 -0.282,-0.133 -0.559,-0.272 -0.835,-0.417 A 2.0022778,2.0022778 0 1 0 96.207,93.7 Z"
     id="path51" />
  <path
     class="c"
     d="M 102.568,76.278 A 34.651,34.651 0 0 1 103.382,80 l -0.071,-0.532 a 2.266,2.266 0 0 1 0.014,0.514 l 0.071,-0.532 a 1.245,1.245 0 0 1 -0.056,0.232 l 0.2,-0.478 a 0.933,0.933 0 0 1 -0.081,0.149 l 0.312,-0.405 a 0.808,0.808 0 0 1 -0.121,0.12 l 0.4,-0.313 a 2.306,2.306 0 0 1 -0.3,0.156 l 0.478,-0.2 a 2.2,2.2 0 0 1 -0.5,0.145 l 0.531,-0.072 a 1.963,1.963 0 0 1 -0.466,0 l 0.531,0.071 c -0.176,-0.025 -0.348,-0.067 -0.525,-0.091 a 1.522,1.522 0 0 0 -0.8,-0.036 1.484,1.484 0 0 0 -0.744,0.238 2,2 0 0 0 -0.717,2.736 1.913,1.913 0 0 0 1.195,0.919 c 0.409,0.055 0.805,0.159 1.221,0.177 a 3.909,3.909 0 0 0 1.809,-0.432 2.628,2.628 0 0 0 1.453,-1.732 4.315,4.315 0 0 0 -0.018,-1.855 c -0.2,-1.2 -0.48,-2.39 -0.789,-3.567 a 2.063,2.063 0 0 0 -0.919,-1.2 2,2 0 0 0 -2.938,2.259 z"
     id="path52" />
  <path
     class="c"
     d="m 82.877,65.7 c -0.622,2.022 -0.216,6.673 3.614,7.069 5.063,-0.03 5.332,-5.653 3.628,-8.3 C 88.723,62.31 84.621,61.41 82.877,65.7 Z"
     id="path53" />
  <path
     class="c"
     d="m 123.574,65.7 c 0.622,2.021 0.217,6.672 -3.614,7.068 -5.062,-0.031 -5.332,-5.654 -3.628,-8.3 1.396,-2.158 5.498,-3.058 7.242,1.232 z"
     id="path54" />
  <path
     class="c"
     d="m 67.068,60.478 a 8.384,8.384 0 0 0 -9.076,-1.369 7.969,7.969 0 0 0 -4.2,5.4 c -1.491,5.479 -0.071,11.868 3.067,16.536 2.1,3.12 5.373,5.909 9.382,5.389 a 2.066,2.066 0 0 0 2,-2 2.011,2.011 0 0 0 -2,-2 c -5.471,0.71 -8.561,-7.233 -8.938,-11.63 -0.2,-2.306 -0.2,-5.2 1.212,-7.168 -0.2,0.279 0.191,-0.213 0.2,-0.226 0.076,-0.073 0.265,-0.267 0.322,-0.312 a 3.639,3.639 0 0 1 1.41,-0.638 4.191,4.191 0 0 1 3.793,0.842 c 1.915,1.709 4.754,-1.11 2.828,-2.828 z"
     id="path55" />
  <path
     class="c"
     d="m 142.211,63.306 a 4.164,4.164 0 0 1 3.622,-0.879 3.715,3.715 0 0 1 1.581,0.675 4.334,4.334 0 0 0 0.322,0.312 c 0.053,0.051 0.409,0.511 0.2,0.226 1.415,1.967 1.41,4.863 1.212,7.168 -0.377,4.4 -3.466,12.34 -8.938,11.63 a 2.01,2.01 0 0 0 -2,2 2.05,2.05 0 0 0 2,2 c 6.59,0.855 10.582,-6.332 12.223,-11.644 1.452,-4.7 1.507,-12.182 -3.114,-15.218 a 8.342,8.342 0 0 0 -9.94,0.9 c -1.925,1.717 0.912,4.538 2.828,2.828 z"
     id="path56" />
  <path
     class="c"
     d="m 138.516,81.068 a 43.559,43.559 0 0 1 -2.558,7.757 c 0.212,-0.512 -0.143,0.308 -0.225,0.479 -0.186,0.393 -0.384,0.782 -0.587,1.168 -0.467,0.887 -0.967,1.757 -1.489,2.612 a 46.979,46.979 0 0 1 -9.976,11.886 18.693,18.693 0 0 1 -7.546,3.946 c -2.506,0.585 -1.445,4.442 1.063,3.857 5.73,-1.335 10.493,-5.5 14.236,-9.859 a 51.053,51.053 0 0 0 7.956,-12.029 c 0.1,-0.211 0.184,-0.423 0.274,-0.636 0.021,-0.05 0.3,-0.724 0.206,-0.5 0.095,-0.222 0.587,-1.375 0.8,-1.945 a 37.684,37.684 0 0 0 1.7,-5.673 c 0.52,-2.512 -3.334,-3.586 -3.857,-1.063 z"
     id="path57" />
  <path
     class="c"
     d="m 63.971,82 a 47.281,47.281 0 0 0 10.294,20.414 c 4.86,5.625 11.1,10.073 18.579,11.19 a 2.066,2.066 0 0 0 2.46,-1.4 2.016,2.016 0 0 0 -1.4,-2.461 C 87.018,108.715 81.563,104.76 77.09,99.583 A 43.087,43.087 0 0 1 67.825,80.934 C 67.257,78.425 63.4,79.487 63.971,82 Z"
     id="path58" />
  <path
     class="c"
     d="M 129.189,7.643 A 48.769,48.769 0 0 0 83.631,4 47.439,47.439 0 0 0 58.14,32.162 50.368,50.368 0 0 0 57.467,60.484 c 0.637,2.492 4.5,1.436 3.857,-1.064 -3.547,-13.9 -0.95,-28.995 8.475,-40.049 A 44.679,44.679 0 0 1 82.9,8.777 a 44.7,44.7 0 0 1 44.273,2.32 c 2.166,1.405 4.173,-2.057 2.018,-3.454 z"
     id="path59" />
  <path
     class="c"
     d="m 148.8,60.484 a 52.737,52.737 0 0 0 0.68,-23.257 45.337,45.337 0 0 0 -7.663,-17.654 46.974,46.974 0 0 0 -6.374,-7.131 c -1.9,-1.728 -4.738,1.092 -2.829,2.829 a 43.369,43.369 0 0 1 13.93,31.822 48.643,48.643 0 0 1 -1.6,12.327 c -0.611,2.5 3.245,3.567 3.857,1.064 z"
     id="path60" />
  <path
     class="c"
     d="m 116.152,40.483 a 30.2,30.2 0 0 1 9.688,7.061 33.185,33.185 0 0 1 7.069,10.156 2.064,2.064 0 0 0 2.46,1.4 2.013,2.013 0 0 0 1.4,-2.46 38.009,38.009 0 0 0 -7.875,-11.691 33.377,33.377 0 0 0 -10.72,-7.919 2.066,2.066 0 0 0 -2.737,0.717 2.015,2.015 0 0 0 0.718,2.737 z"
     id="path61" />
  <path
     class="c"
     d="M 73.074,58.264 A 83.287,83.287 0 0 1 88.17,44.59 c 0.577,-0.386 1.164,-0.758 1.766,-1.1 a 1.662,1.662 0 0 0 0.39,-0.22 c 0.212,-0.275 0,0.082 -0.169,-0.046 -1.043,-0.785 -0.549,0.032 -0.494,0.562 a 13.345,13.345 0 0 0 0.1,2.56 3.516,3.516 0 0 0 1.673,2.054 c 1.7,0.9 3.211,-0.067 4.678,-0.912 1.377,-0.793 2.746,-1.6 4.12,-2.4 a 96.721,96.721 0 0 1 10.471,-5.523 2.013,2.013 0 0 0 0.718,-2.737 2.052,2.052 0 0 0 -2.736,-0.717 88.553,88.553 0 0 0 -9.3,4.847 c -1.486,0.855 -2.962,1.725 -4.444,2.587 a 10.328,10.328 0 0 0 -1.89,1.085 c -0.048,0.048 -0.25,0.091 -0.269,0.163 a 3.559,3.559 0 0 0 0.764,0.286 c 0.128,-0.061 0.029,0.059 0.119,-0.244 a 2.55,2.55 0 0 0 0.018,-0.688 c -0.04,-1.832 -0.582,-4.082 -2.533,-4.74 -1.6,-0.54 -3,0.447 -4.306,1.276 a 64.6,64.6 0 0 0 -8.275,6.47 109.476,109.476 0 0 0 -8.323,8.281 c -1.719,1.909 1.1,4.746 2.829,2.829 z"
     id="path62" />
  <path
     class="c"
     d="m 313.759,149.367 c 1.382,1.028 2.719,2.115 4.1,3.146 0.716,0.534 1.442,1.054 2.19,1.541 a 5.9,5.9 0 0 0 2.748,1.3 5.621,5.621 0 0 0 2.631,-1.229 c 0.75,-0.482 1.477,-1 2.192,-1.532 1.421,-1.055 2.794,-2.174 4.215,-3.23 a 2.063,2.063 0 0 0 0.717,-2.737 2.014,2.014 0 0 0 -2.736,-0.717 c -2.634,1.959 -5.123,4.158 -8.029,5.718 h 2.019 c -2.906,-1.56 -5.395,-3.759 -8.029,-5.718 a 2.014,2.014 0 0 0 -2.736,0.717 2.048,2.048 0 0 0 0.718,2.737 z"
     id="path63" />
  <path
     class="a"
     d="m 306.509,118.05 c -1.55,1.734 -3.461,4.275 -4.978,6.031 a 4.806,4.806 0 0 0 -1.041,4.3 c 0.582,1.163 7.023,11.491 11.361,14.27 1.37,-1.826 7.047,-9.706 9.763,-12.761 -1.014,-0.719 -14.446,-11.307 -15.105,-11.84 z"
     id="path64" />
  <path
     class="a"
     d="m 339.084,118.05 c 1.55,1.734 3.461,4.275 4.978,6.031 a 4.806,4.806 0 0 1 1.041,4.3 c -0.582,1.163 -7.023,11.491 -11.361,14.27 -1.37,-1.826 -7.047,-9.706 -9.763,-12.761 1.021,-0.719 14.447,-11.307 15.105,-11.84 z"
     id="path65" />
  <path
     class="c"
     d="m 305.1,116.636 c -1.314,1.485 -2.527,3.054 -3.778,4.591 -1.153,1.416 -2.365,2.7 -2.806,4.527 -0.6,2.469 0.5,4.159 1.755,6.111 q 2.262,3.513 4.847,6.8 a 25.528,25.528 0 0 0 5.728,5.712 2.048,2.048 0 0 0 2.737,-0.718 c 3.1,-4.143 6.022,-8.469 9.45,-12.355 a 2.038,2.038 0 0 0 -0.405,-3.141 c -0.306,-0.22 -0.6,-0.454 -0.9,-0.684 0.437,0.336 -0.03,-0.024 -0.121,-0.095 l -0.472,-0.366 -0.92,-0.718 q -2.488,-1.942 -4.97,-3.9 c -2.441,-1.919 -4.9,-3.822 -7.316,-5.77 a 2.059,2.059 0 0 0 -2.828,0 2.013,2.013 0 0 0 0,2.828 c 5.1,4.108 10.191,8.338 15.509,12.155 l -0.4,-3.141 c -3.653,4.141 -6.771,8.75 -10.076,13.166 l 2.736,-0.718 a 22.512,22.512 0 0 1 -4.533,-4.6 c -1.513,-1.877 -2.9,-3.863 -4.219,-5.879 -0.466,-0.711 -0.925,-1.428 -1.365,-2.156 a 5.723,5.723 0 0 1 -0.384,-0.653 1.6,1.6 0 0 1 -0.116,-0.21 c 0.074,0.288 0.089,-0.414 0.1,-0.512 0.2,-1.374 1.476,-2.454 2.3,-3.482 1.076,-1.335 2.137,-2.682 3.273,-3.967 1.697,-1.919 -1.126,-4.761 -2.826,-2.825 z"
     id="path66" />
  <path
     class="c"
     d="m 337.67,119.464 c 1.136,1.285 2.2,2.633 3.273,3.967 0.814,1.009 2.03,2.056 2.282,3.386 0.141,0.745 0.069,0.736 -0.375,1.471 -0.444,0.735 -0.9,1.445 -1.365,2.156 -1.293,1.973 -2.646,3.918 -4.123,5.759 a 22.9,22.9 0 0 1 -4.629,4.723 l 2.736,0.718 c -3.305,-4.416 -6.423,-9.025 -10.075,-13.166 l -0.405,3.141 c 5.318,-3.817 10.412,-8.047 15.509,-12.155 a 2.011,2.011 0 0 0 0,-2.828 2.047,2.047 0 0 0 -2.828,0 c -2.418,1.948 -4.874,3.851 -7.316,5.77 q -2.482,1.951 -4.97,3.9 -0.459,0.36 -0.92,0.718 l -0.408,0.317 c -0.084,0.065 -0.641,0.5 -0.185,0.144 -0.3,0.23 -0.595,0.464 -0.9,0.684 a 2.039,2.039 0 0 0 -0.405,3.141 c 3.428,3.886 6.349,8.212 9.45,12.355 a 2.04,2.04 0 0 0 2.737,0.718 25.528,25.528 0 0 0 5.728,-5.712 q 2.587,-3.281 4.847,-6.8 c 1.258,-1.953 2.351,-3.641 1.755,-6.111 -0.439,-1.821 -1.657,-3.117 -2.806,-4.527 -1.251,-1.537 -2.464,-3.106 -3.778,-4.591 -1.709,-1.942 -4.529,0.899 -2.829,2.822 z"
     id="path67" />
  <path
     class="c"
     d="m 365.534,68.292 a 50.21,50.21 0 0 0 1.156,-19.2 44.879,44.879 0 0 0 -4.969,-15.407 37.9,37.9 0 0 0 -8.57,-10.64 53.6,53.6 0 0 0 -12.342,-8.271 47.775,47.775 0 0 0 -34.676,-1.374 45.779,45.779 0 0 0 -22.374,17.291 c -7.537,10.982 -9.245,24.845 -5.95,37.605 0.643,2.491 4.5,1.435 3.857,-1.063 -2.739,-10.606 -1.766,-21.975 3.7,-31.578 a 41.923,41.923 0 0 1 18.559,-17.076 43.99,43.99 0 0 1 31.863,-1.516 42.878,42.878 0 0 1 12.294,7.024 37.208,37.208 0 0 1 8.456,8.767 39.9,39.9 0 0 1 5.905,14.884 45.41,45.41 0 0 1 -0.767,19.495 c -0.618,2.5 3.239,3.565 3.857,1.063 z"
     id="path68" />
  <path
     class="c"
     d="m 343.749,18.476 c 2.632,-2.953 6.091,-5.118 10.141,-5.191 a 12.35,12.35 0 0 1 8.63,3.26 10.2,10.2 0 0 1 2.521,3.572 33.789,33.789 0 0 1 1.341,6.3 37.631,37.631 0 0 0 4.758,13.164 15.3,15.3 0 0 0 4.213,4.5 36.81,36.81 0 0 0 5.561,2.86 l -0.718,-2.737 a 22.916,22.916 0 0 1 -5.634,6.132 12.309,12.309 0 0 1 -8.135,2.141 c -2.569,-0.185 -2.557,3.816 0,4 a 15.826,15.826 0 0 0 10.154,-2.677 28.132,28.132 0 0 0 7.069,-7.567 2.008,2.008 0 0 0 -0.717,-2.736 43.655,43.655 0 0 1 -5.126,-2.57 11.056,11.056 0 0 1 -3.491,-3.816 c -2.555,-4.312 -3.589,-9.054 -4.476,-13.925 a 19.342,19.342 0 0 0 -1.744,-5.917 14.184,14.184 0 0 0 -3.462,-4.178 16.557,16.557 0 0 0 -10.6,-3.807 17.947,17.947 0 0 0 -13.117,6.366 c -1.708,1.916 1.111,4.755 2.828,2.828 z"
     id="path69" />
  <path
     class="c"
     d="m 301.214,51.964 c 2.117,3.754 4.632,8.044 6.88,11.339 a 2.64,2.64 0 0 0 3.247,0.916 c 0.542,-0.239 1.129,-0.5 1.685,-0.754 a 2.648,2.648 0 0 0 1.3,-3.552 c -1.518,-3.18 -4.14,-8.51 -5.737,-11.611 a 2.747,2.747 0 0 0 -3.575,-1.244 c -0.833,0.377 -1.764,0.8 -2.609,1.2 a 2.649,2.649 0 0 0 -1.191,3.706 z"
     id="path70" />
  <path
     class="c"
     d="m 333.17,41.589 c -4.548,5.06 -10.539,8.626 -16.387,11.976 a 123.192,123.192 0 0 1 -15.39,7.72 c -3.316,1.324 -6.695,2.484 -10.08,3.617 -2.428,0.814 -1.387,4.678 1.064,3.858 5.35,-1.793 10.616,-3.736 15.764,-6.049 3.261,-1.466 6.36,-3.255 9.471,-5.015 3.328,-1.882 6.629,-3.826 9.779,-6 A 48.043,48.043 0 0 0 336,44.417 c 1.717,-1.91 -1.1,-4.748 -2.828,-2.828 z"
     id="path71" />
  <path
     class="c"
     d="m 332.655,43.535 c 1.952,6.351 4.5,12.424 8.788,17.565 3.94,4.719 9.047,9.353 15.075,11.089 2.479,0.713 3.537,-3.145 1.064,-3.857 -5.36,-1.544 -9.82,-5.886 -13.311,-10.06 -3.83,-4.582 -6.023,-10.152 -7.759,-15.8 -0.754,-2.453 -4.616,-1.407 -3.857,1.064 z"
     id="path72" />
</svg>